 999
DXF created from gear.py (https://github.com/marmakoide/gear-profile-generator)
 0
SECTION
 2
HEADER
 9
$ACADVER
 1
AC1009
 0
ENDSEC
 0
SECTION
 2
TABLES
 0
TABLE
 2
LAYER
 0
LAYER
2
1
0
ENDTAB
 0
ENDSEC
 0
SECTION
 2
BLOCKS
 0
ENDSEC
 0
SECTION
 2
ENTITIES
 0
LINE
 8
1
 62
1
 10
1.536273
 20
-0.233050
 11
1.525822
 21
-0.303505
 0
LINE
 8
1
 62
1
 10
1.525822
 20
-0.303505
 11
1.508515
 21
-0.372596
 0
LINE
 8
1
 62
1
 10
1.508515
 20
-0.372596
 11
1.465544
 21
-0.383182
 0
LINE
 8
1
 62
1
 10
1.465544
 20
-0.383182
 11
1.447944
 21
-0.387044
 0
LINE
 8
1
 62
1
 10
1.447944
 20
-0.387044
 11
1.431106
 21
-0.390291
 0
LINE
 8
1
 62
1
 10
1.431106
 20
-0.390291
 11
1.415049
 21
-0.392964
 0
LINE
 8
1
 62
1
 10
1.415049
 20
-0.392964
 11
1.399789
 21
-0.395106
 0
LINE
 8
1
 62
1
 10
1.399789
 20
-0.395106
 11
1.385341
 21
-0.396759
 0
LINE
 8
1
 62
1
 10
1.385341
 20
-0.396759
 11
1.371721
 21
-0.397967
 0
LINE
 8
1
 62
1
 10
1.371721
 20
-0.397967
 11
1.358938
 21
-0.398772
 0
LINE
 8
1
 62
1
 10
1.358938
 20
-0.398772
 11
1.347005
 21
-0.399218
 0
LINE
 8
1
 62
1
 10
1.347005
 20
-0.399218
 11
1.335930
 21
-0.399350
 0
LINE
 8
1
 62
1
 10
1.335930
 20
-0.399350
 11
1.325719
 21
-0.399211
 0
LINE
 8
1
 62
1
 10
1.325719
 20
-0.399211
 11
1.316378
 21
-0.398846
 0
LINE
 8
1
 62
1
 10
1.316378
 20
-0.398846
 11
1.307911
 21
-0.398298
 0
LINE
 8
1
 62
1
 10
1.307911
 20
-0.398298
 11
1.300319
 21
-0.397613
 0
LINE
 8
1
 62
1
 10
1.300319
 20
-0.397613
 11
1.293603
 21
-0.396833
 0
LINE
 8
1
 62
1
 10
1.293603
 20
-0.396833
 11
1.287761
 21
-0.396004
 0
LINE
 8
1
 62
1
 10
1.287761
 20
-0.396004
 11
1.282790
 21
-0.395168
 0
LINE
 8
1
 62
1
 10
1.282790
 20
-0.395168
 11
1.278685
 21
-0.394370
 0
LINE
 8
1
 62
1
 10
1.278685
 20
-0.394370
 11
1.275440
 21
-0.393653
 0
LINE
 8
1
 62
1
 10
1.275440
 20
-0.393653
 11
1.273267
 21
-0.393115
 0
LINE
 8
1
 62
1
 10
1.273267
 20
-0.393115
 11
1.260325
 21
-0.387469
 0
LINE
 8
1
 62
1
 10
1.260325
 20
-0.387469
 11
1.247253
 21
-0.382480
 0
LINE
 8
1
 62
1
 10
1.247253
 20
-0.382480
 11
1.234799
 21
-0.378421
 0
LINE
 8
1
 62
1
 10
1.234799
 20
-0.378421
 11
1.223002
 21
-0.375257
 0
LINE
 8
1
 62
1
 10
1.223002
 20
-0.375257
 11
1.211900
 21
-0.372950
 0
LINE
 8
1
 62
1
 10
1.211900
 20
-0.372950
 11
1.201530
 21
-0.371461
 0
LINE
 8
1
 62
1
 10
1.201530
 20
-0.371461
 11
1.191926
 21
-0.370750
 0
LINE
 8
1
 62
1
 10
1.191926
 20
-0.370750
 11
1.183121
 21
-0.370774
 0
LINE
 8
1
 62
1
 10
1.183121
 20
-0.370774
 11
1.175147
 21
-0.371493
 0
LINE
 8
1
 62
1
 10
1.175147
 20
-0.371493
 11
1.168033
 21
-0.372861
 0
LINE
 8
1
 62
1
 10
1.168033
 20
-0.372861
 11
1.161807
 21
-0.374834
 0
LINE
 8
1
 62
1
 10
1.161807
 20
-0.374834
 11
1.156496
 21
-0.377366
 0
LINE
 8
1
 62
1
 10
1.156496
 20
-0.377366
 11
1.152123
 21
-0.380411
 0
LINE
 8
1
 62
1
 10
1.152123
 20
-0.380411
 11
1.148712
 21
-0.383920
 0
LINE
 8
1
 62
1
 10
1.148712
 20
-0.383920
 11
1.146284
 21
-0.387845
 0
LINE
 8
1
 62
1
 10
1.146284
 20
-0.387845
 11
1.132830
 21
-0.423417
 0
LINE
 8
1
 62
1
 10
1.132830
 20
-0.423417
 11
1.117037
 21
-0.462692
 0
LINE
 8
1
 62
1
 10
1.117037
 20
-0.462692
 11
1.100433
 21
-0.501631
 0
LINE
 8
1
 62
1
 10
1.100433
 20
-0.501631
 11
1.084793
 21
-0.536297
 0
LINE
 8
1
 62
1
 10
1.084793
 20
-0.536297
 11
1.083735
 21
-0.540790
 0
LINE
 8
1
 62
1
 10
1.083735
 20
-0.540790
 11
1.083665
 21
-0.545683
 0
LINE
 8
1
 62
1
 10
1.083665
 20
-0.545683
 11
1.084604
 21
-0.550928
 0
LINE
 8
1
 62
1
 10
1.084604
 20
-0.550928
 11
1.086569
 21
-0.556474
 0
LINE
 8
1
 62
1
 10
1.086569
 20
-0.556474
 11
1.089576
 21
-0.562271
 0
LINE
 8
1
 62
1
 10
1.089576
 20
-0.562271
 11
1.093639
 21
-0.568269
 0
LINE
 8
1
 62
1
 10
1.093639
 20
-0.568269
 11
1.098770
 21
-0.574416
 0
LINE
 8
1
 62
1
 10
1.098770
 20
-0.574416
 11
1.104978
 21
-0.580659
 0
LINE
 8
1
 62
1
 10
1.104978
 20
-0.580659
 11
1.112273
 21
-0.586947
 0
LINE
 8
1
 62
1
 10
1.112273
 20
-0.586947
 11
1.120658
 21
-0.593227
 0
LINE
 8
1
 62
1
 10
1.120658
 20
-0.593227
 11
1.130140
 21
-0.599446
 0
LINE
 8
1
 62
1
 10
1.130140
 20
-0.599446
 11
1.140719
 21
-0.605550
 0
LINE
 8
1
 62
1
 10
1.140719
 20
-0.605550
 11
1.152395
 21
-0.611487
 0
LINE
 8
1
 62
1
 10
1.152395
 20
-0.611487
 11
1.165167
 21
-0.617203
 0
LINE
 8
1
 62
1
 10
1.165167
 20
-0.617203
 11
1.178310
 21
-0.622362
 0
LINE
 8
1
 62
1
 10
1.178310
 20
-0.622362
 11
1.180227
 21
-0.623518
 0
LINE
 8
1
 62
1
 10
1.180227
 20
-0.623518
 11
1.183029
 21
-0.625305
 0
LINE
 8
1
 62
1
 10
1.183029
 20
-0.625305
 11
1.186496
 21
-0.627643
 0
LINE
 8
1
 62
1
 10
1.186496
 20
-0.627643
 11
1.190601
 21
-0.630568
 0
LINE
 8
1
 62
1
 10
1.190601
 20
-0.630568
 11
1.195319
 21
-0.634112
 0
LINE
 8
1
 62
1
 10
1.195319
 20
-0.634112
 11
1.200619
 21
-0.638310
 0
LINE
 8
1
 62
1
 10
1.200619
 20
-0.638310
 11
1.206472
 21
-0.643193
 0
LINE
 8
1
 62
1
 10
1.206472
 20
-0.643193
 11
1.212846
 21
-0.648793
 0
LINE
 8
1
 62
1
 10
1.212846
 20
-0.648793
 11
1.219710
 21
-0.655140
 0
LINE
 8
1
 62
1
 10
1.219710
 20
-0.655140
 11
1.227028
 21
-0.662262
 0
LINE
 8
1
 62
1
 10
1.227028
 20
-0.662262
 11
1.234766
 21
-0.670187
 0
LINE
 8
1
 62
1
 10
1.234766
 20
-0.670187
 11
1.242889
 21
-0.678940
 0
LINE
 8
1
 62
1
 10
1.242889
 20
-0.678940
 11
1.251358
 21
-0.688548
 0
LINE
 8
1
 62
1
 10
1.251358
 20
-0.688548
 11
1.260135
 21
-0.699033
 0
LINE
 8
1
 62
1
 10
1.260135
 20
-0.699033
 11
1.269182
 21
-0.710418
 0
LINE
 8
1
 62
1
 10
1.269182
 20
-0.710418
 11
1.278458
 21
-0.722723
 0
LINE
 8
1
 62
1
 10
1.278458
 20
-0.722723
 11
1.287922
 21
-0.735968
 0
LINE
 8
1
 62
1
 10
1.287922
 20
-0.735968
 11
1.297533
 21
-0.750170
 0
LINE
 8
1
 62
1
 10
1.297533
 20
-0.750170
 11
1.307247
 21
-0.765346
 0
LINE
 8
1
 62
1
 10
1.307247
 20
-0.765346
 11
1.330146
 21
-0.803216
 0
LINE
 8
1
 62
1
 10
1.330146
 20
-0.803216
 11
1.293529
 21
-0.864309
 0
LINE
 8
1
 62
1
 10
1.293529
 20
-0.864309
 11
1.251100
 21
-0.921517
 0
LINE
 8
1
 62
1
 10
1.251100
 20
-0.921517
 11
1.207349
 21
-0.914853
 0
LINE
 8
1
 62
1
 10
1.207349
 20
-0.914853
 11
1.189611
 21
-0.911686
 0
LINE
 8
1
 62
1
 10
1.189611
 20
-0.911686
 11
1.172812
 21
-0.908242
 0
LINE
 8
1
 62
1
 10
1.172812
 20
-0.908242
 11
1.156954
 21
-0.904567
 0
LINE
 8
1
 62
1
 10
1.156954
 20
-0.904567
 11
1.142036
 21
-0.900706
 0
LINE
 8
1
 62
1
 10
1.142036
 20
-0.900706
 11
1.128055
 21
-0.896705
 0
LINE
 8
1
 62
1
 10
1.128055
 20
-0.896705
 11
1.115009
 21
-0.892608
 0
LINE
 8
1
 62
1
 10
1.115009
 20
-0.892608
 11
1.102892
 21
-0.888460
 0
LINE
 8
1
 62
1
 10
1.102892
 20
-0.888460
 11
1.091696
 21
-0.884306
 0
LINE
 8
1
 62
1
 10
1.091696
 20
-0.884306
 11
1.081413
 21
-0.880190
 0
LINE
 8
1
 62
1
 10
1.081413
 20
-0.880190
 11
1.072033
 21
-0.876154
 0
LINE
 8
1
 62
1
 10
1.072033
 20
-0.876154
 11
1.063543
 21
-0.872242
 0
LINE
 8
1
 62
1
 10
1.063543
 20
-0.872242
 11
1.055930
 21
-0.868495
 0
LINE
 8
1
 62
1
 10
1.055930
 20
-0.868495
 11
1.049178
 21
-0.864957
 0
LINE
 8
1
 62
1
 10
1.049178
 20
-0.864957
 11
1.043272
 21
-0.861666
 0
LINE
 8
1
 62
1
 10
1.043272
 20
-0.861666
 11
1.038192
 21
-0.858664
 0
LINE
 8
1
 62
1
 10
1.038192
 20
-0.858664
 11
1.033919
 21
-0.855990
 0
LINE
 8
1
 62
1
 10
1.033919
 20
-0.855990
 11
1.030432
 21
-0.853682
 0
LINE
 8
1
 62
1
 10
1.030432
 20
-0.853682
 11
1.027709
 21
-0.851778
 0
LINE
 8
1
 62
1
 10
1.027709
 20
-0.851778
 11
1.025907
 21
-0.850449
 0
LINE
 8
1
 62
1
 10
1.025907
 20
-0.850449
 11
1.016111
 21
-0.840280
 0
LINE
 8
1
 62
1
 10
1.016111
 20
-0.840280
 11
1.005943
 21
-0.830668
 0
LINE
 8
1
 62
1
 10
1.005943
 20
-0.830668
 11
0.995990
 21
-0.822153
 0
LINE
 8
1
 62
1
 10
0.995990
 20
-0.822153
 11
0.986302
 21
-0.814715
 0
LINE
 8
1
 62
1
 10
0.986302
 20
-0.814715
 11
0.976928
 21
-0.808335
 0
LINE
 8
1
 62
1
 10
0.976928
 20
-0.808335
 11
0.967917
 21
-0.802991
 0
LINE
 8
1
 62
1
 10
0.967917
 20
-0.802991
 11
0.959316
 21
-0.798658
 0
LINE
 8
1
 62
1
 10
0.959316
 20
-0.798658
 11
0.951172
 21
-0.795312
 0
LINE
 8
1
 62
1
 10
0.951172
 20
-0.795312
 11
0.943530
 21
-0.792924
 0
LINE
 8
1
 62
1
 10
0.943530
 20
-0.792924
 11
0.936434
 21
-0.791465
 0
LINE
 8
1
 62
1
 10
0.936434
 20
-0.791465
 11
0.929927
 21
-0.790906
 0
LINE
 8
1
 62
1
 10
0.929927
 20
-0.790906
 11
0.924051
 21
-0.791213
 0
LINE
 8
1
 62
1
 10
0.924051
 20
-0.791213
 11
0.918846
 21
-0.792352
 0
LINE
 8
1
 62
1
 10
0.918846
 20
-0.792352
 11
0.914352
 21
-0.794289
 0
LINE
 8
1
 62
1
 10
0.914352
 20
-0.794289
 11
0.910606
 21
-0.796986
 0
LINE
 8
1
 62
1
 10
0.910606
 20
-0.796986
 11
0.884564
 21
-0.824701
 0
LINE
 8
1
 62
1
 10
0.884564
 20
-0.824701
 11
0.854943
 21
-0.854943
 0
LINE
 8
1
 62
1
 10
0.854943
 20
-0.854943
 11
0.824701
 21
-0.884564
 0
LINE
 8
1
 62
1
 10
0.824701
 20
-0.884564
 11
0.796986
 21
-0.910606
 0
LINE
 8
1
 62
1
 10
0.796986
 20
-0.910606
 11
0.794289
 21
-0.914352
 0
LINE
 8
1
 62
1
 10
0.794289
 20
-0.914352
 11
0.792352
 21
-0.918846
 0
LINE
 8
1
 62
1
 10
0.792352
 20
-0.918846
 11
0.791213
 21
-0.924051
 0
LINE
 8
1
 62
1
 10
0.791213
 20
-0.924051
 11
0.790906
 21
-0.929927
 0
LINE
 8
1
 62
1
 10
0.790906
 20
-0.929927
 11
0.791465
 21
-0.936434
 0
LINE
 8
1
 62
1
 10
0.791465
 20
-0.936434
 11
0.792924
 21
-0.943530
 0
LINE
 8
1
 62
1
 10
0.792924
 20
-0.943530
 11
0.795312
 21
-0.951172
 0
LINE
 8
1
 62
1
 10
0.795312
 20
-0.951172
 11
0.798658
 21
-0.959316
 0
LINE
 8
1
 62
1
 10
0.798658
 20
-0.959316
 11
0.802991
 21
-0.967917
 0
LINE
 8
1
 62
1
 10
0.802991
 20
-0.967917
 11
0.808335
 21
-0.976928
 0
LINE
 8
1
 62
1
 10
0.808335
 20
-0.976928
 11
0.814715
 21
-0.986302
 0
LINE
 8
1
 62
1
 10
0.814715
 20
-0.986302
 11
0.822153
 21
-0.995990
 0
LINE
 8
1
 62
1
 10
0.822153
 20
-0.995990
 11
0.830668
 21
-1.005943
 0
LINE
 8
1
 62
1
 10
0.830668
 20
-1.005943
 11
0.840280
 21
-1.016111
 0
LINE
 8
1
 62
1
 10
0.840280
 20
-1.016111
 11
0.850449
 21
-1.025907
 0
LINE
 8
1
 62
1
 10
0.850449
 20
-1.025907
 11
0.851778
 21
-1.027709
 0
LINE
 8
1
 62
1
 10
0.851778
 20
-1.027709
 11
0.853682
 21
-1.030432
 0
LINE
 8
1
 62
1
 10
0.853682
 20
-1.030432
 11
0.855990
 21
-1.033919
 0
LINE
 8
1
 62
1
 10
0.855990
 20
-1.033919
 11
0.858664
 21
-1.038192
 0
LINE
 8
1
 62
1
 10
0.858664
 20
-1.038192
 11
0.861666
 21
-1.043272
 0
LINE
 8
1
 62
1
 10
0.861666
 20
-1.043272
 11
0.864957
 21
-1.049178
 0
LINE
 8
1
 62
1
 10
0.864957
 20
-1.049178
 11
0.868495
 21
-1.055930
 0
LINE
 8
1
 62
1
 10
0.868495
 20
-1.055930
 11
0.872242
 21
-1.063543
 0
LINE
 8
1
 62
1
 10
0.872242
 20
-1.063543
 11
0.876154
 21
-1.072033
 0
LINE
 8
1
 62
1
 10
0.876154
 20
-1.072033
 11
0.880190
 21
-1.081413
 0
LINE
 8
1
 62
1
 10
0.880190
 20
-1.081413
 11
0.884306
 21
-1.091696
 0
LINE
 8
1
 62
1
 10
0.884306
 20
-1.091696
 11
0.888460
 21
-1.102892
 0
LINE
 8
1
 62
1
 10
0.888460
 20
-1.102892
 11
0.892608
 21
-1.115009
 0
LINE
 8
1
 62
1
 10
0.892608
 20
-1.115009
 11
0.896705
 21
-1.128055
 0
LINE
 8
1
 62
1
 10
0.896705
 20
-1.128055
 11
0.900706
 21
-1.142036
 0
LINE
 8
1
 62
1
 10
0.900706
 20
-1.142036
 11
0.904567
 21
-1.156954
 0
LINE
 8
1
 62
1
 10
0.904567
 20
-1.156954
 11
0.908242
 21
-1.172812
 0
LINE
 8
1
 62
1
 10
0.908242
 20
-1.172812
 11
0.911686
 21
-1.189611
 0
LINE
 8
1
 62
1
 10
0.911686
 20
-1.189611
 11
0.914853
 21
-1.207349
 0
LINE
 8
1
 62
1
 10
0.914853
 20
-1.207349
 11
0.921517
 21
-1.251100
 0
LINE
 8
1
 62
1
 10
0.921517
 20
-1.251100
 11
0.864309
 21
-1.293529
 0
LINE
 8
1
 62
1
 10
0.864309
 20
-1.293529
 11
0.803216
 21
-1.330146
 0
LINE
 8
1
 62
1
 10
0.803216
 20
-1.330146
 11
0.765346
 21
-1.307247
 0
LINE
 8
1
 62
1
 10
0.765346
 20
-1.307247
 11
0.750170
 21
-1.297533
 0
LINE
 8
1
 62
1
 10
0.750170
 20
-1.297533
 11
0.735968
 21
-1.287922
 0
LINE
 8
1
 62
1
 10
0.735968
 20
-1.287922
 11
0.722723
 21
-1.278458
 0
LINE
 8
1
 62
1
 10
0.722723
 20
-1.278458
 11
0.710418
 21
-1.269182
 0
LINE
 8
1
 62
1
 10
0.710418
 20
-1.269182
 11
0.699033
 21
-1.260135
 0
LINE
 8
1
 62
1
 10
0.699033
 20
-1.260135
 11
0.688548
 21
-1.251358
 0
LINE
 8
1
 62
1
 10
0.688548
 20
-1.251358
 11
0.678940
 21
-1.242889
 0
LINE
 8
1
 62
1
 10
0.678940
 20
-1.242889
 11
0.670187
 21
-1.234766
 0
LINE
 8
1
 62
1
 10
0.670187
 20
-1.234766
 11
0.662262
 21
-1.227028
 0
LINE
 8
1
 62
1
 10
0.662262
 20
-1.227028
 11
0.655140
 21
-1.219710
 0
LINE
 8
1
 62
1
 10
0.655140
 20
-1.219710
 11
0.648793
 21
-1.212846
 0
LINE
 8
1
 62
1
 10
0.648793
 20
-1.212846
 11
0.643193
 21
-1.206472
 0
LINE
 8
1
 62
1
 10
0.643193
 20
-1.206472
 11
0.638310
 21
-1.200619
 0
LINE
 8
1
 62
1
 10
0.638310
 20
-1.200619
 11
0.634112
 21
-1.195319
 0
LINE
 8
1
 62
1
 10
0.634112
 20
-1.195319
 11
0.630568
 21
-1.190601
 0
LINE
 8
1
 62
1
 10
0.630568
 20
-1.190601
 11
0.627643
 21
-1.186496
 0
LINE
 8
1
 62
1
 10
0.627643
 20
-1.186496
 11
0.625305
 21
-1.183029
 0
LINE
 8
1
 62
1
 10
0.625305
 20
-1.183029
 11
0.623518
 21
-1.180227
 0
LINE
 8
1
 62
1
 10
0.623518
 20
-1.180227
 11
0.622362
 21
-1.178310
 0
LINE
 8
1
 62
1
 10
0.622362
 20
-1.178310
 11
0.617203
 21
-1.165167
 0
LINE
 8
1
 62
1
 10
0.617203
 20
-1.165167
 11
0.611487
 21
-1.152395
 0
LINE
 8
1
 62
1
 10
0.611487
 20
-1.152395
 11
0.605550
 21
-1.140719
 0
LINE
 8
1
 62
1
 10
0.605550
 20
-1.140719
 11
0.599446
 21
-1.130140
 0
LINE
 8
1
 62
1
 10
0.599446
 20
-1.130140
 11
0.593227
 21
-1.120658
 0
LINE
 8
1
 62
1
 10
0.593227
 20
-1.120658
 11
0.586947
 21
-1.112273
 0
LINE
 8
1
 62
1
 10
0.586947
 20
-1.112273
 11
0.580659
 21
-1.104978
 0
LINE
 8
1
 62
1
 10
0.580659
 20
-1.104978
 11
0.574416
 21
-1.098770
 0
LINE
 8
1
 62
1
 10
0.574416
 20
-1.098770
 11
0.568269
 21
-1.093639
 0
LINE
 8
1
 62
1
 10
0.568269
 20
-1.093639
 11
0.562271
 21
-1.089576
 0
LINE
 8
1
 62
1
 10
0.562271
 20
-1.089576
 11
0.556474
 21
-1.086569
 0
LINE
 8
1
 62
1
 10
0.556474
 20
-1.086569
 11
0.550928
 21
-1.084604
 0
LINE
 8
1
 62
1
 10
0.550928
 20
-1.084604
 11
0.545683
 21
-1.083665
 0
LINE
 8
1
 62
1
 10
0.545683
 20
-1.083665
 11
0.540790
 21
-1.083735
 0
LINE
 8
1
 62
1
 10
0.540790
 20
-1.083735
 11
0.536297
 21
-1.084793
 0
LINE
 8
1
 62
1
 10
0.536297
 20
-1.084793
 11
0.501631
 21
-1.100433
 0
LINE
 8
1
 62
1
 10
0.501631
 20
-1.100433
 11
0.462692
 21
-1.117037
 0
LINE
 8
1
 62
1
 10
0.462692
 20
-1.117037
 11
0.423417
 21
-1.132830
 0
LINE
 8
1
 62
1
 10
0.423417
 20
-1.132830
 11
0.387845
 21
-1.146284
 0
LINE
 8
1
 62
1
 10
0.387845
 20
-1.146284
 11
0.383920
 21
-1.148712
 0
LINE
 8
1
 62
1
 10
0.383920
 20
-1.148712
 11
0.380411
 21
-1.152123
 0
LINE
 8
1
 62
1
 10
0.380411
 20
-1.152123
 11
0.377366
 21
-1.156496
 0
LINE
 8
1
 62
1
 10
0.377366
 20
-1.156496
 11
0.374834
 21
-1.161807
 0
LINE
 8
1
 62
1
 10
0.374834
 20
-1.161807
 11
0.372861
 21
-1.168033
 0
LINE
 8
1
 62
1
 10
0.372861
 20
-1.168033
 11
0.371493
 21
-1.175147
 0
LINE
 8
1
 62
1
 10
0.371493
 20
-1.175147
 11
0.370774
 21
-1.183121
 0
LINE
 8
1
 62
1
 10
0.370774
 20
-1.183121
 11
0.370750
 21
-1.191926
 0
LINE
 8
1
 62
1
 10
0.370750
 20
-1.191926
 11
0.371461
 21
-1.201530
 0
LINE
 8
1
 62
1
 10
0.371461
 20
-1.201530
 11
0.372950
 21
-1.211900
 0
LINE
 8
1
 62
1
 10
0.372950
 20
-1.211900
 11
0.375257
 21
-1.223002
 0
LINE
 8
1
 62
1
 10
0.375257
 20
-1.223002
 11
0.378421
 21
-1.234799
 0
LINE
 8
1
 62
1
 10
0.378421
 20
-1.234799
 11
0.382480
 21
-1.247253
 0
LINE
 8
1
 62
1
 10
0.382480
 20
-1.247253
 11
0.387469
 21
-1.260325
 0
LINE
 8
1
 62
1
 10
0.387469
 20
-1.260325
 11
0.393115
 21
-1.273267
 0
LINE
 8
1
 62
1
 10
0.393115
 20
-1.273267
 11
0.393653
 21
-1.275440
 0
LINE
 8
1
 62
1
 10
0.393653
 20
-1.275440
 11
0.394370
 21
-1.278685
 0
LINE
 8
1
 62
1
 10
0.394370
 20
-1.278685
 11
0.395168
 21
-1.282790
 0
LINE
 8
1
 62
1
 10
0.395168
 20
-1.282790
 11
0.396004
 21
-1.287761
 0
LINE
 8
1
 62
1
 10
0.396004
 20
-1.287761
 11
0.396833
 21
-1.293603
 0
LINE
 8
1
 62
1
 10
0.396833
 20
-1.293603
 11
0.397613
 21
-1.300319
 0
LINE
 8
1
 62
1
 10
0.397613
 20
-1.300319
 11
0.398298
 21
-1.307911
 0
LINE
 8
1
 62
1
 10
0.398298
 20
-1.307911
 11
0.398846
 21
-1.316378
 0
LINE
 8
1
 62
1
 10
0.398846
 20
-1.316378
 11
0.399211
 21
-1.325719
 0
LINE
 8
1
 62
1
 10
0.399211
 20
-1.325719
 11
0.399350
 21
-1.335930
 0
LINE
 8
1
 62
1
 10
0.399350
 20
-1.335930
 11
0.399218
 21
-1.347005
 0
LINE
 8
1
 62
1
 10
0.399218
 20
-1.347005
 11
0.398772
 21
-1.358938
 0
LINE
 8
1
 62
1
 10
0.398772
 20
-1.358938
 11
0.397967
 21
-1.371721
 0
LINE
 8
1
 62
1
 10
0.397967
 20
-1.371721
 11
0.396759
 21
-1.385341
 0
LINE
 8
1
 62
1
 10
0.396759
 20
-1.385341
 11
0.395106
 21
-1.399789
 0
LINE
 8
1
 62
1
 10
0.395106
 20
-1.399789
 11
0.392964
 21
-1.415049
 0
LINE
 8
1
 62
1
 10
0.392964
 20
-1.415049
 11
0.390291
 21
-1.431106
 0
LINE
 8
1
 62
1
 10
0.390291
 20
-1.431106
 11
0.387044
 21
-1.447944
 0
LINE
 8
1
 62
1
 10
0.387044
 20
-1.447944
 11
0.383182
 21
-1.465544
 0
LINE
 8
1
 62
1
 10
0.383182
 20
-1.465544
 11
0.372596
 21
-1.508515
 0
LINE
 8
1
 62
1
 10
0.372596
 20
-1.508515
 11
0.303505
 21
-1.525822
 0
LINE
 8
1
 62
1
 10
0.303505
 20
-1.525822
 11
0.233050
 21
-1.536273
 0
LINE
 8
1
 62
1
 10
0.233050
 20
-1.536273
 11
0.206825
 21
-1.500623
 0
LINE
 8
1
 62
1
 10
0.206825
 20
-1.500623
 11
0.196522
 21
-1.485841
 0
LINE
 8
1
 62
1
 10
0.196522
 20
-1.485841
 11
0.187079
 21
-1.471528
 0
LINE
 8
1
 62
1
 10
0.187079
 20
-1.471528
 11
0.178464
 21
-1.457716
 0
LINE
 8
1
 62
1
 10
0.178464
 20
-1.457716
 11
0.170646
 21
-1.444437
 0
LINE
 8
1
 62
1
 10
0.170646
 20
-1.444437
 11
0.163590
 21
-1.431722
 0
LINE
 8
1
 62
1
 10
0.163590
 20
-1.431722
 11
0.157262
 21
-1.419600
 0
LINE
 8
1
 62
1
 10
0.157262
 20
-1.419600
 11
0.151626
 21
-1.408099
 0
LINE
 8
1
 62
1
 10
0.151626
 20
-1.408099
 11
0.146647
 21
-1.397245
 0
LINE
 8
1
 62
1
 10
0.146647
 20
-1.397245
 11
0.142287
 21
-1.387063
 0
LINE
 8
1
 62
1
 10
0.142287
 20
-1.387063
 11
0.138508
 21
-1.377576
 0
LINE
 8
1
 62
1
 10
0.138508
 20
-1.377576
 11
0.135271
 21
-1.368806
 0
LINE
 8
1
 62
1
 10
0.135271
 20
-1.368806
 11
0.132536
 21
-1.360774
 0
LINE
 8
1
 62
1
 10
0.132536
 20
-1.360774
 11
0.130264
 21
-1.353498
 0
LINE
 8
1
 62
1
 10
0.130264
 20
-1.353498
 11
0.128414
 21
-1.346995
 0
LINE
 8
1
 62
1
 10
0.128414
 20
-1.346995
 11
0.126945
 21
-1.341280
 0
LINE
 8
1
 62
1
 10
0.126945
 20
-1.341280
 11
0.125815
 21
-1.336368
 0
LINE
 8
1
 62
1
 10
0.125815
 20
-1.336368
 11
0.124981
 21
-1.332270
 0
LINE
 8
1
 62
1
 10
0.124981
 20
-1.332270
 11
0.124402
 21
-1.328998
 0
LINE
 8
1
 62
1
 10
0.124402
 20
-1.328998
 11
0.124068
 21
-1.326784
 0
LINE
 8
1
 62
1
 10
0.124068
 20
-1.326784
 11
0.124331
 21
-1.312667
 0
LINE
 8
1
 62
1
 10
0.124331
 20
-1.312667
 11
0.123938
 21
-1.298680
 0
LINE
 8
1
 62
1
 10
0.123938
 20
-1.298680
 11
0.122921
 21
-1.285621
 0
LINE
 8
1
 62
1
 10
0.122921
 20
-1.285621
 11
0.121330
 21
-1.273511
 0
LINE
 8
1
 62
1
 10
0.121330
 20
-1.273511
 11
0.119213
 21
-1.262372
 0
LINE
 8
1
 62
1
 10
0.119213
 20
-1.262372
 11
0.116620
 21
-1.252221
 0
LINE
 8
1
 62
1
 10
0.116620
 20
-1.252221
 11
0.113602
 21
-1.243076
 0
LINE
 8
1
 62
1
 10
0.113602
 20
-1.243076
 11
0.110210
 21
-1.234950
 0
LINE
 8
1
 62
1
 10
0.110210
 20
-1.234950
 11
0.106494
 21
-1.227858
 0
LINE
 8
1
 62
1
 10
0.106494
 20
-1.227858
 11
0.102508
 21
-1.221809
 0
LINE
 8
1
 62
1
 10
0.102508
 20
-1.221809
 11
0.098303
 21
-1.216812
 0
LINE
 8
1
 62
1
 10
0.098303
 20
-1.216812
 11
0.093931
 21
-1.212874
 0
LINE
 8
1
 62
1
 10
0.093931
 20
-1.212874
 11
0.089445
 21
-1.210000
 0
LINE
 8
1
 62
1
 10
0.089445
 20
-1.210000
 11
0.084897
 21
-1.208192
 0
LINE
 8
1
 62
1
 10
0.084897
 20
-1.208192
 11
0.080342
 21
-1.207450
 0
LINE
 8
1
 62
1
 10
0.080342
 20
-1.207450
 11
0.042329
 21
-1.208633
 0
LINE
 8
1
 62
1
 10
0.042329
 20
-1.208633
 11
0.000000
 21
-1.209072
 0
LINE
 8
1
 62
1
 10
0.000000
 20
-1.209072
 11
-0.042329
 21
-1.208633
 0
LINE
 8
1
 62
1
 10
-0.042329
 20
-1.208633
 11
-0.080342
 21
-1.207450
 0
LINE
 8
1
 62
1
 10
-0.080342
 20
-1.207450
 11
-0.084897
 21
-1.208192
 0
LINE
 8
1
 62
1
 10
-0.084897
 20
-1.208192
 11
-0.089445
 21
-1.210000
 0
LINE
 8
1
 62
1
 10
-0.089445
 20
-1.210000
 11
-0.093931
 21
-1.212874
 0
LINE
 8
1
 62
1
 10
-0.093931
 20
-1.212874
 11
-0.098303
 21
-1.216812
 0
LINE
 8
1
 62
1
 10
-0.098303
 20
-1.216812
 11
-0.102508
 21
-1.221809
 0
LINE
 8
1
 62
1
 10
-0.102508
 20
-1.221809
 11
-0.106494
 21
-1.227858
 0
LINE
 8
1
 62
1
 10
-0.106494
 20
-1.227858
 11
-0.110210
 21
-1.234950
 0
LINE
 8
1
 62
1
 10
-0.110210
 20
-1.234950
 11
-0.113602
 21
-1.243076
 0
LINE
 8
1
 62
1
 10
-0.113602
 20
-1.243076
 11
-0.116620
 21
-1.252221
 0
LINE
 8
1
 62
1
 10
-0.116620
 20
-1.252221
 11
-0.119213
 21
-1.262372
 0
LINE
 8
1
 62
1
 10
-0.119213
 20
-1.262372
 11
-0.121330
 21
-1.273511
 0
LINE
 8
1
 62
1
 10
-0.121330
 20
-1.273511
 11
-0.122921
 21
-1.285621
 0
LINE
 8
1
 62
1
 10
-0.122921
 20
-1.285621
 11
-0.123938
 21
-1.298680
 0
LINE
 8
1
 62
1
 10
-0.123938
 20
-1.298680
 11
-0.124331
 21
-1.312667
 0
LINE
 8
1
 62
1
 10
-0.124331
 20
-1.312667
 11
-0.124068
 21
-1.326784
 0
LINE
 8
1
 62
1
 10
-0.124068
 20
-1.326784
 11
-0.124402
 21
-1.328998
 0
LINE
 8
1
 62
1
 10
-0.124402
 20
-1.328998
 11
-0.124981
 21
-1.332270
 0
LINE
 8
1
 62
1
 10
-0.124981
 20
-1.332270
 11
-0.125815
 21
-1.336368
 0
LINE
 8
1
 62
1
 10
-0.125815
 20
-1.336368
 11
-0.126945
 21
-1.341280
 0
LINE
 8
1
 62
1
 10
-0.126945
 20
-1.341280
 11
-0.128414
 21
-1.346995
 0
LINE
 8
1
 62
1
 10
-0.128414
 20
-1.346995
 11
-0.130264
 21
-1.353498
 0
LINE
 8
1
 62
1
 10
-0.130264
 20
-1.353498
 11
-0.132536
 21
-1.360774
 0
LINE
 8
1
 62
1
 10
-0.132536
 20
-1.360774
 11
-0.135271
 21
-1.368806
 0
LINE
 8
1
 62
1
 10
-0.135271
 20
-1.368806
 11
-0.138508
 21
-1.377576
 0
LINE
 8
1
 62
1
 10
-0.138508
 20
-1.377576
 11
-0.142287
 21
-1.387063
 0
LINE
 8
1
 62
1
 10
-0.142287
 20
-1.387063
 11
-0.146647
 21
-1.397245
 0
LINE
 8
1
 62
1
 10
-0.146647
 20
-1.397245
 11
-0.151626
 21
-1.408099
 0
LINE
 8
1
 62
1
 10
-0.151626
 20
-1.408099
 11
-0.157262
 21
-1.419600
 0
LINE
 8
1
 62
1
 10
-0.157262
 20
-1.419600
 11
-0.163590
 21
-1.431722
 0
LINE
 8
1
 62
1
 10
-0.163590
 20
-1.431722
 11
-0.170646
 21
-1.444437
 0
LINE
 8
1
 62
1
 10
-0.170646
 20
-1.444437
 11
-0.178464
 21
-1.457716
 0
LINE
 8
1
 62
1
 10
-0.178464
 20
-1.457716
 11
-0.187079
 21
-1.471528
 0
LINE
 8
1
 62
1
 10
-0.187079
 20
-1.471528
 11
-0.196522
 21
-1.485841
 0
LINE
 8
1
 62
1
 10
-0.196522
 20
-1.485841
 11
-0.206825
 21
-1.500623
 0
LINE
 8
1
 62
1
 10
-0.206825
 20
-1.500623
 11
-0.233050
 21
-1.536273
 0
LINE
 8
1
 62
1
 10
-0.233050
 20
-1.536273
 11
-0.303505
 21
-1.525822
 0
LINE
 8
1
 62
1
 10
-0.303505
 20
-1.525822
 11
-0.372596
 21
-1.508515
 0
LINE
 8
1
 62
1
 10
-0.372596
 20
-1.508515
 11
-0.383182
 21
-1.465544
 0
LINE
 8
1
 62
1
 10
-0.383182
 20
-1.465544
 11
-0.387044
 21
-1.447944
 0
LINE
 8
1
 62
1
 10
-0.387044
 20
-1.447944
 11
-0.390291
 21
-1.431106
 0
LINE
 8
1
 62
1
 10
-0.390291
 20
-1.431106
 11
-0.392964
 21
-1.415049
 0
LINE
 8
1
 62
1
 10
-0.392964
 20
-1.415049
 11
-0.395106
 21
-1.399789
 0
LINE
 8
1
 62
1
 10
-0.395106
 20
-1.399789
 11
-0.396759
 21
-1.385341
 0
LINE
 8
1
 62
1
 10
-0.396759
 20
-1.385341
 11
-0.397967
 21
-1.371721
 0
LINE
 8
1
 62
1
 10
-0.397967
 20
-1.371721
 11
-0.398772
 21
-1.358938
 0
LINE
 8
1
 62
1
 10
-0.398772
 20
-1.358938
 11
-0.399218
 21
-1.347005
 0
LINE
 8
1
 62
1
 10
-0.399218
 20
-1.347005
 11
-0.399350
 21
-1.335930
 0
LINE
 8
1
 62
1
 10
-0.399350
 20
-1.335930
 11
-0.399211
 21
-1.325719
 0
LINE
 8
1
 62
1
 10
-0.399211
 20
-1.325719
 11
-0.398846
 21
-1.316378
 0
LINE
 8
1
 62
1
 10
-0.398846
 20
-1.316378
 11
-0.398298
 21
-1.307911
 0
LINE
 8
1
 62
1
 10
-0.398298
 20
-1.307911
 11
-0.397613
 21
-1.300319
 0
LINE
 8
1
 62
1
 10
-0.397613
 20
-1.300319
 11
-0.396833
 21
-1.293603
 0
LINE
 8
1
 62
1
 10
-0.396833
 20
-1.293603
 11
-0.396004
 21
-1.287761
 0
LINE
 8
1
 62
1
 10
-0.396004
 20
-1.287761
 11
-0.395168
 21
-1.282790
 0
LINE
 8
1
 62
1
 10
-0.395168
 20
-1.282790
 11
-0.394370
 21
-1.278685
 0
LINE
 8
1
 62
1
 10
-0.394370
 20
-1.278685
 11
-0.393653
 21
-1.275440
 0
LINE
 8
1
 62
1
 10
-0.393653
 20
-1.275440
 11
-0.393115
 21
-1.273267
 0
LINE
 8
1
 62
1
 10
-0.393115
 20
-1.273267
 11
-0.387469
 21
-1.260325
 0
LINE
 8
1
 62
1
 10
-0.387469
 20
-1.260325
 11
-0.382480
 21
-1.247253
 0
LINE
 8
1
 62
1
 10
-0.382480
 20
-1.247253
 11
-0.378421
 21
-1.234799
 0
LINE
 8
1
 62
1
 10
-0.378421
 20
-1.234799
 11
-0.375257
 21
-1.223002
 0
LINE
 8
1
 62
1
 10
-0.375257
 20
-1.223002
 11
-0.372950
 21
-1.211900
 0
LINE
 8
1
 62
1
 10
-0.372950
 20
-1.211900
 11
-0.371461
 21
-1.201530
 0
LINE
 8
1
 62
1
 10
-0.371461
 20
-1.201530
 11
-0.370750
 21
-1.191926
 0
LINE
 8
1
 62
1
 10
-0.370750
 20
-1.191926
 11
-0.370774
 21
-1.183121
 0
LINE
 8
1
 62
1
 10
-0.370774
 20
-1.183121
 11
-0.371493
 21
-1.175147
 0
LINE
 8
1
 62
1
 10
-0.371493
 20
-1.175147
 11
-0.372861
 21
-1.168033
 0
LINE
 8
1
 62
1
 10
-0.372861
 20
-1.168033
 11
-0.374834
 21
-1.161807
 0
LINE
 8
1
 62
1
 10
-0.374834
 20
-1.161807
 11
-0.377366
 21
-1.156496
 0
LINE
 8
1
 62
1
 10
-0.377366
 20
-1.156496
 11
-0.380411
 21
-1.152123
 0
LINE
 8
1
 62
1
 10
-0.380411
 20
-1.152123
 11
-0.383920
 21
-1.148712
 0
LINE
 8
1
 62
1
 10
-0.383920
 20
-1.148712
 11
-0.387845
 21
-1.146284
 0
LINE
 8
1
 62
1
 10
-0.387845
 20
-1.146284
 11
-0.423417
 21
-1.132830
 0
LINE
 8
1
 62
1
 10
-0.423417
 20
-1.132830
 11
-0.462692
 21
-1.117037
 0
LINE
 8
1
 62
1
 10
-0.462692
 20
-1.117037
 11
-0.501631
 21
-1.100433
 0
LINE
 8
1
 62
1
 10
-0.501631
 20
-1.100433
 11
-0.536297
 21
-1.084793
 0
LINE
 8
1
 62
1
 10
-0.536297
 20
-1.084793
 11
-0.540790
 21
-1.083735
 0
LINE
 8
1
 62
1
 10
-0.540790
 20
-1.083735
 11
-0.545683
 21
-1.083665
 0
LINE
 8
1
 62
1
 10
-0.545683
 20
-1.083665
 11
-0.550928
 21
-1.084604
 0
LINE
 8
1
 62
1
 10
-0.550928
 20
-1.084604
 11
-0.556474
 21
-1.086569
 0
LINE
 8
1
 62
1
 10
-0.556474
 20
-1.086569
 11
-0.562271
 21
-1.089576
 0
LINE
 8
1
 62
1
 10
-0.562271
 20
-1.089576
 11
-0.568269
 21
-1.093639
 0
LINE
 8
1
 62
1
 10
-0.568269
 20
-1.093639
 11
-0.574416
 21
-1.098770
 0
LINE
 8
1
 62
1
 10
-0.574416
 20
-1.098770
 11
-0.580659
 21
-1.104978
 0
LINE
 8
1
 62
1
 10
-0.580659
 20
-1.104978
 11
-0.586947
 21
-1.112273
 0
LINE
 8
1
 62
1
 10
-0.586947
 20
-1.112273
 11
-0.593227
 21
-1.120658
 0
LINE
 8
1
 62
1
 10
-0.593227
 20
-1.120658
 11
-0.599446
 21
-1.130140
 0
LINE
 8
1
 62
1
 10
-0.599446
 20
-1.130140
 11
-0.605550
 21
-1.140719
 0
LINE
 8
1
 62
1
 10
-0.605550
 20
-1.140719
 11
-0.611487
 21
-1.152395
 0
LINE
 8
1
 62
1
 10
-0.611487
 20
-1.152395
 11
-0.617203
 21
-1.165167
 0
LINE
 8
1
 62
1
 10
-0.617203
 20
-1.165167
 11
-0.622362
 21
-1.178310
 0
LINE
 8
1
 62
1
 10
-0.622362
 20
-1.178310
 11
-0.623518
 21
-1.180227
 0
LINE
 8
1
 62
1
 10
-0.623518
 20
-1.180227
 11
-0.625305
 21
-1.183029
 0
LINE
 8
1
 62
1
 10
-0.625305
 20
-1.183029
 11
-0.627643
 21
-1.186496
 0
LINE
 8
1
 62
1
 10
-0.627643
 20
-1.186496
 11
-0.630568
 21
-1.190601
 0
LINE
 8
1
 62
1
 10
-0.630568
 20
-1.190601
 11
-0.634112
 21
-1.195319
 0
LINE
 8
1
 62
1
 10
-0.634112
 20
-1.195319
 11
-0.638310
 21
-1.200619
 0
LINE
 8
1
 62
1
 10
-0.638310
 20
-1.200619
 11
-0.643193
 21
-1.206472
 0
LINE
 8
1
 62
1
 10
-0.643193
 20
-1.206472
 11
-0.648793
 21
-1.212846
 0
LINE
 8
1
 62
1
 10
-0.648793
 20
-1.212846
 11
-0.655140
 21
-1.219710
 0
LINE
 8
1
 62
1
 10
-0.655140
 20
-1.219710
 11
-0.662262
 21
-1.227028
 0
LINE
 8
1
 62
1
 10
-0.662262
 20
-1.227028
 11
-0.670187
 21
-1.234766
 0
LINE
 8
1
 62
1
 10
-0.670187
 20
-1.234766
 11
-0.678940
 21
-1.242889
 0
LINE
 8
1
 62
1
 10
-0.678940
 20
-1.242889
 11
-0.688548
 21
-1.251358
 0
LINE
 8
1
 62
1
 10
-0.688548
 20
-1.251358
 11
-0.699033
 21
-1.260135
 0
LINE
 8
1
 62
1
 10
-0.699033
 20
-1.260135
 11
-0.710418
 21
-1.269182
 0
LINE
 8
1
 62
1
 10
-0.710418
 20
-1.269182
 11
-0.722723
 21
-1.278458
 0
LINE
 8
1
 62
1
 10
-0.722723
 20
-1.278458
 11
-0.735968
 21
-1.287922
 0
LINE
 8
1
 62
1
 10
-0.735968
 20
-1.287922
 11
-0.750170
 21
-1.297533
 0
LINE
 8
1
 62
1
 10
-0.750170
 20
-1.297533
 11
-0.765346
 21
-1.307247
 0
LINE
 8
1
 62
1
 10
-0.765346
 20
-1.307247
 11
-0.803216
 21
-1.330146
 0
LINE
 8
1
 62
1
 10
-0.803216
 20
-1.330146
 11
-0.864309
 21
-1.293529
 0
LINE
 8
1
 62
1
 10
-0.864309
 20
-1.293529
 11
-0.921517
 21
-1.251100
 0
LINE
 8
1
 62
1
 10
-0.921517
 20
-1.251100
 11
-0.914853
 21
-1.207349
 0
LINE
 8
1
 62
1
 10
-0.914853
 20
-1.207349
 11
-0.911686
 21
-1.189611
 0
LINE
 8
1
 62
1
 10
-0.911686
 20
-1.189611
 11
-0.908242
 21
-1.172812
 0
LINE
 8
1
 62
1
 10
-0.908242
 20
-1.172812
 11
-0.904567
 21
-1.156954
 0
LINE
 8
1
 62
1
 10
-0.904567
 20
-1.156954
 11
-0.900706
 21
-1.142036
 0
LINE
 8
1
 62
1
 10
-0.900706
 20
-1.142036
 11
-0.896705
 21
-1.128055
 0
LINE
 8
1
 62
1
 10
-0.896705
 20
-1.128055
 11
-0.892608
 21
-1.115009
 0
LINE
 8
1
 62
1
 10
-0.892608
 20
-1.115009
 11
-0.888460
 21
-1.102892
 0
LINE
 8
1
 62
1
 10
-0.888460
 20
-1.102892
 11
-0.884306
 21
-1.091696
 0
LINE
 8
1
 62
1
 10
-0.884306
 20
-1.091696
 11
-0.880190
 21
-1.081413
 0
LINE
 8
1
 62
1
 10
-0.880190
 20
-1.081413
 11
-0.876154
 21
-1.072033
 0
LINE
 8
1
 62
1
 10
-0.876154
 20
-1.072033
 11
-0.872242
 21
-1.063543
 0
LINE
 8
1
 62
1
 10
-0.872242
 20
-1.063543
 11
-0.868495
 21
-1.055930
 0
LINE
 8
1
 62
1
 10
-0.868495
 20
-1.055930
 11
-0.864957
 21
-1.049178
 0
LINE
 8
1
 62
1
 10
-0.864957
 20
-1.049178
 11
-0.861666
 21
-1.043272
 0
LINE
 8
1
 62
1
 10
-0.861666
 20
-1.043272
 11
-0.858664
 21
-1.038192
 0
LINE
 8
1
 62
1
 10
-0.858664
 20
-1.038192
 11
-0.855990
 21
-1.033919
 0
LINE
 8
1
 62
1
 10
-0.855990
 20
-1.033919
 11
-0.853682
 21
-1.030432
 0
LINE
 8
1
 62
1
 10
-0.853682
 20
-1.030432
 11
-0.851778
 21
-1.027709
 0
LINE
 8
1
 62
1
 10
-0.851778
 20
-1.027709
 11
-0.850449
 21
-1.025907
 0
LINE
 8
1
 62
1
 10
-0.850449
 20
-1.025907
 11
-0.840280
 21
-1.016111
 0
LINE
 8
1
 62
1
 10
-0.840280
 20
-1.016111
 11
-0.830668
 21
-1.005943
 0
LINE
 8
1
 62
1
 10
-0.830668
 20
-1.005943
 11
-0.822153
 21
-0.995990
 0
LINE
 8
1
 62
1
 10
-0.822153
 20
-0.995990
 11
-0.814715
 21
-0.986302
 0
LINE
 8
1
 62
1
 10
-0.814715
 20
-0.986302
 11
-0.808335
 21
-0.976928
 0
LINE
 8
1
 62
1
 10
-0.808335
 20
-0.976928
 11
-0.802991
 21
-0.967917
 0
LINE
 8
1
 62
1
 10
-0.802991
 20
-0.967917
 11
-0.798658
 21
-0.959316
 0
LINE
 8
1
 62
1
 10
-0.798658
 20
-0.959316
 11
-0.795312
 21
-0.951172
 0
LINE
 8
1
 62
1
 10
-0.795312
 20
-0.951172
 11
-0.792924
 21
-0.943530
 0
LINE
 8
1
 62
1
 10
-0.792924
 20
-0.943530
 11
-0.791465
 21
-0.936434
 0
LINE
 8
1
 62
1
 10
-0.791465
 20
-0.936434
 11
-0.790906
 21
-0.929927
 0
LINE
 8
1
 62
1
 10
-0.790906
 20
-0.929927
 11
-0.791213
 21
-0.924051
 0
LINE
 8
1
 62
1
 10
-0.791213
 20
-0.924051
 11
-0.792352
 21
-0.918846
 0
LINE
 8
1
 62
1
 10
-0.792352
 20
-0.918846
 11
-0.794289
 21
-0.914352
 0
LINE
 8
1
 62
1
 10
-0.794289
 20
-0.914352
 11
-0.796986
 21
-0.910606
 0
LINE
 8
1
 62
1
 10
-0.796986
 20
-0.910606
 11
-0.824701
 21
-0.884564
 0
LINE
 8
1
 62
1
 10
-0.824701
 20
-0.884564
 11
-0.854943
 21
-0.854943
 0
LINE
 8
1
 62
1
 10
-0.854943
 20
-0.854943
 11
-0.884564
 21
-0.824701
 0
LINE
 8
1
 62
1
 10
-0.884564
 20
-0.824701
 11
-0.910606
 21
-0.796986
 0
LINE
 8
1
 62
1
 10
-0.910606
 20
-0.796986
 11
-0.914352
 21
-0.794289
 0
LINE
 8
1
 62
1
 10
-0.914352
 20
-0.794289
 11
-0.918846
 21
-0.792352
 0
LINE
 8
1
 62
1
 10
-0.918846
 20
-0.792352
 11
-0.924051
 21
-0.791213
 0
LINE
 8
1
 62
1
 10
-0.924051
 20
-0.791213
 11
-0.929927
 21
-0.790906
 0
LINE
 8
1
 62
1
 10
-0.929927
 20
-0.790906
 11
-0.936434
 21
-0.791465
 0
LINE
 8
1
 62
1
 10
-0.936434
 20
-0.791465
 11
-0.943530
 21
-0.792924
 0
LINE
 8
1
 62
1
 10
-0.943530
 20
-0.792924
 11
-0.951172
 21
-0.795312
 0
LINE
 8
1
 62
1
 10
-0.951172
 20
-0.795312
 11
-0.959316
 21
-0.798658
 0
LINE
 8
1
 62
1
 10
-0.959316
 20
-0.798658
 11
-0.967917
 21
-0.802991
 0
LINE
 8
1
 62
1
 10
-0.967917
 20
-0.802991
 11
-0.976928
 21
-0.808335
 0
LINE
 8
1
 62
1
 10
-0.976928
 20
-0.808335
 11
-0.986302
 21
-0.814715
 0
LINE
 8
1
 62
1
 10
-0.986302
 20
-0.814715
 11
-0.995990
 21
-0.822153
 0
LINE
 8
1
 62
1
 10
-0.995990
 20
-0.822153
 11
-1.005943
 21
-0.830668
 0
LINE
 8
1
 62
1
 10
-1.005943
 20
-0.830668
 11
-1.016111
 21
-0.840280
 0
LINE
 8
1
 62
1
 10
-1.016111
 20
-0.840280
 11
-1.025907
 21
-0.850449
 0
LINE
 8
1
 62
1
 10
-1.025907
 20
-0.850449
 11
-1.027709
 21
-0.851778
 0
LINE
 8
1
 62
1
 10
-1.027709
 20
-0.851778
 11
-1.030432
 21
-0.853682
 0
LINE
 8
1
 62
1
 10
-1.030432
 20
-0.853682
 11
-1.033919
 21
-0.855990
 0
LINE
 8
1
 62
1
 10
-1.033919
 20
-0.855990
 11
-1.038192
 21
-0.858664
 0
LINE
 8
1
 62
1
 10
-1.038192
 20
-0.858664
 11
-1.043272
 21
-0.861666
 0
LINE
 8
1
 62
1
 10
-1.043272
 20
-0.861666
 11
-1.049178
 21
-0.864957
 0
LINE
 8
1
 62
1
 10
-1.049178
 20
-0.864957
 11
-1.055930
 21
-0.868495
 0
LINE
 8
1
 62
1
 10
-1.055930
 20
-0.868495
 11
-1.063543
 21
-0.872242
 0
LINE
 8
1
 62
1
 10
-1.063543
 20
-0.872242
 11
-1.072033
 21
-0.876154
 0
LINE
 8
1
 62
1
 10
-1.072033
 20
-0.876154
 11
-1.081413
 21
-0.880190
 0
LINE
 8
1
 62
1
 10
-1.081413
 20
-0.880190
 11
-1.091696
 21
-0.884306
 0
LINE
 8
1
 62
1
 10
-1.091696
 20
-0.884306
 11
-1.102892
 21
-0.888460
 0
LINE
 8
1
 62
1
 10
-1.102892
 20
-0.888460
 11
-1.115009
 21
-0.892608
 0
LINE
 8
1
 62
1
 10
-1.115009
 20
-0.892608
 11
-1.128055
 21
-0.896705
 0
LINE
 8
1
 62
1
 10
-1.128055
 20
-0.896705
 11
-1.142036
 21
-0.900706
 0
LINE
 8
1
 62
1
 10
-1.142036
 20
-0.900706
 11
-1.156954
 21
-0.904567
 0
LINE
 8
1
 62
1
 10
-1.156954
 20
-0.904567
 11
-1.172812
 21
-0.908242
 0
LINE
 8
1
 62
1
 10
-1.172812
 20
-0.908242
 11
-1.189611
 21
-0.911686
 0
LINE
 8
1
 62
1
 10
-1.189611
 20
-0.911686
 11
-1.207349
 21
-0.914853
 0
LINE
 8
1
 62
1
 10
-1.207349
 20
-0.914853
 11
-1.251100
 21
-0.921517
 0
LINE
 8
1
 62
1
 10
-1.251100
 20
-0.921517
 11
-1.293529
 21
-0.864309
 0
LINE
 8
1
 62
1
 10
-1.293529
 20
-0.864309
 11
-1.330146
 21
-0.803216
 0
LINE
 8
1
 62
1
 10
-1.330146
 20
-0.803216
 11
-1.307247
 21
-0.765346
 0
LINE
 8
1
 62
1
 10
-1.307247
 20
-0.765346
 11
-1.297533
 21
-0.750170
 0
LINE
 8
1
 62
1
 10
-1.297533
 20
-0.750170
 11
-1.287922
 21
-0.735968
 0
LINE
 8
1
 62
1
 10
-1.287922
 20
-0.735968
 11
-1.278458
 21
-0.722723
 0
LINE
 8
1
 62
1
 10
-1.278458
 20
-0.722723
 11
-1.269182
 21
-0.710418
 0
LINE
 8
1
 62
1
 10
-1.269182
 20
-0.710418
 11
-1.260135
 21
-0.699033
 0
LINE
 8
1
 62
1
 10
-1.260135
 20
-0.699033
 11
-1.251358
 21
-0.688548
 0
LINE
 8
1
 62
1
 10
-1.251358
 20
-0.688548
 11
-1.242889
 21
-0.678940
 0
LINE
 8
1
 62
1
 10
-1.242889
 20
-0.678940
 11
-1.234766
 21
-0.670187
 0
LINE
 8
1
 62
1
 10
-1.234766
 20
-0.670187
 11
-1.227028
 21
-0.662262
 0
LINE
 8
1
 62
1
 10
-1.227028
 20
-0.662262
 11
-1.219710
 21
-0.655140
 0
LINE
 8
1
 62
1
 10
-1.219710
 20
-0.655140
 11
-1.212846
 21
-0.648793
 0
LINE
 8
1
 62
1
 10
-1.212846
 20
-0.648793
 11
-1.206472
 21
-0.643193
 0
LINE
 8
1
 62
1
 10
-1.206472
 20
-0.643193
 11
-1.200619
 21
-0.638310
 0
LINE
 8
1
 62
1
 10
-1.200619
 20
-0.638310
 11
-1.195319
 21
-0.634112
 0
LINE
 8
1
 62
1
 10
-1.195319
 20
-0.634112
 11
-1.190601
 21
-0.630568
 0
LINE
 8
1
 62
1
 10
-1.190601
 20
-0.630568
 11
-1.186496
 21
-0.627643
 0
LINE
 8
1
 62
1
 10
-1.186496
 20
-0.627643
 11
-1.183029
 21
-0.625305
 0
LINE
 8
1
 62
1
 10
-1.183029
 20
-0.625305
 11
-1.180227
 21
-0.623518
 0
LINE
 8
1
 62
1
 10
-1.180227
 20
-0.623518
 11
-1.178310
 21
-0.622362
 0
LINE
 8
1
 62
1
 10
-1.178310
 20
-0.622362
 11
-1.165167
 21
-0.617203
 0
LINE
 8
1
 62
1
 10
-1.165167
 20
-0.617203
 11
-1.152395
 21
-0.611487
 0
LINE
 8
1
 62
1
 10
-1.152395
 20
-0.611487
 11
-1.140719
 21
-0.605550
 0
LINE
 8
1
 62
1
 10
-1.140719
 20
-0.605550
 11
-1.130140
 21
-0.599446
 0
LINE
 8
1
 62
1
 10
-1.130140
 20
-0.599446
 11
-1.120658
 21
-0.593227
 0
LINE
 8
1
 62
1
 10
-1.120658
 20
-0.593227
 11
-1.112273
 21
-0.586947
 0
LINE
 8
1
 62
1
 10
-1.112273
 20
-0.586947
 11
-1.104978
 21
-0.580659
 0
LINE
 8
1
 62
1
 10
-1.104978
 20
-0.580659
 11
-1.098770
 21
-0.574416
 0
LINE
 8
1
 62
1
 10
-1.098770
 20
-0.574416
 11
-1.093639
 21
-0.568269
 0
LINE
 8
1
 62
1
 10
-1.093639
 20
-0.568269
 11
-1.089576
 21
-0.562271
 0
LINE
 8
1
 62
1
 10
-1.089576
 20
-0.562271
 11
-1.086569
 21
-0.556474
 0
LINE
 8
1
 62
1
 10
-1.086569
 20
-0.556474
 11
-1.084604
 21
-0.550928
 0
LINE
 8
1
 62
1
 10
-1.084604
 20
-0.550928
 11
-1.083665
 21
-0.545683
 0
LINE
 8
1
 62
1
 10
-1.083665
 20
-0.545683
 11
-1.083735
 21
-0.540790
 0
LINE
 8
1
 62
1
 10
-1.083735
 20
-0.540790
 11
-1.084793
 21
-0.536297
 0
LINE
 8
1
 62
1
 10
-1.084793
 20
-0.536297
 11
-1.100433
 21
-0.501631
 0
LINE
 8
1
 62
1
 10
-1.100433
 20
-0.501631
 11
-1.117037
 21
-0.462692
 0
LINE
 8
1
 62
1
 10
-1.117037
 20
-0.462692
 11
-1.132830
 21
-0.423417
 0
LINE
 8
1
 62
1
 10
-1.132830
 20
-0.423417
 11
-1.146284
 21
-0.387845
 0
LINE
 8
1
 62
1
 10
-1.146284
 20
-0.387845
 11
-1.148712
 21
-0.383920
 0
LINE
 8
1
 62
1
 10
-1.148712
 20
-0.383920
 11
-1.152123
 21
-0.380411
 0
LINE
 8
1
 62
1
 10
-1.152123
 20
-0.380411
 11
-1.156496
 21
-0.377366
 0
LINE
 8
1
 62
1
 10
-1.156496
 20
-0.377366
 11
-1.161807
 21
-0.374834
 0
LINE
 8
1
 62
1
 10
-1.161807
 20
-0.374834
 11
-1.168033
 21
-0.372861
 0
LINE
 8
1
 62
1
 10
-1.168033
 20
-0.372861
 11
-1.175147
 21
-0.371493
 0
LINE
 8
1
 62
1
 10
-1.175147
 20
-0.371493
 11
-1.183121
 21
-0.370774
 0
LINE
 8
1
 62
1
 10
-1.183121
 20
-0.370774
 11
-1.191926
 21
-0.370750
 0
LINE
 8
1
 62
1
 10
-1.191926
 20
-0.370750
 11
-1.201530
 21
-0.371461
 0
LINE
 8
1
 62
1
 10
-1.201530
 20
-0.371461
 11
-1.211900
 21
-0.372950
 0
LINE
 8
1
 62
1
 10
-1.211900
 20
-0.372950
 11
-1.223002
 21
-0.375257
 0
LINE
 8
1
 62
1
 10
-1.223002
 20
-0.375257
 11
-1.234799
 21
-0.378421
 0
LINE
 8
1
 62
1
 10
-1.234799
 20
-0.378421
 11
-1.247253
 21
-0.382480
 0
LINE
 8
1
 62
1
 10
-1.247253
 20
-0.382480
 11
-1.260325
 21
-0.387469
 0
LINE
 8
1
 62
1
 10
-1.260325
 20
-0.387469
 11
-1.273267
 21
-0.393115
 0
LINE
 8
1
 62
1
 10
-1.273267
 20
-0.393115
 11
-1.275440
 21
-0.393653
 0
LINE
 8
1
 62
1
 10
-1.275440
 20
-0.393653
 11
-1.278685
 21
-0.394370
 0
LINE
 8
1
 62
1
 10
-1.278685
 20
-0.394370
 11
-1.282790
 21
-0.395168
 0
LINE
 8
1
 62
1
 10
-1.282790
 20
-0.395168
 11
-1.287761
 21
-0.396004
 0
LINE
 8
1
 62
1
 10
-1.287761
 20
-0.396004
 11
-1.293603
 21
-0.396833
 0
LINE
 8
1
 62
1
 10
-1.293603
 20
-0.396833
 11
-1.300319
 21
-0.397613
 0
LINE
 8
1
 62
1
 10
-1.300319
 20
-0.397613
 11
-1.307911
 21
-0.398298
 0
LINE
 8
1
 62
1
 10
-1.307911
 20
-0.398298
 11
-1.316378
 21
-0.398846
 0
LINE
 8
1
 62
1
 10
-1.316378
 20
-0.398846
 11
-1.325719
 21
-0.399211
 0
LINE
 8
1
 62
1
 10
-1.325719
 20
-0.399211
 11
-1.335930
 21
-0.399350
 0
LINE
 8
1
 62
1
 10
-1.335930
 20
-0.399350
 11
-1.347005
 21
-0.399218
 0
LINE
 8
1
 62
1
 10
-1.347005
 20
-0.399218
 11
-1.358938
 21
-0.398772
 0
LINE
 8
1
 62
1
 10
-1.358938
 20
-0.398772
 11
-1.371721
 21
-0.397967
 0
LINE
 8
1
 62
1
 10
-1.371721
 20
-0.397967
 11
-1.385341
 21
-0.396759
 0
LINE
 8
1
 62
1
 10
-1.385341
 20
-0.396759
 11
-1.399789
 21
-0.395106
 0
LINE
 8
1
 62
1
 10
-1.399789
 20
-0.395106
 11
-1.415049
 21
-0.392964
 0
LINE
 8
1
 62
1
 10
-1.415049
 20
-0.392964
 11
-1.431106
 21
-0.390291
 0
LINE
 8
1
 62
1
 10
-1.431106
 20
-0.390291
 11
-1.447944
 21
-0.387044
 0
LINE
 8
1
 62
1
 10
-1.447944
 20
-0.387044
 11
-1.465544
 21
-0.383182
 0
LINE
 8
1
 62
1
 10
-1.465544
 20
-0.383182
 11
-1.508515
 21
-0.372596
 0
LINE
 8
1
 62
1
 10
-1.508515
 20
-0.372596
 11
-1.525822
 21
-0.303505
 0
LINE
 8
1
 62
1
 10
-1.525822
 20
-0.303505
 11
-1.536273
 21
-0.233050
 0
LINE
 8
1
 62
1
 10
-1.536273
 20
-0.233050
 11
-1.500623
 21
-0.206825
 0
LINE
 8
1
 62
1
 10
-1.500623
 20
-0.206825
 11
-1.485841
 21
-0.196522
 0
LINE
 8
1
 62
1
 10
-1.485841
 20
-0.196522
 11
-1.471528
 21
-0.187079
 0
LINE
 8
1
 62
1
 10
-1.471528
 20
-0.187079
 11
-1.457716
 21
-0.178464
 0
LINE
 8
1
 62
1
 10
-1.457716
 20
-0.178464
 11
-1.444437
 21
-0.170646
 0
LINE
 8
1
 62
1
 10
-1.444437
 20
-0.170646
 11
-1.431722
 21
-0.163590
 0
LINE
 8
1
 62
1
 10
-1.431722
 20
-0.163590
 11
-1.419600
 21
-0.157262
 0
LINE
 8
1
 62
1
 10
-1.419600
 20
-0.157262
 11
-1.408099
 21
-0.151626
 0
LINE
 8
1
 62
1
 10
-1.408099
 20
-0.151626
 11
-1.397245
 21
-0.146647
 0
LINE
 8
1
 62
1
 10
-1.397245
 20
-0.146647
 11
-1.387063
 21
-0.142287
 0
LINE
 8
1
 62
1
 10
-1.387063
 20
-0.142287
 11
-1.377576
 21
-0.138508
 0
LINE
 8
1
 62
1
 10
-1.377576
 20
-0.138508
 11
-1.368806
 21
-0.135271
 0
LINE
 8
1
 62
1
 10
-1.368806
 20
-0.135271
 11
-1.360774
 21
-0.132536
 0
LINE
 8
1
 62
1
 10
-1.360774
 20
-0.132536
 11
-1.353498
 21
-0.130264
 0
LINE
 8
1
 62
1
 10
-1.353498
 20
-0.130264
 11
-1.346995
 21
-0.128414
 0
LINE
 8
1
 62
1
 10
-1.346995
 20
-0.128414
 11
-1.341280
 21
-0.126945
 0
LINE
 8
1
 62
1
 10
-1.341280
 20
-0.126945
 11
-1.336368
 21
-0.125815
 0
LINE
 8
1
 62
1
 10
-1.336368
 20
-0.125815
 11
-1.332270
 21
-0.124981
 0
LINE
 8
1
 62
1
 10
-1.332270
 20
-0.124981
 11
-1.328998
 21
-0.124402
 0
LINE
 8
1
 62
1
 10
-1.328998
 20
-0.124402
 11
-1.326784
 21
-0.124068
 0
LINE
 8
1
 62
1
 10
-1.326784
 20
-0.124068
 11
-1.312667
 21
-0.124331
 0
LINE
 8
1
 62
1
 10
-1.312667
 20
-0.124331
 11
-1.298680
 21
-0.123938
 0
LINE
 8
1
 62
1
 10
-1.298680
 20
-0.123938
 11
-1.285621
 21
-0.122921
 0
LINE
 8
1
 62
1
 10
-1.285621
 20
-0.122921
 11
-1.273511
 21
-0.121330
 0
LINE
 8
1
 62
1
 10
-1.273511
 20
-0.121330
 11
-1.262372
 21
-0.119213
 0
LINE
 8
1
 62
1
 10
-1.262372
 20
-0.119213
 11
-1.252221
 21
-0.116620
 0
LINE
 8
1
 62
1
 10
-1.252221
 20
-0.116620
 11
-1.243076
 21
-0.113602
 0
LINE
 8
1
 62
1
 10
-1.243076
 20
-0.113602
 11
-1.234950
 21
-0.110210
 0
LINE
 8
1
 62
1
 10
-1.234950
 20
-0.110210
 11
-1.227858
 21
-0.106494
 0
LINE
 8
1
 62
1
 10
-1.227858
 20
-0.106494
 11
-1.221809
 21
-0.102508
 0
LINE
 8
1
 62
1
 10
-1.221809
 20
-0.102508
 11
-1.216812
 21
-0.098303
 0
LINE
 8
1
 62
1
 10
-1.216812
 20
-0.098303
 11
-1.212874
 21
-0.093931
 0
LINE
 8
1
 62
1
 10
-1.212874
 20
-0.093931
 11
-1.210000
 21
-0.089445
 0
LINE
 8
1
 62
1
 10
-1.210000
 20
-0.089445
 11
-1.208192
 21
-0.084897
 0
LINE
 8
1
 62
1
 10
-1.208192
 20
-0.084897
 11
-1.207450
 21
-0.080342
 0
LINE
 8
1
 62
1
 10
-1.207450
 20
-0.080342
 11
-1.208633
 21
-0.042329
 0
LINE
 8
1
 62
1
 10
-1.208633
 20
-0.042329
 11
-1.209072
 21
-0.000000
 0
LINE
 8
1
 62
1
 10
-1.209072
 20
-0.000000
 11
-1.208633
 21
0.042329
 0
LINE
 8
1
 62
1
 10
-1.208633
 20
0.042329
 11
-1.207450
 21
0.080342
 0
LINE
 8
1
 62
1
 10
-1.207450
 20
0.080342
 11
-1.208192
 21
0.084897
 0
LINE
 8
1
 62
1
 10
-1.208192
 20
0.084897
 11
-1.210000
 21
0.089445
 0
LINE
 8
1
 62
1
 10
-1.210000
 20
0.089445
 11
-1.212874
 21
0.093931
 0
LINE
 8
1
 62
1
 10
-1.212874
 20
0.093931
 11
-1.216812
 21
0.098303
 0
LINE
 8
1
 62
1
 10
-1.216812
 20
0.098303
 11
-1.221809
 21
0.102508
 0
LINE
 8
1
 62
1
 10
-1.221809
 20
0.102508
 11
-1.227858
 21
0.106494
 0
LINE
 8
1
 62
1
 10
-1.227858
 20
0.106494
 11
-1.234950
 21
0.110210
 0
LINE
 8
1
 62
1
 10
-1.234950
 20
0.110210
 11
-1.243076
 21
0.113602
 0
LINE
 8
1
 62
1
 10
-1.243076
 20
0.113602
 11
-1.252221
 21
0.116620
 0
LINE
 8
1
 62
1
 10
-1.252221
 20
0.116620
 11
-1.262372
 21
0.119213
 0
LINE
 8
1
 62
1
 10
-1.262372
 20
0.119213
 11
-1.273511
 21
0.121330
 0
LINE
 8
1
 62
1
 10
-1.273511
 20
0.121330
 11
-1.285621
 21
0.122921
 0
LINE
 8
1
 62
1
 10
-1.285621
 20
0.122921
 11
-1.298680
 21
0.123938
 0
LINE
 8
1
 62
1
 10
-1.298680
 20
0.123938
 11
-1.312667
 21
0.124331
 0
LINE
 8
1
 62
1
 10
-1.312667
 20
0.124331
 11
-1.326784
 21
0.124068
 0
LINE
 8
1
 62
1
 10
-1.326784
 20
0.124068
 11
-1.328998
 21
0.124402
 0
LINE
 8
1
 62
1
 10
-1.328998
 20
0.124402
 11
-1.332270
 21
0.124981
 0
LINE
 8
1
 62
1
 10
-1.332270
 20
0.124981
 11
-1.336368
 21
0.125815
 0
LINE
 8
1
 62
1
 10
-1.336368
 20
0.125815
 11
-1.341280
 21
0.126945
 0
LINE
 8
1
 62
1
 10
-1.341280
 20
0.126945
 11
-1.346995
 21
0.128414
 0
LINE
 8
1
 62
1
 10
-1.346995
 20
0.128414
 11
-1.353498
 21
0.130264
 0
LINE
 8
1
 62
1
 10
-1.353498
 20
0.130264
 11
-1.360774
 21
0.132536
 0
LINE
 8
1
 62
1
 10
-1.360774
 20
0.132536
 11
-1.368806
 21
0.135271
 0
LINE
 8
1
 62
1
 10
-1.368806
 20
0.135271
 11
-1.377576
 21
0.138508
 0
LINE
 8
1
 62
1
 10
-1.377576
 20
0.138508
 11
-1.387063
 21
0.142287
 0
LINE
 8
1
 62
1
 10
-1.387063
 20
0.142287
 11
-1.397245
 21
0.146647
 0
LINE
 8
1
 62
1
 10
-1.397245
 20
0.146647
 11
-1.408099
 21
0.151626
 0
LINE
 8
1
 62
1
 10
-1.408099
 20
0.151626
 11
-1.419600
 21
0.157262
 0
LINE
 8
1
 62
1
 10
-1.419600
 20
0.157262
 11
-1.431722
 21
0.163590
 0
LINE
 8
1
 62
1
 10
-1.431722
 20
0.163590
 11
-1.444437
 21
0.170646
 0
LINE
 8
1
 62
1
 10
-1.444437
 20
0.170646
 11
-1.457716
 21
0.178464
 0
LINE
 8
1
 62
1
 10
-1.457716
 20
0.178464
 11
-1.471528
 21
0.187079
 0
LINE
 8
1
 62
1
 10
-1.471528
 20
0.187079
 11
-1.485841
 21
0.196522
 0
LINE
 8
1
 62
1
 10
-1.485841
 20
0.196522
 11
-1.500623
 21
0.206825
 0
LINE
 8
1
 62
1
 10
-1.500623
 20
0.206825
 11
-1.536273
 21
0.233050
 0
LINE
 8
1
 62
1
 10
-1.536273
 20
0.233050
 11
-1.525822
 21
0.303505
 0
LINE
 8
1
 62
1
 10
-1.525822
 20
0.303505
 11
-1.508515
 21
0.372596
 0
LINE
 8
1
 62
1
 10
-1.508515
 20
0.372596
 11
-1.465544
 21
0.383182
 0
LINE
 8
1
 62
1
 10
-1.465544
 20
0.383182
 11
-1.447944
 21
0.387044
 0
LINE
 8
1
 62
1
 10
-1.447944
 20
0.387044
 11
-1.431106
 21
0.390291
 0
LINE
 8
1
 62
1
 10
-1.431106
 20
0.390291
 11
-1.415049
 21
0.392964
 0
LINE
 8
1
 62
1
 10
-1.415049
 20
0.392964
 11
-1.399789
 21
0.395106
 0
LINE
 8
1
 62
1
 10
-1.399789
 20
0.395106
 11
-1.385341
 21
0.396759
 0
LINE
 8
1
 62
1
 10
-1.385341
 20
0.396759
 11
-1.371721
 21
0.397967
 0
LINE
 8
1
 62
1
 10
-1.371721
 20
0.397967
 11
-1.358938
 21
0.398772
 0
LINE
 8
1
 62
1
 10
-1.358938
 20
0.398772
 11
-1.347005
 21
0.399218
 0
LINE
 8
1
 62
1
 10
-1.347005
 20
0.399218
 11
-1.335930
 21
0.399350
 0
LINE
 8
1
 62
1
 10
-1.335930
 20
0.399350
 11
-1.325719
 21
0.399211
 0
LINE
 8
1
 62
1
 10
-1.325719
 20
0.399211
 11
-1.316378
 21
0.398846
 0
LINE
 8
1
 62
1
 10
-1.316378
 20
0.398846
 11
-1.307911
 21
0.398298
 0
LINE
 8
1
 62
1
 10
-1.307911
 20
0.398298
 11
-1.300319
 21
0.397613
 0
LINE
 8
1
 62
1
 10
-1.300319
 20
0.397613
 11
-1.293603
 21
0.396833
 0
LINE
 8
1
 62
1
 10
-1.293603
 20
0.396833
 11
-1.287761
 21
0.396004
 0
LINE
 8
1
 62
1
 10
-1.287761
 20
0.396004
 11
-1.282790
 21
0.395168
 0
LINE
 8
1
 62
1
 10
-1.282790
 20
0.395168
 11
-1.278685
 21
0.394370
 0
LINE
 8
1
 62
1
 10
-1.278685
 20
0.394370
 11
-1.275440
 21
0.393653
 0
LINE
 8
1
 62
1
 10
-1.275440
 20
0.393653
 11
-1.273267
 21
0.393115
 0
LINE
 8
1
 62
1
 10
-1.273267
 20
0.393115
 11
-1.260325
 21
0.387469
 0
LINE
 8
1
 62
1
 10
-1.260325
 20
0.387469
 11
-1.247253
 21
0.382480
 0
LINE
 8
1
 62
1
 10
-1.247253
 20
0.382480
 11
-1.234799
 21
0.378421
 0
LINE
 8
1
 62
1
 10
-1.234799
 20
0.378421
 11
-1.223002
 21
0.375257
 0
LINE
 8
1
 62
1
 10
-1.223002
 20
0.375257
 11
-1.211900
 21
0.372950
 0
LINE
 8
1
 62
1
 10
-1.211900
 20
0.372950
 11
-1.201530
 21
0.371461
 0
LINE
 8
1
 62
1
 10
-1.201530
 20
0.371461
 11
-1.191926
 21
0.370750
 0
LINE
 8
1
 62
1
 10
-1.191926
 20
0.370750
 11
-1.183121
 21
0.370774
 0
LINE
 8
1
 62
1
 10
-1.183121
 20
0.370774
 11
-1.175147
 21
0.371493
 0
LINE
 8
1
 62
1
 10
-1.175147
 20
0.371493
 11
-1.168033
 21
0.372861
 0
LINE
 8
1
 62
1
 10
-1.168033
 20
0.372861
 11
-1.161807
 21
0.374834
 0
LINE
 8
1
 62
1
 10
-1.161807
 20
0.374834
 11
-1.156496
 21
0.377366
 0
LINE
 8
1
 62
1
 10
-1.156496
 20
0.377366
 11
-1.152123
 21
0.380411
 0
LINE
 8
1
 62
1
 10
-1.152123
 20
0.380411
 11
-1.148712
 21
0.383920
 0
LINE
 8
1
 62
1
 10
-1.148712
 20
0.383920
 11
-1.146284
 21
0.387845
 0
LINE
 8
1
 62
1
 10
-1.146284
 20
0.387845
 11
-1.132830
 21
0.423417
 0
LINE
 8
1
 62
1
 10
-1.132830
 20
0.423417
 11
-1.117037
 21
0.462692
 0
LINE
 8
1
 62
1
 10
-1.117037
 20
0.462692
 11
-1.100433
 21
0.501631
 0
LINE
 8
1
 62
1
 10
-1.100433
 20
0.501631
 11
-1.084793
 21
0.536297
 0
LINE
 8
1
 62
1
 10
-1.084793
 20
0.536297
 11
-1.083735
 21
0.540790
 0
LINE
 8
1
 62
1
 10
-1.083735
 20
0.540790
 11
-1.083665
 21
0.545683
 0
LINE
 8
1
 62
1
 10
-1.083665
 20
0.545683
 11
-1.084604
 21
0.550928
 0
LINE
 8
1
 62
1
 10
-1.084604
 20
0.550928
 11
-1.086569
 21
0.556474
 0
LINE
 8
1
 62
1
 10
-1.086569
 20
0.556474
 11
-1.089576
 21
0.562271
 0
LINE
 8
1
 62
1
 10
-1.089576
 20
0.562271
 11
-1.093639
 21
0.568269
 0
LINE
 8
1
 62
1
 10
-1.093639
 20
0.568269
 11
-1.098770
 21
0.574416
 0
LINE
 8
1
 62
1
 10
-1.098770
 20
0.574416
 11
-1.104978
 21
0.580659
 0
LINE
 8
1
 62
1
 10
-1.104978
 20
0.580659
 11
-1.112273
 21
0.586947
 0
LINE
 8
1
 62
1
 10
-1.112273
 20
0.586947
 11
-1.120658
 21
0.593227
 0
LINE
 8
1
 62
1
 10
-1.120658
 20
0.593227
 11
-1.130140
 21
0.599446
 0
LINE
 8
1
 62
1
 10
-1.130140
 20
0.599446
 11
-1.140719
 21
0.605550
 0
LINE
 8
1
 62
1
 10
-1.140719
 20
0.605550
 11
-1.152395
 21
0.611487
 0
LINE
 8
1
 62
1
 10
-1.152395
 20
0.611487
 11
-1.165167
 21
0.617203
 0
LINE
 8
1
 62
1
 10
-1.165167
 20
0.617203
 11
-1.178310
 21
0.622362
 0
LINE
 8
1
 62
1
 10
-1.178310
 20
0.622362
 11
-1.180227
 21
0.623518
 0
LINE
 8
1
 62
1
 10
-1.180227
 20
0.623518
 11
-1.183029
 21
0.625305
 0
LINE
 8
1
 62
1
 10
-1.183029
 20
0.625305
 11
-1.186496
 21
0.627643
 0
LINE
 8
1
 62
1
 10
-1.186496
 20
0.627643
 11
-1.190601
 21
0.630568
 0
LINE
 8
1
 62
1
 10
-1.190601
 20
0.630568
 11
-1.195319
 21
0.634112
 0
LINE
 8
1
 62
1
 10
-1.195319
 20
0.634112
 11
-1.200619
 21
0.638310
 0
LINE
 8
1
 62
1
 10
-1.200619
 20
0.638310
 11
-1.206472
 21
0.643193
 0
LINE
 8
1
 62
1
 10
-1.206472
 20
0.643193
 11
-1.212846
 21
0.648793
 0
LINE
 8
1
 62
1
 10
-1.212846
 20
0.648793
 11
-1.219710
 21
0.655140
 0
LINE
 8
1
 62
1
 10
-1.219710
 20
0.655140
 11
-1.227028
 21
0.662262
 0
LINE
 8
1
 62
1
 10
-1.227028
 20
0.662262
 11
-1.234766
 21
0.670187
 0
LINE
 8
1
 62
1
 10
-1.234766
 20
0.670187
 11
-1.242889
 21
0.678940
 0
LINE
 8
1
 62
1
 10
-1.242889
 20
0.678940
 11
-1.251358
 21
0.688548
 0
LINE
 8
1
 62
1
 10
-1.251358
 20
0.688548
 11
-1.260135
 21
0.699033
 0
LINE
 8
1
 62
1
 10
-1.260135
 20
0.699033
 11
-1.269182
 21
0.710418
 0
LINE
 8
1
 62
1
 10
-1.269182
 20
0.710418
 11
-1.278458
 21
0.722723
 0
LINE
 8
1
 62
1
 10
-1.278458
 20
0.722723
 11
-1.287922
 21
0.735968
 0
LINE
 8
1
 62
1
 10
-1.287922
 20
0.735968
 11
-1.297533
 21
0.750170
 0
LINE
 8
1
 62
1
 10
-1.297533
 20
0.750170
 11
-1.307247
 21
0.765346
 0
LINE
 8
1
 62
1
 10
-1.307247
 20
0.765346
 11
-1.330146
 21
0.803216
 0
LINE
 8
1
 62
1
 10
-1.330146
 20
0.803216
 11
-1.293529
 21
0.864309
 0
LINE
 8
1
 62
1
 10
-1.293529
 20
0.864309
 11
-1.251100
 21
0.921517
 0
LINE
 8
1
 62
1
 10
-1.251100
 20
0.921517
 11
-1.207349
 21
0.914853
 0
LINE
 8
1
 62
1
 10
-1.207349
 20
0.914853
 11
-1.189611
 21
0.911686
 0
LINE
 8
1
 62
1
 10
-1.189611
 20
0.911686
 11
-1.172812
 21
0.908242
 0
LINE
 8
1
 62
1
 10
-1.172812
 20
0.908242
 11
-1.156954
 21
0.904567
 0
LINE
 8
1
 62
1
 10
-1.156954
 20
0.904567
 11
-1.142036
 21
0.900706
 0
LINE
 8
1
 62
1
 10
-1.142036
 20
0.900706
 11
-1.128055
 21
0.896705
 0
LINE
 8
1
 62
1
 10
-1.128055
 20
0.896705
 11
-1.115009
 21
0.892608
 0
LINE
 8
1
 62
1
 10
-1.115009
 20
0.892608
 11
-1.102892
 21
0.888460
 0
LINE
 8
1
 62
1
 10
-1.102892
 20
0.888460
 11
-1.091696
 21
0.884306
 0
LINE
 8
1
 62
1
 10
-1.091696
 20
0.884306
 11
-1.081413
 21
0.880190
 0
LINE
 8
1
 62
1
 10
-1.081413
 20
0.880190
 11
-1.072033
 21
0.876154
 0
LINE
 8
1
 62
1
 10
-1.072033
 20
0.876154
 11
-1.063543
 21
0.872242
 0
LINE
 8
1
 62
1
 10
-1.063543
 20
0.872242
 11
-1.055930
 21
0.868495
 0
LINE
 8
1
 62
1
 10
-1.055930
 20
0.868495
 11
-1.049178
 21
0.864957
 0
LINE
 8
1
 62
1
 10
-1.049178
 20
0.864957
 11
-1.043272
 21
0.861666
 0
LINE
 8
1
 62
1
 10
-1.043272
 20
0.861666
 11
-1.038192
 21
0.858664
 0
LINE
 8
1
 62
1
 10
-1.038192
 20
0.858664
 11
-1.033919
 21
0.855990
 0
LINE
 8
1
 62
1
 10
-1.033919
 20
0.855990
 11
-1.030432
 21
0.853682
 0
LINE
 8
1
 62
1
 10
-1.030432
 20
0.853682
 11
-1.027709
 21
0.851778
 0
LINE
 8
1
 62
1
 10
-1.027709
 20
0.851778
 11
-1.025907
 21
0.850449
 0
LINE
 8
1
 62
1
 10
-1.025907
 20
0.850449
 11
-1.016111
 21
0.840280
 0
LINE
 8
1
 62
1
 10
-1.016111
 20
0.840280
 11
-1.005943
 21
0.830668
 0
LINE
 8
1
 62
1
 10
-1.005943
 20
0.830668
 11
-0.995990
 21
0.822153
 0
LINE
 8
1
 62
1
 10
-0.995990
 20
0.822153
 11
-0.986302
 21
0.814715
 0
LINE
 8
1
 62
1
 10
-0.986302
 20
0.814715
 11
-0.976928
 21
0.808335
 0
LINE
 8
1
 62
1
 10
-0.976928
 20
0.808335
 11
-0.967917
 21
0.802991
 0
LINE
 8
1
 62
1
 10
-0.967917
 20
0.802991
 11
-0.959316
 21
0.798658
 0
LINE
 8
1
 62
1
 10
-0.959316
 20
0.798658
 11
-0.951172
 21
0.795312
 0
LINE
 8
1
 62
1
 10
-0.951172
 20
0.795312
 11
-0.943530
 21
0.792924
 0
LINE
 8
1
 62
1
 10
-0.943530
 20
0.792924
 11
-0.936434
 21
0.791465
 0
LINE
 8
1
 62
1
 10
-0.936434
 20
0.791465
 11
-0.929927
 21
0.790906
 0
LINE
 8
1
 62
1
 10
-0.929927
 20
0.790906
 11
-0.924051
 21
0.791213
 0
LINE
 8
1
 62
1
 10
-0.924051
 20
0.791213
 11
-0.918846
 21
0.792352
 0
LINE
 8
1
 62
1
 10
-0.918846
 20
0.792352
 11
-0.914352
 21
0.794289
 0
LINE
 8
1
 62
1
 10
-0.914352
 20
0.794289
 11
-0.910606
 21
0.796986
 0
LINE
 8
1
 62
1
 10
-0.910606
 20
0.796986
 11
-0.884564
 21
0.824701
 0
LINE
 8
1
 62
1
 10
-0.884564
 20
0.824701
 11
-0.854943
 21
0.854943
 0
LINE
 8
1
 62
1
 10
-0.854943
 20
0.854943
 11
-0.824701
 21
0.884564
 0
LINE
 8
1
 62
1
 10
-0.824701
 20
0.884564
 11
-0.796986
 21
0.910606
 0
LINE
 8
1
 62
1
 10
-0.796986
 20
0.910606
 11
-0.794289
 21
0.914352
 0
LINE
 8
1
 62
1
 10
-0.794289
 20
0.914352
 11
-0.792352
 21
0.918846
 0
LINE
 8
1
 62
1
 10
-0.792352
 20
0.918846
 11
-0.791213
 21
0.924051
 0
LINE
 8
1
 62
1
 10
-0.791213
 20
0.924051
 11
-0.790906
 21
0.929927
 0
LINE
 8
1
 62
1
 10
-0.790906
 20
0.929927
 11
-0.791465
 21
0.936434
 0
LINE
 8
1
 62
1
 10
-0.791465
 20
0.936434
 11
-0.792924
 21
0.943530
 0
LINE
 8
1
 62
1
 10
-0.792924
 20
0.943530
 11
-0.795312
 21
0.951172
 0
LINE
 8
1
 62
1
 10
-0.795312
 20
0.951172
 11
-0.798658
 21
0.959316
 0
LINE
 8
1
 62
1
 10
-0.798658
 20
0.959316
 11
-0.802991
 21
0.967917
 0
LINE
 8
1
 62
1
 10
-0.802991
 20
0.967917
 11
-0.808335
 21
0.976928
 0
LINE
 8
1
 62
1
 10
-0.808335
 20
0.976928
 11
-0.814715
 21
0.986302
 0
LINE
 8
1
 62
1
 10
-0.814715
 20
0.986302
 11
-0.822153
 21
0.995990
 0
LINE
 8
1
 62
1
 10
-0.822153
 20
0.995990
 11
-0.830668
 21
1.005943
 0
LINE
 8
1
 62
1
 10
-0.830668
 20
1.005943
 11
-0.840280
 21
1.016111
 0
LINE
 8
1
 62
1
 10
-0.840280
 20
1.016111
 11
-0.850449
 21
1.025907
 0
LINE
 8
1
 62
1
 10
-0.850449
 20
1.025907
 11
-0.851778
 21
1.027709
 0
LINE
 8
1
 62
1
 10
-0.851778
 20
1.027709
 11
-0.853682
 21
1.030432
 0
LINE
 8
1
 62
1
 10
-0.853682
 20
1.030432
 11
-0.855990
 21
1.033919
 0
LINE
 8
1
 62
1
 10
-0.855990
 20
1.033919
 11
-0.858664
 21
1.038192
 0
LINE
 8
1
 62
1
 10
-0.858664
 20
1.038192
 11
-0.861666
 21
1.043272
 0
LINE
 8
1
 62
1
 10
-0.861666
 20
1.043272
 11
-0.864957
 21
1.049178
 0
LINE
 8
1
 62
1
 10
-0.864957
 20
1.049178
 11
-0.868495
 21
1.055930
 0
LINE
 8
1
 62
1
 10
-0.868495
 20
1.055930
 11
-0.872242
 21
1.063543
 0
LINE
 8
1
 62
1
 10
-0.872242
 20
1.063543
 11
-0.876154
 21
1.072033
 0
LINE
 8
1
 62
1
 10
-0.876154
 20
1.072033
 11
-0.880190
 21
1.081413
 0
LINE
 8
1
 62
1
 10
-0.880190
 20
1.081413
 11
-0.884306
 21
1.091696
 0
LINE
 8
1
 62
1
 10
-0.884306
 20
1.091696
 11
-0.888460
 21
1.102892
 0
LINE
 8
1
 62
1
 10
-0.888460
 20
1.102892
 11
-0.892608
 21
1.115009
 0
LINE
 8
1
 62
1
 10
-0.892608
 20
1.115009
 11
-0.896705
 21
1.128055
 0
LINE
 8
1
 62
1
 10
-0.896705
 20
1.128055
 11
-0.900706
 21
1.142036
 0
LINE
 8
1
 62
1
 10
-0.900706
 20
1.142036
 11
-0.904567
 21
1.156954
 0
LINE
 8
1
 62
1
 10
-0.904567
 20
1.156954
 11
-0.908242
 21
1.172812
 0
LINE
 8
1
 62
1
 10
-0.908242
 20
1.172812
 11
-0.911686
 21
1.189611
 0
LINE
 8
1
 62
1
 10
-0.911686
 20
1.189611
 11
-0.914853
 21
1.207349
 0
LINE
 8
1
 62
1
 10
-0.914853
 20
1.207349
 11
-0.921517
 21
1.251100
 0
LINE
 8
1
 62
1
 10
-0.921517
 20
1.251100
 11
-0.864309
 21
1.293529
 0
LINE
 8
1
 62
1
 10
-0.864309
 20
1.293529
 11
-0.803216
 21
1.330146
 0
LINE
 8
1
 62
1
 10
-0.803216
 20
1.330146
 11
-0.765346
 21
1.307247
 0
LINE
 8
1
 62
1
 10
-0.765346
 20
1.307247
 11
-0.750170
 21
1.297533
 0
LINE
 8
1
 62
1
 10
-0.750170
 20
1.297533
 11
-0.735968
 21
1.287922
 0
LINE
 8
1
 62
1
 10
-0.735968
 20
1.287922
 11
-0.722723
 21
1.278458
 0
LINE
 8
1
 62
1
 10
-0.722723
 20
1.278458
 11
-0.710418
 21
1.269182
 0
LINE
 8
1
 62
1
 10
-0.710418
 20
1.269182
 11
-0.699033
 21
1.260135
 0
LINE
 8
1
 62
1
 10
-0.699033
 20
1.260135
 11
-0.688548
 21
1.251358
 0
LINE
 8
1
 62
1
 10
-0.688548
 20
1.251358
 11
-0.678940
 21
1.242889
 0
LINE
 8
1
 62
1
 10
-0.678940
 20
1.242889
 11
-0.670187
 21
1.234766
 0
LINE
 8
1
 62
1
 10
-0.670187
 20
1.234766
 11
-0.662262
 21
1.227028
 0
LINE
 8
1
 62
1
 10
-0.662262
 20
1.227028
 11
-0.655140
 21
1.219710
 0
LINE
 8
1
 62
1
 10
-0.655140
 20
1.219710
 11
-0.648793
 21
1.212846
 0
LINE
 8
1
 62
1
 10
-0.648793
 20
1.212846
 11
-0.643193
 21
1.206472
 0
LINE
 8
1
 62
1
 10
-0.643193
 20
1.206472
 11
-0.638310
 21
1.200619
 0
LINE
 8
1
 62
1
 10
-0.638310
 20
1.200619
 11
-0.634112
 21
1.195319
 0
LINE
 8
1
 62
1
 10
-0.634112
 20
1.195319
 11
-0.630568
 21
1.190601
 0
LINE
 8
1
 62
1
 10
-0.630568
 20
1.190601
 11
-0.627643
 21
1.186496
 0
LINE
 8
1
 62
1
 10
-0.627643
 20
1.186496
 11
-0.625305
 21
1.183029
 0
LINE
 8
1
 62
1
 10
-0.625305
 20
1.183029
 11
-0.623518
 21
1.180227
 0
LINE
 8
1
 62
1
 10
-0.623518
 20
1.180227
 11
-0.622362
 21
1.178310
 0
LINE
 8
1
 62
1
 10
-0.622362
 20
1.178310
 11
-0.617203
 21
1.165167
 0
LINE
 8
1
 62
1
 10
-0.617203
 20
1.165167
 11
-0.611487
 21
1.152395
 0
LINE
 8
1
 62
1
 10
-0.611487
 20
1.152395
 11
-0.605550
 21
1.140719
 0
LINE
 8
1
 62
1
 10
-0.605550
 20
1.140719
 11
-0.599446
 21
1.130140
 0
LINE
 8
1
 62
1
 10
-0.599446
 20
1.130140
 11
-0.593227
 21
1.120658
 0
LINE
 8
1
 62
1
 10
-0.593227
 20
1.120658
 11
-0.586947
 21
1.112273
 0
LINE
 8
1
 62
1
 10
-0.586947
 20
1.112273
 11
-0.580659
 21
1.104978
 0
LINE
 8
1
 62
1
 10
-0.580659
 20
1.104978
 11
-0.574416
 21
1.098770
 0
LINE
 8
1
 62
1
 10
-0.574416
 20
1.098770
 11
-0.568269
 21
1.093639
 0
LINE
 8
1
 62
1
 10
-0.568269
 20
1.093639
 11
-0.562271
 21
1.089576
 0
LINE
 8
1
 62
1
 10
-0.562271
 20
1.089576
 11
-0.556474
 21
1.086569
 0
LINE
 8
1
 62
1
 10
-0.556474
 20
1.086569
 11
-0.550928
 21
1.084604
 0
LINE
 8
1
 62
1
 10
-0.550928
 20
1.084604
 11
-0.545683
 21
1.083665
 0
LINE
 8
1
 62
1
 10
-0.545683
 20
1.083665
 11
-0.540790
 21
1.083735
 0
LINE
 8
1
 62
1
 10
-0.540790
 20
1.083735
 11
-0.536297
 21
1.084793
 0
LINE
 8
1
 62
1
 10
-0.536297
 20
1.084793
 11
-0.501631
 21
1.100433
 0
LINE
 8
1
 62
1
 10
-0.501631
 20
1.100433
 11
-0.462692
 21
1.117037
 0
LINE
 8
1
 62
1
 10
-0.462692
 20
1.117037
 11
-0.423417
 21
1.132830
 0
LINE
 8
1
 62
1
 10
-0.423417
 20
1.132830
 11
-0.387845
 21
1.146284
 0
LINE
 8
1
 62
1
 10
-0.387845
 20
1.146284
 11
-0.383920
 21
1.148712
 0
LINE
 8
1
 62
1
 10
-0.383920
 20
1.148712
 11
-0.380411
 21
1.152123
 0
LINE
 8
1
 62
1
 10
-0.380411
 20
1.152123
 11
-0.377366
 21
1.156496
 0
LINE
 8
1
 62
1
 10
-0.377366
 20
1.156496
 11
-0.374834
 21
1.161807
 0
LINE
 8
1
 62
1
 10
-0.374834
 20
1.161807
 11
-0.372861
 21
1.168033
 0
LINE
 8
1
 62
1
 10
-0.372861
 20
1.168033
 11
-0.371493
 21
1.175147
 0
LINE
 8
1
 62
1
 10
-0.371493
 20
1.175147
 11
-0.370774
 21
1.183121
 0
LINE
 8
1
 62
1
 10
-0.370774
 20
1.183121
 11
-0.370750
 21
1.191926
 0
LINE
 8
1
 62
1
 10
-0.370750
 20
1.191926
 11
-0.371461
 21
1.201530
 0
LINE
 8
1
 62
1
 10
-0.371461
 20
1.201530
 11
-0.372950
 21
1.211900
 0
LINE
 8
1
 62
1
 10
-0.372950
 20
1.211900
 11
-0.375257
 21
1.223002
 0
LINE
 8
1
 62
1
 10
-0.375257
 20
1.223002
 11
-0.378421
 21
1.234799
 0
LINE
 8
1
 62
1
 10
-0.378421
 20
1.234799
 11
-0.382480
 21
1.247253
 0
LINE
 8
1
 62
1
 10
-0.382480
 20
1.247253
 11
-0.387469
 21
1.260325
 0
LINE
 8
1
 62
1
 10
-0.387469
 20
1.260325
 11
-0.393115
 21
1.273267
 0
LINE
 8
1
 62
1
 10
-0.393115
 20
1.273267
 11
-0.393653
 21
1.275440
 0
LINE
 8
1
 62
1
 10
-0.393653
 20
1.275440
 11
-0.394370
 21
1.278685
 0
LINE
 8
1
 62
1
 10
-0.394370
 20
1.278685
 11
-0.395168
 21
1.282790
 0
LINE
 8
1
 62
1
 10
-0.395168
 20
1.282790
 11
-0.396004
 21
1.287761
 0
LINE
 8
1
 62
1
 10
-0.396004
 20
1.287761
 11
-0.396833
 21
1.293603
 0
LINE
 8
1
 62
1
 10
-0.396833
 20
1.293603
 11
-0.397613
 21
1.300319
 0
LINE
 8
1
 62
1
 10
-0.397613
 20
1.300319
 11
-0.398298
 21
1.307911
 0
LINE
 8
1
 62
1
 10
-0.398298
 20
1.307911
 11
-0.398846
 21
1.316378
 0
LINE
 8
1
 62
1
 10
-0.398846
 20
1.316378
 11
-0.399211
 21
1.325719
 0
LINE
 8
1
 62
1
 10
-0.399211
 20
1.325719
 11
-0.399350
 21
1.335930
 0
LINE
 8
1
 62
1
 10
-0.399350
 20
1.335930
 11
-0.399218
 21
1.347005
 0
LINE
 8
1
 62
1
 10
-0.399218
 20
1.347005
 11
-0.398772
 21
1.358938
 0
LINE
 8
1
 62
1
 10
-0.398772
 20
1.358938
 11
-0.397967
 21
1.371721
 0
LINE
 8
1
 62
1
 10
-0.397967
 20
1.371721
 11
-0.396759
 21
1.385341
 0
LINE
 8
1
 62
1
 10
-0.396759
 20
1.385341
 11
-0.395106
 21
1.399789
 0
LINE
 8
1
 62
1
 10
-0.395106
 20
1.399789
 11
-0.392964
 21
1.415049
 0
LINE
 8
1
 62
1
 10
-0.392964
 20
1.415049
 11
-0.390291
 21
1.431106
 0
LINE
 8
1
 62
1
 10
-0.390291
 20
1.431106
 11
-0.387044
 21
1.447944
 0
LINE
 8
1
 62
1
 10
-0.387044
 20
1.447944
 11
-0.383182
 21
1.465544
 0
LINE
 8
1
 62
1
 10
-0.383182
 20
1.465544
 11
-0.372596
 21
1.508515
 0
LINE
 8
1
 62
1
 10
-0.372596
 20
1.508515
 11
-0.303505
 21
1.525822
 0
LINE
 8
1
 62
1
 10
-0.303505
 20
1.525822
 11
-0.233050
 21
1.536273
 0
LINE
 8
1
 62
1
 10
-0.233050
 20
1.536273
 11
-0.206825
 21
1.500623
 0
LINE
 8
1
 62
1
 10
-0.206825
 20
1.500623
 11
-0.196522
 21
1.485841
 0
LINE
 8
1
 62
1
 10
-0.196522
 20
1.485841
 11
-0.187079
 21
1.471528
 0
LINE
 8
1
 62
1
 10
-0.187079
 20
1.471528
 11
-0.178464
 21
1.457716
 0
LINE
 8
1
 62
1
 10
-0.178464
 20
1.457716
 11
-0.170646
 21
1.444437
 0
LINE
 8
1
 62
1
 10
-0.170646
 20
1.444437
 11
-0.163590
 21
1.431722
 0
LINE
 8
1
 62
1
 10
-0.163590
 20
1.431722
 11
-0.157262
 21
1.419600
 0
LINE
 8
1
 62
1
 10
-0.157262
 20
1.419600
 11
-0.151626
 21
1.408099
 0
LINE
 8
1
 62
1
 10
-0.151626
 20
1.408099
 11
-0.146647
 21
1.397245
 0
LINE
 8
1
 62
1
 10
-0.146647
 20
1.397245
 11
-0.142287
 21
1.387063
 0
LINE
 8
1
 62
1
 10
-0.142287
 20
1.387063
 11
-0.138508
 21
1.377576
 0
LINE
 8
1
 62
1
 10
-0.138508
 20
1.377576
 11
-0.135271
 21
1.368806
 0
LINE
 8
1
 62
1
 10
-0.135271
 20
1.368806
 11
-0.132536
 21
1.360774
 0
LINE
 8
1
 62
1
 10
-0.132536
 20
1.360774
 11
-0.130264
 21
1.353498
 0
LINE
 8
1
 62
1
 10
-0.130264
 20
1.353498
 11
-0.128414
 21
1.346995
 0
LINE
 8
1
 62
1
 10
-0.128414
 20
1.346995
 11
-0.126945
 21
1.341280
 0
LINE
 8
1
 62
1
 10
-0.126945
 20
1.341280
 11
-0.125815
 21
1.336368
 0
LINE
 8
1
 62
1
 10
-0.125815
 20
1.336368
 11
-0.124981
 21
1.332270
 0
LINE
 8
1
 62
1
 10
-0.124981
 20
1.332270
 11
-0.124402
 21
1.328998
 0
LINE
 8
1
 62
1
 10
-0.124402
 20
1.328998
 11
-0.124068
 21
1.326784
 0
LINE
 8
1
 62
1
 10
-0.124068
 20
1.326784
 11
-0.124331
 21
1.312667
 0
LINE
 8
1
 62
1
 10
-0.124331
 20
1.312667
 11
-0.123938
 21
1.298680
 0
LINE
 8
1
 62
1
 10
-0.123938
 20
1.298680
 11
-0.122921
 21
1.285621
 0
LINE
 8
1
 62
1
 10
-0.122921
 20
1.285621
 11
-0.121330
 21
1.273511
 0
LINE
 8
1
 62
1
 10
-0.121330
 20
1.273511
 11
-0.119213
 21
1.262372
 0
LINE
 8
1
 62
1
 10
-0.119213
 20
1.262372
 11
-0.116620
 21
1.252221
 0
LINE
 8
1
 62
1
 10
-0.116620
 20
1.252221
 11
-0.113602
 21
1.243076
 0
LINE
 8
1
 62
1
 10
-0.113602
 20
1.243076
 11
-0.110210
 21
1.234950
 0
LINE
 8
1
 62
1
 10
-0.110210
 20
1.234950
 11
-0.106494
 21
1.227858
 0
LINE
 8
1
 62
1
 10
-0.106494
 20
1.227858
 11
-0.102508
 21
1.221809
 0
LINE
 8
1
 62
1
 10
-0.102508
 20
1.221809
 11
-0.098303
 21
1.216812
 0
LINE
 8
1
 62
1
 10
-0.098303
 20
1.216812
 11
-0.093931
 21
1.212874
 0
LINE
 8
1
 62
1
 10
-0.093931
 20
1.212874
 11
-0.089445
 21
1.210000
 0
LINE
 8
1
 62
1
 10
-0.089445
 20
1.210000
 11
-0.084897
 21
1.208192
 0
LINE
 8
1
 62
1
 10
-0.084897
 20
1.208192
 11
-0.080342
 21
1.207450
 0
LINE
 8
1
 62
1
 10
-0.080342
 20
1.207450
 11
-0.042329
 21
1.208633
 0
LINE
 8
1
 62
1
 10
-0.042329
 20
1.208633
 11
-0.000000
 21
1.209072
 0
LINE
 8
1
 62
1
 10
-0.000000
 20
1.209072
 11
0.042329
 21
1.208633
 0
LINE
 8
1
 62
1
 10
0.042329
 20
1.208633
 11
0.080342
 21
1.207450
 0
LINE
 8
1
 62
1
 10
0.080342
 20
1.207450
 11
0.084897
 21
1.208192
 0
LINE
 8
1
 62
1
 10
0.084897
 20
1.208192
 11
0.089445
 21
1.210000
 0
LINE
 8
1
 62
1
 10
0.089445
 20
1.210000
 11
0.093931
 21
1.212874
 0
LINE
 8
1
 62
1
 10
0.093931
 20
1.212874
 11
0.098303
 21
1.216812
 0
LINE
 8
1
 62
1
 10
0.098303
 20
1.216812
 11
0.102508
 21
1.221809
 0
LINE
 8
1
 62
1
 10
0.102508
 20
1.221809
 11
0.106494
 21
1.227858
 0
LINE
 8
1
 62
1
 10
0.106494
 20
1.227858
 11
0.110210
 21
1.234950
 0
LINE
 8
1
 62
1
 10
0.110210
 20
1.234950
 11
0.113602
 21
1.243076
 0
LINE
 8
1
 62
1
 10
0.113602
 20
1.243076
 11
0.116620
 21
1.252221
 0
LINE
 8
1
 62
1
 10
0.116620
 20
1.252221
 11
0.119213
 21
1.262372
 0
LINE
 8
1
 62
1
 10
0.119213
 20
1.262372
 11
0.121330
 21
1.273511
 0
LINE
 8
1
 62
1
 10
0.121330
 20
1.273511
 11
0.122921
 21
1.285621
 0
LINE
 8
1
 62
1
 10
0.122921
 20
1.285621
 11
0.123938
 21
1.298680
 0
LINE
 8
1
 62
1
 10
0.123938
 20
1.298680
 11
0.124331
 21
1.312667
 0
LINE
 8
1
 62
1
 10
0.124331
 20
1.312667
 11
0.124068
 21
1.326784
 0
LINE
 8
1
 62
1
 10
0.124068
 20
1.326784
 11
0.124402
 21
1.328998
 0
LINE
 8
1
 62
1
 10
0.124402
 20
1.328998
 11
0.124981
 21
1.332270
 0
LINE
 8
1
 62
1
 10
0.124981
 20
1.332270
 11
0.125815
 21
1.336368
 0
LINE
 8
1
 62
1
 10
0.125815
 20
1.336368
 11
0.126945
 21
1.341280
 0
LINE
 8
1
 62
1
 10
0.126945
 20
1.341280
 11
0.128414
 21
1.346995
 0
LINE
 8
1
 62
1
 10
0.128414
 20
1.346995
 11
0.130264
 21
1.353498
 0
LINE
 8
1
 62
1
 10
0.130264
 20
1.353498
 11
0.132536
 21
1.360774
 0
LINE
 8
1
 62
1
 10
0.132536
 20
1.360774
 11
0.135271
 21
1.368806
 0
LINE
 8
1
 62
1
 10
0.135271
 20
1.368806
 11
0.138508
 21
1.377576
 0
LINE
 8
1
 62
1
 10
0.138508
 20
1.377576
 11
0.142287
 21
1.387063
 0
LINE
 8
1
 62
1
 10
0.142287
 20
1.387063
 11
0.146647
 21
1.397245
 0
LINE
 8
1
 62
1
 10
0.146647
 20
1.397245
 11
0.151626
 21
1.408099
 0
LINE
 8
1
 62
1
 10
0.151626
 20
1.408099
 11
0.157262
 21
1.419600
 0
LINE
 8
1
 62
1
 10
0.157262
 20
1.419600
 11
0.163590
 21
1.431722
 0
LINE
 8
1
 62
1
 10
0.163590
 20
1.431722
 11
0.170646
 21
1.444437
 0
LINE
 8
1
 62
1
 10
0.170646
 20
1.444437
 11
0.178464
 21
1.457716
 0
LINE
 8
1
 62
1
 10
0.178464
 20
1.457716
 11
0.187079
 21
1.471528
 0
LINE
 8
1
 62
1
 10
0.187079
 20
1.471528
 11
0.196522
 21
1.485841
 0
LINE
 8
1
 62
1
 10
0.196522
 20
1.485841
 11
0.206825
 21
1.500623
 0
LINE
 8
1
 62
1
 10
0.206825
 20
1.500623
 11
0.233050
 21
1.536273
 0
LINE
 8
1
 62
1
 10
0.233050
 20
1.536273
 11
0.303505
 21
1.525822
 0
LINE
 8
1
 62
1
 10
0.303505
 20
1.525822
 11
0.372596
 21
1.508515
 0
LINE
 8
1
 62
1
 10
0.372596
 20
1.508515
 11
0.383182
 21
1.465544
 0
LINE
 8
1
 62
1
 10
0.383182
 20
1.465544
 11
0.387044
 21
1.447944
 0
LINE
 8
1
 62
1
 10
0.387044
 20
1.447944
 11
0.390291
 21
1.431106
 0
LINE
 8
1
 62
1
 10
0.390291
 20
1.431106
 11
0.392964
 21
1.415049
 0
LINE
 8
1
 62
1
 10
0.392964
 20
1.415049
 11
0.395106
 21
1.399789
 0
LINE
 8
1
 62
1
 10
0.395106
 20
1.399789
 11
0.396759
 21
1.385341
 0
LINE
 8
1
 62
1
 10
0.396759
 20
1.385341
 11
0.397967
 21
1.371721
 0
LINE
 8
1
 62
1
 10
0.397967
 20
1.371721
 11
0.398772
 21
1.358938
 0
LINE
 8
1
 62
1
 10
0.398772
 20
1.358938
 11
0.399218
 21
1.347005
 0
LINE
 8
1
 62
1
 10
0.399218
 20
1.347005
 11
0.399350
 21
1.335930
 0
LINE
 8
1
 62
1
 10
0.399350
 20
1.335930
 11
0.399211
 21
1.325719
 0
LINE
 8
1
 62
1
 10
0.399211
 20
1.325719
 11
0.398846
 21
1.316378
 0
LINE
 8
1
 62
1
 10
0.398846
 20
1.316378
 11
0.398298
 21
1.307911
 0
LINE
 8
1
 62
1
 10
0.398298
 20
1.307911
 11
0.397613
 21
1.300319
 0
LINE
 8
1
 62
1
 10
0.397613
 20
1.300319
 11
0.396833
 21
1.293603
 0
LINE
 8
1
 62
1
 10
0.396833
 20
1.293603
 11
0.396004
 21
1.287761
 0
LINE
 8
1
 62
1
 10
0.396004
 20
1.287761
 11
0.395168
 21
1.282790
 0
LINE
 8
1
 62
1
 10
0.395168
 20
1.282790
 11
0.394370
 21
1.278685
 0
LINE
 8
1
 62
1
 10
0.394370
 20
1.278685
 11
0.393653
 21
1.275440
 0
LINE
 8
1
 62
1
 10
0.393653
 20
1.275440
 11
0.393115
 21
1.273267
 0
LINE
 8
1
 62
1
 10
0.393115
 20
1.273267
 11
0.387469
 21
1.260325
 0
LINE
 8
1
 62
1
 10
0.387469
 20
1.260325
 11
0.382480
 21
1.247253
 0
LINE
 8
1
 62
1
 10
0.382480
 20
1.247253
 11
0.378421
 21
1.234799
 0
LINE
 8
1
 62
1
 10
0.378421
 20
1.234799
 11
0.375257
 21
1.223002
 0
LINE
 8
1
 62
1
 10
0.375257
 20
1.223002
 11
0.372950
 21
1.211900
 0
LINE
 8
1
 62
1
 10
0.372950
 20
1.211900
 11
0.371461
 21
1.201530
 0
LINE
 8
1
 62
1
 10
0.371461
 20
1.201530
 11
0.370750
 21
1.191926
 0
LINE
 8
1
 62
1
 10
0.370750
 20
1.191926
 11
0.370774
 21
1.183121
 0
LINE
 8
1
 62
1
 10
0.370774
 20
1.183121
 11
0.371493
 21
1.175147
 0
LINE
 8
1
 62
1
 10
0.371493
 20
1.175147
 11
0.372861
 21
1.168033
 0
LINE
 8
1
 62
1
 10
0.372861
 20
1.168033
 11
0.374834
 21
1.161807
 0
LINE
 8
1
 62
1
 10
0.374834
 20
1.161807
 11
0.377366
 21
1.156496
 0
LINE
 8
1
 62
1
 10
0.377366
 20
1.156496
 11
0.380411
 21
1.152123
 0
LINE
 8
1
 62
1
 10
0.380411
 20
1.152123
 11
0.383920
 21
1.148712
 0
LINE
 8
1
 62
1
 10
0.383920
 20
1.148712
 11
0.387845
 21
1.146284
 0
LINE
 8
1
 62
1
 10
0.387845
 20
1.146284
 11
0.423417
 21
1.132830
 0
LINE
 8
1
 62
1
 10
0.423417
 20
1.132830
 11
0.462692
 21
1.117037
 0
LINE
 8
1
 62
1
 10
0.462692
 20
1.117037
 11
0.501631
 21
1.100433
 0
LINE
 8
1
 62
1
 10
0.501631
 20
1.100433
 11
0.536297
 21
1.084793
 0
LINE
 8
1
 62
1
 10
0.536297
 20
1.084793
 11
0.540790
 21
1.083735
 0
LINE
 8
1
 62
1
 10
0.540790
 20
1.083735
 11
0.545683
 21
1.083665
 0
LINE
 8
1
 62
1
 10
0.545683
 20
1.083665
 11
0.550928
 21
1.084604
 0
LINE
 8
1
 62
1
 10
0.550928
 20
1.084604
 11
0.556474
 21
1.086569
 0
LINE
 8
1
 62
1
 10
0.556474
 20
1.086569
 11
0.562271
 21
1.089576
 0
LINE
 8
1
 62
1
 10
0.562271
 20
1.089576
 11
0.568269
 21
1.093639
 0
LINE
 8
1
 62
1
 10
0.568269
 20
1.093639
 11
0.574416
 21
1.098770
 0
LINE
 8
1
 62
1
 10
0.574416
 20
1.098770
 11
0.580659
 21
1.104978
 0
LINE
 8
1
 62
1
 10
0.580659
 20
1.104978
 11
0.586947
 21
1.112273
 0
LINE
 8
1
 62
1
 10
0.586947
 20
1.112273
 11
0.593227
 21
1.120658
 0
LINE
 8
1
 62
1
 10
0.593227
 20
1.120658
 11
0.599446
 21
1.130140
 0
LINE
 8
1
 62
1
 10
0.599446
 20
1.130140
 11
0.605550
 21
1.140719
 0
LINE
 8
1
 62
1
 10
0.605550
 20
1.140719
 11
0.611487
 21
1.152395
 0
LINE
 8
1
 62
1
 10
0.611487
 20
1.152395
 11
0.617203
 21
1.165167
 0
LINE
 8
1
 62
1
 10
0.617203
 20
1.165167
 11
0.622362
 21
1.178310
 0
LINE
 8
1
 62
1
 10
0.622362
 20
1.178310
 11
0.623518
 21
1.180227
 0
LINE
 8
1
 62
1
 10
0.623518
 20
1.180227
 11
0.625305
 21
1.183029
 0
LINE
 8
1
 62
1
 10
0.625305
 20
1.183029
 11
0.627643
 21
1.186496
 0
LINE
 8
1
 62
1
 10
0.627643
 20
1.186496
 11
0.630568
 21
1.190601
 0
LINE
 8
1
 62
1
 10
0.630568
 20
1.190601
 11
0.634112
 21
1.195319
 0
LINE
 8
1
 62
1
 10
0.634112
 20
1.195319
 11
0.638310
 21
1.200619
 0
LINE
 8
1
 62
1
 10
0.638310
 20
1.200619
 11
0.643193
 21
1.206472
 0
LINE
 8
1
 62
1
 10
0.643193
 20
1.206472
 11
0.648793
 21
1.212846
 0
LINE
 8
1
 62
1
 10
0.648793
 20
1.212846
 11
0.655140
 21
1.219710
 0
LINE
 8
1
 62
1
 10
0.655140
 20
1.219710
 11
0.662262
 21
1.227028
 0
LINE
 8
1
 62
1
 10
0.662262
 20
1.227028
 11
0.670187
 21
1.234766
 0
LINE
 8
1
 62
1
 10
0.670187
 20
1.234766
 11
0.678940
 21
1.242889
 0
LINE
 8
1
 62
1
 10
0.678940
 20
1.242889
 11
0.688548
 21
1.251358
 0
LINE
 8
1
 62
1
 10
0.688548
 20
1.251358
 11
0.699033
 21
1.260135
 0
LINE
 8
1
 62
1
 10
0.699033
 20
1.260135
 11
0.710418
 21
1.269182
 0
LINE
 8
1
 62
1
 10
0.710418
 20
1.269182
 11
0.722723
 21
1.278458
 0
LINE
 8
1
 62
1
 10
0.722723
 20
1.278458
 11
0.735968
 21
1.287922
 0
LINE
 8
1
 62
1
 10
0.735968
 20
1.287922
 11
0.750170
 21
1.297533
 0
LINE
 8
1
 62
1
 10
0.750170
 20
1.297533
 11
0.765346
 21
1.307247
 0
LINE
 8
1
 62
1
 10
0.765346
 20
1.307247
 11
0.803216
 21
1.330146
 0
LINE
 8
1
 62
1
 10
0.803216
 20
1.330146
 11
0.864309
 21
1.293529
 0
LINE
 8
1
 62
1
 10
0.864309
 20
1.293529
 11
0.921517
 21
1.251100
 0
LINE
 8
1
 62
1
 10
0.921517
 20
1.251100
 11
0.914853
 21
1.207349
 0
LINE
 8
1
 62
1
 10
0.914853
 20
1.207349
 11
0.911686
 21
1.189611
 0
LINE
 8
1
 62
1
 10
0.911686
 20
1.189611
 11
0.908242
 21
1.172812
 0
LINE
 8
1
 62
1
 10
0.908242
 20
1.172812
 11
0.904567
 21
1.156954
 0
LINE
 8
1
 62
1
 10
0.904567
 20
1.156954
 11
0.900706
 21
1.142036
 0
LINE
 8
1
 62
1
 10
0.900706
 20
1.142036
 11
0.896705
 21
1.128055
 0
LINE
 8
1
 62
1
 10
0.896705
 20
1.128055
 11
0.892608
 21
1.115009
 0
LINE
 8
1
 62
1
 10
0.892608
 20
1.115009
 11
0.888460
 21
1.102892
 0
LINE
 8
1
 62
1
 10
0.888460
 20
1.102892
 11
0.884306
 21
1.091696
 0
LINE
 8
1
 62
1
 10
0.884306
 20
1.091696
 11
0.880190
 21
1.081413
 0
LINE
 8
1
 62
1
 10
0.880190
 20
1.081413
 11
0.876154
 21
1.072033
 0
LINE
 8
1
 62
1
 10
0.876154
 20
1.072033
 11
0.872242
 21
1.063543
 0
LINE
 8
1
 62
1
 10
0.872242
 20
1.063543
 11
0.868495
 21
1.055930
 0
LINE
 8
1
 62
1
 10
0.868495
 20
1.055930
 11
0.864957
 21
1.049178
 0
LINE
 8
1
 62
1
 10
0.864957
 20
1.049178
 11
0.861666
 21
1.043272
 0
LINE
 8
1
 62
1
 10
0.861666
 20
1.043272
 11
0.858664
 21
1.038192
 0
LINE
 8
1
 62
1
 10
0.858664
 20
1.038192
 11
0.855990
 21
1.033919
 0
LINE
 8
1
 62
1
 10
0.855990
 20
1.033919
 11
0.853682
 21
1.030432
 0
LINE
 8
1
 62
1
 10
0.853682
 20
1.030432
 11
0.851778
 21
1.027709
 0
LINE
 8
1
 62
1
 10
0.851778
 20
1.027709
 11
0.850449
 21
1.025907
 0
LINE
 8
1
 62
1
 10
0.850449
 20
1.025907
 11
0.840280
 21
1.016111
 0
LINE
 8
1
 62
1
 10
0.840280
 20
1.016111
 11
0.830668
 21
1.005943
 0
LINE
 8
1
 62
1
 10
0.830668
 20
1.005943
 11
0.822153
 21
0.995990
 0
LINE
 8
1
 62
1
 10
0.822153
 20
0.995990
 11
0.814715
 21
0.986302
 0
LINE
 8
1
 62
1
 10
0.814715
 20
0.986302
 11
0.808335
 21
0.976928
 0
LINE
 8
1
 62
1
 10
0.808335
 20
0.976928
 11
0.802991
 21
0.967917
 0
LINE
 8
1
 62
1
 10
0.802991
 20
0.967917
 11
0.798658
 21
0.959316
 0
LINE
 8
1
 62
1
 10
0.798658
 20
0.959316
 11
0.795312
 21
0.951172
 0
LINE
 8
1
 62
1
 10
0.795312
 20
0.951172
 11
0.792924
 21
0.943530
 0
LINE
 8
1
 62
1
 10
0.792924
 20
0.943530
 11
0.791465
 21
0.936434
 0
LINE
 8
1
 62
1
 10
0.791465
 20
0.936434
 11
0.790906
 21
0.929927
 0
LINE
 8
1
 62
1
 10
0.790906
 20
0.929927
 11
0.791213
 21
0.924051
 0
LINE
 8
1
 62
1
 10
0.791213
 20
0.924051
 11
0.792352
 21
0.918846
 0
LINE
 8
1
 62
1
 10
0.792352
 20
0.918846
 11
0.794289
 21
0.914352
 0
LINE
 8
1
 62
1
 10
0.794289
 20
0.914352
 11
0.796986
 21
0.910606
 0
LINE
 8
1
 62
1
 10
0.796986
 20
0.910606
 11
0.824701
 21
0.884564
 0
LINE
 8
1
 62
1
 10
0.824701
 20
0.884564
 11
0.854943
 21
0.854943
 0
LINE
 8
1
 62
1
 10
0.854943
 20
0.854943
 11
0.884564
 21
0.824701
 0
LINE
 8
1
 62
1
 10
0.884564
 20
0.824701
 11
0.910606
 21
0.796986
 0
LINE
 8
1
 62
1
 10
0.910606
 20
0.796986
 11
0.914352
 21
0.794289
 0
LINE
 8
1
 62
1
 10
0.914352
 20
0.794289
 11
0.918846
 21
0.792352
 0
LINE
 8
1
 62
1
 10
0.918846
 20
0.792352
 11
0.924051
 21
0.791213
 0
LINE
 8
1
 62
1
 10
0.924051
 20
0.791213
 11
0.929927
 21
0.790906
 0
LINE
 8
1
 62
1
 10
0.929927
 20
0.790906
 11
0.936434
 21
0.791465
 0
LINE
 8
1
 62
1
 10
0.936434
 20
0.791465
 11
0.943530
 21
0.792924
 0
LINE
 8
1
 62
1
 10
0.943530
 20
0.792924
 11
0.951172
 21
0.795312
 0
LINE
 8
1
 62
1
 10
0.951172
 20
0.795312
 11
0.959316
 21
0.798658
 0
LINE
 8
1
 62
1
 10
0.959316
 20
0.798658
 11
0.967917
 21
0.802991
 0
LINE
 8
1
 62
1
 10
0.967917
 20
0.802991
 11
0.976928
 21
0.808335
 0
LINE
 8
1
 62
1
 10
0.976928
 20
0.808335
 11
0.986302
 21
0.814715
 0
LINE
 8
1
 62
1
 10
0.986302
 20
0.814715
 11
0.995990
 21
0.822153
 0
LINE
 8
1
 62
1
 10
0.995990
 20
0.822153
 11
1.005943
 21
0.830668
 0
LINE
 8
1
 62
1
 10
1.005943
 20
0.830668
 11
1.016111
 21
0.840280
 0
LINE
 8
1
 62
1
 10
1.016111
 20
0.840280
 11
1.025907
 21
0.850449
 0
LINE
 8
1
 62
1
 10
1.025907
 20
0.850449
 11
1.027709
 21
0.851778
 0
LINE
 8
1
 62
1
 10
1.027709
 20
0.851778
 11
1.030432
 21
0.853682
 0
LINE
 8
1
 62
1
 10
1.030432
 20
0.853682
 11
1.033919
 21
0.855990
 0
LINE
 8
1
 62
1
 10
1.033919
 20
0.855990
 11
1.038192
 21
0.858664
 0
LINE
 8
1
 62
1
 10
1.038192
 20
0.858664
 11
1.043272
 21
0.861666
 0
LINE
 8
1
 62
1
 10
1.043272
 20
0.861666
 11
1.049178
 21
0.864957
 0
LINE
 8
1
 62
1
 10
1.049178
 20
0.864957
 11
1.055930
 21
0.868495
 0
LINE
 8
1
 62
1
 10
1.055930
 20
0.868495
 11
1.063543
 21
0.872242
 0
LINE
 8
1
 62
1
 10
1.063543
 20
0.872242
 11
1.072033
 21
0.876154
 0
LINE
 8
1
 62
1
 10
1.072033
 20
0.876154
 11
1.081413
 21
0.880190
 0
LINE
 8
1
 62
1
 10
1.081413
 20
0.880190
 11
1.091696
 21
0.884306
 0
LINE
 8
1
 62
1
 10
1.091696
 20
0.884306
 11
1.102892
 21
0.888460
 0
LINE
 8
1
 62
1
 10
1.102892
 20
0.888460
 11
1.115009
 21
0.892608
 0
LINE
 8
1
 62
1
 10
1.115009
 20
0.892608
 11
1.128055
 21
0.896705
 0
LINE
 8
1
 62
1
 10
1.128055
 20
0.896705
 11
1.142036
 21
0.900706
 0
LINE
 8
1
 62
1
 10
1.142036
 20
0.900706
 11
1.156954
 21
0.904567
 0
LINE
 8
1
 62
1
 10
1.156954
 20
0.904567
 11
1.172812
 21
0.908242
 0
LINE
 8
1
 62
1
 10
1.172812
 20
0.908242
 11
1.189611
 21
0.911686
 0
LINE
 8
1
 62
1
 10
1.189611
 20
0.911686
 11
1.207349
 21
0.914853
 0
LINE
 8
1
 62
1
 10
1.207349
 20
0.914853
 11
1.251100
 21
0.921517
 0
LINE
 8
1
 62
1
 10
1.251100
 20
0.921517
 11
1.293529
 21
0.864309
 0
LINE
 8
1
 62
1
 10
1.293529
 20
0.864309
 11
1.330146
 21
0.803216
 0
LINE
 8
1
 62
1
 10
1.330146
 20
0.803216
 11
1.307247
 21
0.765346
 0
LINE
 8
1
 62
1
 10
1.307247
 20
0.765346
 11
1.297533
 21
0.750170
 0
LINE
 8
1
 62
1
 10
1.297533
 20
0.750170
 11
1.287922
 21
0.735968
 0
LINE
 8
1
 62
1
 10
1.287922
 20
0.735968
 11
1.278458
 21
0.722723
 0
LINE
 8
1
 62
1
 10
1.278458
 20
0.722723
 11
1.269182
 21
0.710418
 0
LINE
 8
1
 62
1
 10
1.269182
 20
0.710418
 11
1.260135
 21
0.699033
 0
LINE
 8
1
 62
1
 10
1.260135
 20
0.699033
 11
1.251358
 21
0.688548
 0
LINE
 8
1
 62
1
 10
1.251358
 20
0.688548
 11
1.242889
 21
0.678940
 0
LINE
 8
1
 62
1
 10
1.242889
 20
0.678940
 11
1.234766
 21
0.670187
 0
LINE
 8
1
 62
1
 10
1.234766
 20
0.670187
 11
1.227028
 21
0.662262
 0
LINE
 8
1
 62
1
 10
1.227028
 20
0.662262
 11
1.219710
 21
0.655140
 0
LINE
 8
1
 62
1
 10
1.219710
 20
0.655140
 11
1.212846
 21
0.648793
 0
LINE
 8
1
 62
1
 10
1.212846
 20
0.648793
 11
1.206472
 21
0.643193
 0
LINE
 8
1
 62
1
 10
1.206472
 20
0.643193
 11
1.200619
 21
0.638310
 0
LINE
 8
1
 62
1
 10
1.200619
 20
0.638310
 11
1.195319
 21
0.634112
 0
LINE
 8
1
 62
1
 10
1.195319
 20
0.634112
 11
1.190601
 21
0.630568
 0
LINE
 8
1
 62
1
 10
1.190601
 20
0.630568
 11
1.186496
 21
0.627643
 0
LINE
 8
1
 62
1
 10
1.186496
 20
0.627643
 11
1.183029
 21
0.625305
 0
LINE
 8
1
 62
1
 10
1.183029
 20
0.625305
 11
1.180227
 21
0.623518
 0
LINE
 8
1
 62
1
 10
1.180227
 20
0.623518
 11
1.178310
 21
0.622362
 0
LINE
 8
1
 62
1
 10
1.178310
 20
0.622362
 11
1.165167
 21
0.617203
 0
LINE
 8
1
 62
1
 10
1.165167
 20
0.617203
 11
1.152395
 21
0.611487
 0
LINE
 8
1
 62
1
 10
1.152395
 20
0.611487
 11
1.140719
 21
0.605550
 0
LINE
 8
1
 62
1
 10
1.140719
 20
0.605550
 11
1.130140
 21
0.599446
 0
LINE
 8
1
 62
1
 10
1.130140
 20
0.599446
 11
1.120658
 21
0.593227
 0
LINE
 8
1
 62
1
 10
1.120658
 20
0.593227
 11
1.112273
 21
0.586947
 0
LINE
 8
1
 62
1
 10
1.112273
 20
0.586947
 11
1.104978
 21
0.580659
 0
LINE
 8
1
 62
1
 10
1.104978
 20
0.580659
 11
1.098770
 21
0.574416
 0
LINE
 8
1
 62
1
 10
1.098770
 20
0.574416
 11
1.093639
 21
0.568269
 0
LINE
 8
1
 62
1
 10
1.093639
 20
0.568269
 11
1.089576
 21
0.562271
 0
LINE
 8
1
 62
1
 10
1.089576
 20
0.562271
 11
1.086569
 21
0.556474
 0
LINE
 8
1
 62
1
 10
1.086569
 20
0.556474
 11
1.084604
 21
0.550928
 0
LINE
 8
1
 62
1
 10
1.084604
 20
0.550928
 11
1.083665
 21
0.545683
 0
LINE
 8
1
 62
1
 10
1.083665
 20
0.545683
 11
1.083735
 21
0.540790
 0
LINE
 8
1
 62
1
 10
1.083735
 20
0.540790
 11
1.084793
 21
0.536297
 0
LINE
 8
1
 62
1
 10
1.084793
 20
0.536297
 11
1.100433
 21
0.501631
 0
LINE
 8
1
 62
1
 10
1.100433
 20
0.501631
 11
1.117037
 21
0.462692
 0
LINE
 8
1
 62
1
 10
1.117037
 20
0.462692
 11
1.132830
 21
0.423417
 0
LINE
 8
1
 62
1
 10
1.132830
 20
0.423417
 11
1.146284
 21
0.387845
 0
LINE
 8
1
 62
1
 10
1.146284
 20
0.387845
 11
1.148712
 21
0.383920
 0
LINE
 8
1
 62
1
 10
1.148712
 20
0.383920
 11
1.152123
 21
0.380411
 0
LINE
 8
1
 62
1
 10
1.152123
 20
0.380411
 11
1.156496
 21
0.377366
 0
LINE
 8
1
 62
1
 10
1.156496
 20
0.377366
 11
1.161807
 21
0.374834
 0
LINE
 8
1
 62
1
 10
1.161807
 20
0.374834
 11
1.168033
 21
0.372861
 0
LINE
 8
1
 62
1
 10
1.168033
 20
0.372861
 11
1.175147
 21
0.371493
 0
LINE
 8
1
 62
1
 10
1.175147
 20
0.371493
 11
1.183121
 21
0.370774
 0
LINE
 8
1
 62
1
 10
1.183121
 20
0.370774
 11
1.191926
 21
0.370750
 0
LINE
 8
1
 62
1
 10
1.191926
 20
0.370750
 11
1.201530
 21
0.371461
 0
LINE
 8
1
 62
1
 10
1.201530
 20
0.371461
 11
1.211900
 21
0.372950
 0
LINE
 8
1
 62
1
 10
1.211900
 20
0.372950
 11
1.223002
 21
0.375257
 0
LINE
 8
1
 62
1
 10
1.223002
 20
0.375257
 11
1.234799
 21
0.378421
 0
LINE
 8
1
 62
1
 10
1.234799
 20
0.378421
 11
1.247253
 21
0.382480
 0
LINE
 8
1
 62
1
 10
1.247253
 20
0.382480
 11
1.260325
 21
0.387469
 0
LINE
 8
1
 62
1
 10
1.260325
 20
0.387469
 11
1.273267
 21
0.393115
 0
LINE
 8
1
 62
1
 10
1.273267
 20
0.393115
 11
1.275440
 21
0.393653
 0
LINE
 8
1
 62
1
 10
1.275440
 20
0.393653
 11
1.278685
 21
0.394370
 0
LINE
 8
1
 62
1
 10
1.278685
 20
0.394370
 11
1.282790
 21
0.395168
 0
LINE
 8
1
 62
1
 10
1.282790
 20
0.395168
 11
1.287761
 21
0.396004
 0
LINE
 8
1
 62
1
 10
1.287761
 20
0.396004
 11
1.293603
 21
0.396833
 0
LINE
 8
1
 62
1
 10
1.293603
 20
0.396833
 11
1.300319
 21
0.397613
 0
LINE
 8
1
 62
1
 10
1.300319
 20
0.397613
 11
1.307911
 21
0.398298
 0
LINE
 8
1
 62
1
 10
1.307911
 20
0.398298
 11
1.316378
 21
0.398846
 0
LINE
 8
1
 62
1
 10
1.316378
 20
0.398846
 11
1.325719
 21
0.399211
 0
LINE
 8
1
 62
1
 10
1.325719
 20
0.399211
 11
1.335930
 21
0.399350
 0
LINE
 8
1
 62
1
 10
1.335930
 20
0.399350
 11
1.347005
 21
0.399218
 0
LINE
 8
1
 62
1
 10
1.347005
 20
0.399218
 11
1.358938
 21
0.398772
 0
LINE
 8
1
 62
1
 10
1.358938
 20
0.398772
 11
1.371721
 21
0.397967
 0
LINE
 8
1
 62
1
 10
1.371721
 20
0.397967
 11
1.385341
 21
0.396759
 0
LINE
 8
1
 62
1
 10
1.385341
 20
0.396759
 11
1.399789
 21
0.395106
 0
LINE
 8
1
 62
1
 10
1.399789
 20
0.395106
 11
1.415049
 21
0.392964
 0
LINE
 8
1
 62
1
 10
1.415049
 20
0.392964
 11
1.431106
 21
0.390291
 0
LINE
 8
1
 62
1
 10
1.431106
 20
0.390291
 11
1.447944
 21
0.387044
 0
LINE
 8
1
 62
1
 10
1.447944
 20
0.387044
 11
1.465544
 21
0.383182
 0
LINE
 8
1
 62
1
 10
1.465544
 20
0.383182
 11
1.508515
 21
0.372596
 0
LINE
 8
1
 62
1
 10
1.508515
 20
0.372596
 11
1.525822
 21
0.303505
 0
LINE
 8
1
 62
1
 10
1.525822
 20
0.303505
 11
1.536273
 21
0.233050
 0
LINE
 8
1
 62
1
 10
1.536273
 20
0.233050
 11
1.500623
 21
0.206825
 0
LINE
 8
1
 62
1
 10
1.500623
 20
0.206825
 11
1.485841
 21
0.196522
 0
LINE
 8
1
 62
1
 10
1.485841
 20
0.196522
 11
1.471528
 21
0.187079
 0
LINE
 8
1
 62
1
 10
1.471528
 20
0.187079
 11
1.457716
 21
0.178464
 0
LINE
 8
1
 62
1
 10
1.457716
 20
0.178464
 11
1.444437
 21
0.170646
 0
LINE
 8
1
 62
1
 10
1.444437
 20
0.170646
 11
1.431722
 21
0.163590
 0
LINE
 8
1
 62
1
 10
1.431722
 20
0.163590
 11
1.419600
 21
0.157262
 0
LINE
 8
1
 62
1
 10
1.419600
 20
0.157262
 11
1.408099
 21
0.151626
 0
LINE
 8
1
 62
1
 10
1.408099
 20
0.151626
 11
1.397245
 21
0.146647
 0
LINE
 8
1
 62
1
 10
1.397245
 20
0.146647
 11
1.387063
 21
0.142287
 0
LINE
 8
1
 62
1
 10
1.387063
 20
0.142287
 11
1.377576
 21
0.138508
 0
LINE
 8
1
 62
1
 10
1.377576
 20
0.138508
 11
1.368806
 21
0.135271
 0
LINE
 8
1
 62
1
 10
1.368806
 20
0.135271
 11
1.360774
 21
0.132536
 0
LINE
 8
1
 62
1
 10
1.360774
 20
0.132536
 11
1.353498
 21
0.130264
 0
LINE
 8
1
 62
1
 10
1.353498
 20
0.130264
 11
1.346995
 21
0.128414
 0
LINE
 8
1
 62
1
 10
1.346995
 20
0.128414
 11
1.341280
 21
0.126945
 0
LINE
 8
1
 62
1
 10
1.341280
 20
0.126945
 11
1.336368
 21
0.125815
 0
LINE
 8
1
 62
1
 10
1.336368
 20
0.125815
 11
1.332270
 21
0.124981
 0
LINE
 8
1
 62
1
 10
1.332270
 20
0.124981
 11
1.328998
 21
0.124402
 0
LINE
 8
1
 62
1
 10
1.328998
 20
0.124402
 11
1.326784
 21
0.124068
 0
LINE
 8
1
 62
1
 10
1.326784
 20
0.124068
 11
1.312667
 21
0.124331
 0
LINE
 8
1
 62
1
 10
1.312667
 20
0.124331
 11
1.298680
 21
0.123938
 0
LINE
 8
1
 62
1
 10
1.298680
 20
0.123938
 11
1.285621
 21
0.122921
 0
LINE
 8
1
 62
1
 10
1.285621
 20
0.122921
 11
1.273511
 21
0.121330
 0
LINE
 8
1
 62
1
 10
1.273511
 20
0.121330
 11
1.262372
 21
0.119213
 0
LINE
 8
1
 62
1
 10
1.262372
 20
0.119213
 11
1.252221
 21
0.116620
 0
LINE
 8
1
 62
1
 10
1.252221
 20
0.116620
 11
1.243076
 21
0.113602
 0
LINE
 8
1
 62
1
 10
1.243076
 20
0.113602
 11
1.234950
 21
0.110210
 0
LINE
 8
1
 62
1
 10
1.234950
 20
0.110210
 11
1.227858
 21
0.106494
 0
LINE
 8
1
 62
1
 10
1.227858
 20
0.106494
 11
1.221809
 21
0.102508
 0
LINE
 8
1
 62
1
 10
1.221809
 20
0.102508
 11
1.216812
 21
0.098303
 0
LINE
 8
1
 62
1
 10
1.216812
 20
0.098303
 11
1.212874
 21
0.093931
 0
LINE
 8
1
 62
1
 10
1.212874
 20
0.093931
 11
1.210000
 21
0.089445
 0
LINE
 8
1
 62
1
 10
1.210000
 20
0.089445
 11
1.208192
 21
0.084897
 0
LINE
 8
1
 62
1
 10
1.208192
 20
0.084897
 11
1.207450
 21
0.080342
 0
LINE
 8
1
 62
1
 10
1.207450
 20
0.080342
 11
1.208633
 21
0.042329
 0
LINE
 8
1
 62
1
 10
1.208633
 20
0.042329
 11
1.209072
 21
0.000000
 0
LINE
 8
1
 62
1
 10
1.209072
 20
0.000000
 11
1.208633
 21
-0.042329
 0
LINE
 8
1
 62
1
 10
1.208633
 20
-0.042329
 11
1.207450
 21
-0.080342
 0
LINE
 8
1
 62
1
 10
1.207450
 20
-0.080342
 11
1.208192
 21
-0.084897
 0
LINE
 8
1
 62
1
 10
1.208192
 20
-0.084897
 11
1.210000
 21
-0.089445
 0
LINE
 8
1
 62
1
 10
1.210000
 20
-0.089445
 11
1.212874
 21
-0.093931
 0
LINE
 8
1
 62
1
 10
1.212874
 20
-0.093931
 11
1.216812
 21
-0.098303
 0
LINE
 8
1
 62
1
 10
1.216812
 20
-0.098303
 11
1.221809
 21
-0.102508
 0
LINE
 8
1
 62
1
 10
1.221809
 20
-0.102508
 11
1.227858
 21
-0.106494
 0
LINE
 8
1
 62
1
 10
1.227858
 20
-0.106494
 11
1.234950
 21
-0.110210
 0
LINE
 8
1
 62
1
 10
1.234950
 20
-0.110210
 11
1.243076
 21
-0.113602
 0
LINE
 8
1
 62
1
 10
1.243076
 20
-0.113602
 11
1.252221
 21
-0.116620
 0
LINE
 8
1
 62
1
 10
1.252221
 20
-0.116620
 11
1.262372
 21
-0.119213
 0
LINE
 8
1
 62
1
 10
1.262372
 20
-0.119213
 11
1.273511
 21
-0.121330
 0
LINE
 8
1
 62
1
 10
1.273511
 20
-0.121330
 11
1.285621
 21
-0.122921
 0
LINE
 8
1
 62
1
 10
1.285621
 20
-0.122921
 11
1.298680
 21
-0.123938
 0
LINE
 8
1
 62
1
 10
1.298680
 20
-0.123938
 11
1.312667
 21
-0.124331
 0
LINE
 8
1
 62
1
 10
1.312667
 20
-0.124331
 11
1.326784
 21
-0.124068
 0
LINE
 8
1
 62
1
 10
1.326784
 20
-0.124068
 11
1.328998
 21
-0.124402
 0
LINE
 8
1
 62
1
 10
1.328998
 20
-0.124402
 11
1.332270
 21
-0.124981
 0
LINE
 8
1
 62
1
 10
1.332270
 20
-0.124981
 11
1.336368
 21
-0.125815
 0
LINE
 8
1
 62
1
 10
1.336368
 20
-0.125815
 11
1.341280
 21
-0.126945
 0
LINE
 8
1
 62
1
 10
1.341280
 20
-0.126945
 11
1.346995
 21
-0.128414
 0
LINE
 8
1
 62
1
 10
1.346995
 20
-0.128414
 11
1.353498
 21
-0.130264
 0
LINE
 8
1
 62
1
 10
1.353498
 20
-0.130264
 11
1.360774
 21
-0.132536
 0
LINE
 8
1
 62
1
 10
1.360774
 20
-0.132536
 11
1.368806
 21
-0.135271
 0
LINE
 8
1
 62
1
 10
1.368806
 20
-0.135271
 11
1.377576
 21
-0.138508
 0
LINE
 8
1
 62
1
 10
1.377576
 20
-0.138508
 11
1.387063
 21
-0.142287
 0
LINE
 8
1
 62
1
 10
1.387063
 20
-0.142287
 11
1.397245
 21
-0.146647
 0
LINE
 8
1
 62
1
 10
1.397245
 20
-0.146647
 11
1.408099
 21
-0.151626
 0
LINE
 8
1
 62
1
 10
1.408099
 20
-0.151626
 11
1.419600
 21
-0.157262
 0
LINE
 8
1
 62
1
 10
1.419600
 20
-0.157262
 11
1.431722
 21
-0.163590
 0
LINE
 8
1
 62
1
 10
1.431722
 20
-0.163590
 11
1.444437
 21
-0.170646
 0
LINE
 8
1
 62
1
 10
1.444437
 20
-0.170646
 11
1.457716
 21
-0.178464
 0
LINE
 8
1
 62
1
 10
1.457716
 20
-0.178464
 11
1.471528
 21
-0.187079
 0
LINE
 8
1
 62
1
 10
1.471528
 20
-0.187079
 11
1.485841
 21
-0.196522
 0
LINE
 8
1
 62
1
 10
1.485841
 20
-0.196522
 11
1.500623
 21
-0.206825
 0
LINE
 8
1
 62
1
 10
1.500623
 20
-0.206825
 11
1.536273
 21
-0.233050
 0
ENDSEC
 0
EOF
