 999
DXF created from gear.py (https://github.com/marmakoide/gear-profile-generator)
 0
SECTION
 2
HEADER
 9
$ACADVER
 1
AC1009
 0
ENDSEC
 0
SECTION
 2
TABLES
 0
TABLE
 2
LAYER
 0
LAYER
2
1
0
ENDTAB
 0
ENDSEC
 0
SECTION
 2
BLOCKS
 0
ENDSEC
 0
SECTION
 2
ENTITIES
 0
LINE
 8
1
 62
1
 10
0.944070
 20
-0.107119
 11
0.932447
 21
-0.185475
 0
LINE
 8
1
 62
1
 10
0.932447
 20
-0.185475
 11
0.923176
 21
-0.222485
 0
LINE
 8
1
 62
1
 10
0.923176
 20
-0.222485
 11
0.904602
 21
-0.230351
 0
LINE
 8
1
 62
1
 10
0.904602
 20
-0.230351
 11
0.881620
 21
-0.238874
 0
LINE
 8
1
 62
1
 10
0.881620
 20
-0.238874
 11
0.859756
 21
-0.245872
 0
LINE
 8
1
 62
1
 10
0.859756
 20
-0.245872
 11
0.839096
 21
-0.251463
 0
LINE
 8
1
 62
1
 10
0.839096
 20
-0.251463
 11
0.819718
 21
-0.255775
 0
LINE
 8
1
 62
1
 10
0.819718
 20
-0.255775
 11
0.801690
 21
-0.258935
 0
LINE
 8
1
 62
1
 10
0.801690
 20
-0.258935
 11
0.785071
 21
-0.261077
 0
LINE
 8
1
 62
1
 10
0.785071
 20
-0.261077
 11
0.769912
 21
-0.262335
 0
LINE
 8
1
 62
1
 10
0.769912
 20
-0.262335
 11
0.756253
 21
-0.262846
 0
LINE
 8
1
 62
1
 10
0.756253
 20
-0.262846
 11
0.744125
 21
-0.262750
 0
LINE
 8
1
 62
1
 10
0.744125
 20
-0.262750
 11
0.733550
 21
-0.262187
 0
LINE
 8
1
 62
1
 10
0.733550
 20
-0.262187
 11
0.724539
 21
-0.261295
 0
LINE
 8
1
 62
1
 10
0.724539
 20
-0.261295
 11
0.717096
 21
-0.260217
 0
LINE
 8
1
 62
1
 10
0.717096
 20
-0.260217
 11
0.712072
 21
-0.259255
 0
LINE
 8
1
 62
1
 10
0.712072
 20
-0.259255
 11
0.709656
 21
-0.257380
 0
LINE
 8
1
 62
1
 10
0.709656
 20
-0.257380
 11
0.691573
 21
-0.245364
 0
LINE
 8
1
 62
1
 10
0.691573
 20
-0.245364
 11
0.673972
 21
-0.235542
 0
LINE
 8
1
 62
1
 10
0.673972
 20
-0.235542
 11
0.657017
 21
-0.227840
 0
LINE
 8
1
 62
1
 10
0.657017
 20
-0.227840
 11
0.640864
 21
-0.222174
 0
LINE
 8
1
 62
1
 10
0.640864
 20
-0.222174
 11
0.625662
 21
-0.218450
 0
LINE
 8
1
 62
1
 10
0.625662
 20
-0.218450
 11
0.611556
 21
-0.216565
 0
LINE
 8
1
 62
1
 10
0.611556
 20
-0.216565
 11
0.598681
 21
-0.216406
 0
LINE
 8
1
 62
1
 10
0.598681
 20
-0.216406
 11
0.587163
 21
-0.217853
 0
LINE
 8
1
 62
1
 10
0.587163
 20
-0.217853
 11
0.577123
 21
-0.220776
 0
LINE
 8
1
 62
1
 10
0.577123
 20
-0.220776
 11
0.568668
 21
-0.225039
 0
LINE
 8
1
 62
1
 10
0.568668
 20
-0.225039
 11
0.561899
 21
-0.230498
 0
LINE
 8
1
 62
1
 10
0.561899
 20
-0.230498
 11
0.556905
 21
-0.237006
 0
LINE
 8
1
 62
1
 10
0.556905
 20
-0.237006
 11
0.541885
 21
-0.266680
 0
LINE
 8
1
 62
1
 10
0.541885
 20
-0.266680
 11
0.522525
 21
-0.301680
 0
LINE
 8
1
 62
1
 10
0.522525
 20
-0.301680
 11
0.501894
 21
-0.335946
 0
LINE
 8
1
 62
1
 10
0.501894
 20
-0.335946
 11
0.483706
 21
-0.363791
 0
LINE
 8
1
 62
1
 10
0.483706
 20
-0.363791
 11
0.480567
 21
-0.371369
 0
LINE
 8
1
 62
1
 10
0.480567
 20
-0.371369
 11
0.479223
 21
-0.379961
 0
LINE
 8
1
 62
1
 10
0.479223
 20
-0.379961
 11
0.479759
 21
-0.389415
 0
LINE
 8
1
 62
1
 10
0.479759
 20
-0.389415
 11
0.482248
 21
-0.399572
 0
LINE
 8
1
 62
1
 10
0.482248
 20
-0.399572
 11
0.486754
 21
-0.410270
 0
LINE
 8
1
 62
1
 10
0.486754
 20
-0.410270
 11
0.493329
 21
-0.421340
 0
LINE
 8
1
 62
1
 10
0.493329
 20
-0.421340
 11
0.502015
 21
-0.432614
 0
LINE
 8
1
 62
1
 10
0.502015
 20
-0.432614
 11
0.512840
 21
-0.443917
 0
LINE
 8
1
 62
1
 10
0.512840
 20
-0.443917
 11
0.525824
 21
-0.455073
 0
LINE
 8
1
 62
1
 10
0.525824
 20
-0.455073
 11
0.540972
 21
-0.465906
 0
LINE
 8
1
 62
1
 10
0.540972
 20
-0.465906
 11
0.558278
 21
-0.476238
 0
LINE
 8
1
 62
1
 10
0.558278
 20
-0.476238
 11
0.577725
 21
-0.485890
 0
LINE
 8
1
 62
1
 10
0.577725
 20
-0.485890
 11
0.580557
 21
-0.487045
 0
LINE
 8
1
 62
1
 10
0.580557
 20
-0.487045
 11
0.583902
 21
-0.490915
 0
LINE
 8
1
 62
1
 10
0.583902
 20
-0.490915
 11
0.588558
 21
-0.496822
 0
LINE
 8
1
 62
1
 10
0.588558
 20
-0.496822
 11
0.593835
 21
-0.504180
 0
LINE
 8
1
 62
1
 10
0.593835
 20
-0.504180
 11
0.599611
 21
-0.513056
 0
LINE
 8
1
 62
1
 10
0.599611
 20
-0.513056
 11
0.605758
 21
-0.523511
 0
LINE
 8
1
 62
1
 10
0.605758
 20
-0.523511
 11
0.612145
 21
-0.535596
 0
LINE
 8
1
 62
1
 10
0.612145
 20
-0.535596
 11
0.618635
 21
-0.549353
 0
LINE
 8
1
 62
1
 10
0.618635
 20
-0.549353
 11
0.625090
 21
-0.564816
 0
LINE
 8
1
 62
1
 10
0.625090
 20
-0.564816
 11
0.631367
 21
-0.582009
 0
LINE
 8
1
 62
1
 10
0.631367
 20
-0.582009
 11
0.637322
 21
-0.600947
 0
LINE
 8
1
 62
1
 10
0.637322
 20
-0.600947
 11
0.642809
 21
-0.621635
 0
LINE
 8
1
 62
1
 10
0.642809
 20
-0.621635
 11
0.647681
 21
-0.644068
 0
LINE
 8
1
 62
1
 10
0.647681
 20
-0.644068
 11
0.651790
 21
-0.668233
 0
LINE
 8
1
 62
1
 10
0.651790
 20
-0.668233
 11
0.654300
 21
-0.688531
 0
LINE
 8
1
 62
1
 10
0.654300
 20
-0.688531
 11
0.603127
 21
-0.734912
 0
LINE
 8
1
 62
1
 10
0.603127
 20
-0.734912
 11
0.564141
 21
-0.763826
 0
LINE
 8
1
 62
1
 10
0.564141
 20
-0.763826
 11
0.544899
 21
-0.757926
 0
LINE
 8
1
 62
1
 10
0.544899
 20
-0.757926
 11
0.521815
 21
-0.749683
 0
LINE
 8
1
 62
1
 10
0.521815
 20
-0.749683
 11
0.500568
 21
-0.740989
 0
LINE
 8
1
 62
1
 10
0.500568
 20
-0.740989
 11
0.481147
 21
-0.731993
 0
LINE
 8
1
 62
1
 10
0.481147
 20
-0.731993
 11
0.463531
 21
-0.722840
 0
LINE
 8
1
 62
1
 10
0.463531
 20
-0.722840
 11
0.447690
 21
-0.713672
 0
LINE
 8
1
 62
1
 10
0.447690
 20
-0.713672
 11
0.433583
 21
-0.704631
 0
LINE
 8
1
 62
1
 10
0.433583
 20
-0.704631
 11
0.421162
 21
-0.695850
 0
LINE
 8
1
 62
1
 10
0.421162
 20
-0.695850
 11
0.410369
 21
-0.687462
 0
LINE
 8
1
 62
1
 10
0.410369
 20
-0.687462
 11
0.401140
 21
-0.679593
 0
LINE
 8
1
 62
1
 10
0.401140
 20
-0.679593
 11
0.393402
 21
-0.672363
 0
LINE
 8
1
 62
1
 10
0.393402
 20
-0.672363
 11
0.387072
 21
-0.665889
 0
LINE
 8
1
 62
1
 10
0.387072
 20
-0.665889
 11
0.382063
 21
-0.660278
 0
LINE
 8
1
 62
1
 10
0.382063
 20
-0.660278
 11
0.378833
 21
-0.656312
 0
LINE
 8
1
 62
1
 10
0.378833
 20
-0.656312
 11
0.378187
 21
-0.653322
 0
LINE
 8
1
 62
1
 10
0.378187
 20
-0.653322
 11
0.372059
 21
-0.632494
 0
LINE
 8
1
 62
1
 10
0.372059
 20
-0.632494
 11
0.364889
 21
-0.613657
 0
LINE
 8
1
 62
1
 10
0.364889
 20
-0.613657
 11
0.356851
 21
-0.596858
 0
LINE
 8
1
 62
1
 10
0.356851
 20
-0.596858
 11
0.348119
 21
-0.582134
 0
LINE
 8
1
 62
1
 10
0.348119
 20
-0.582134
 11
0.338868
 21
-0.569511
 0
LINE
 8
1
 62
1
 10
0.338868
 20
-0.569511
 11
0.329274
 21
-0.558999
 0
LINE
 8
1
 62
1
 10
0.329274
 20
-0.558999
 11
0.319513
 21
-0.550602
 0
LINE
 8
1
 62
1
 10
0.319513
 20
-0.550602
 11
0.309760
 21
-0.544306
 0
LINE
 8
1
 62
1
 10
0.309760
 20
-0.544306
 11
0.300190
 21
-0.540091
 0
LINE
 8
1
 62
1
 10
0.300190
 20
-0.540091
 11
0.290973
 21
-0.537922
 0
LINE
 8
1
 62
1
 10
0.290973
 20
-0.537922
 11
0.282278
 21
-0.537754
 0
LINE
 8
1
 62
1
 10
0.282278
 20
-0.537754
 11
0.274270
 21
-0.539529
 0
LINE
 8
1
 62
1
 10
0.274270
 20
-0.539529
 11
0.243690
 21
-0.552605
 0
LINE
 8
1
 62
1
 10
0.243690
 20
-0.552605
 11
0.206361
 21
-0.566972
 0
LINE
 8
1
 62
1
 10
0.206361
 20
-0.566972
 11
0.168531
 21
-0.579961
 0
LINE
 8
1
 62
1
 10
0.168531
 20
-0.579961
 11
0.136700
 21
-0.589600
 0
LINE
 8
1
 62
1
 10
0.136700
 20
-0.589600
 11
0.129424
 21
-0.593388
 0
LINE
 8
1
 62
1
 10
0.129424
 20
-0.593388
 11
0.122872
 21
-0.599106
 0
LINE
 8
1
 62
1
 10
0.122872
 20
-0.599106
 11
0.117205
 21
-0.606692
 0
LINE
 8
1
 62
1
 10
0.117205
 20
-0.606692
 11
0.112583
 21
-0.616073
 0
LINE
 8
1
 62
1
 10
0.112583
 20
-0.616073
 11
0.109159
 21
-0.627164
 0
LINE
 8
1
 62
1
 10
0.109159
 20
-0.627164
 11
0.107080
 21
-0.639871
 0
LINE
 8
1
 62
1
 10
0.107080
 20
-0.639871
 11
0.106487
 21
-0.654091
 0
LINE
 8
1
 62
1
 10
0.106487
 20
-0.654091
 11
0.107514
 21
-0.669708
 0
LINE
 8
1
 62
1
 10
0.107514
 20
-0.669708
 11
0.110289
 21
-0.686599
 0
LINE
 8
1
 62
1
 10
0.110289
 20
-0.686599
 11
0.114930
 21
-0.704635
 0
LINE
 8
1
 62
1
 10
0.114930
 20
-0.704635
 11
0.121546
 21
-0.723673
 0
LINE
 8
1
 62
1
 10
0.121546
 20
-0.723673
 11
0.130239
 21
-0.743568
 0
LINE
 8
1
 62
1
 10
0.130239
 20
-0.743568
 11
0.131666
 21
-0.746273
 0
LINE
 8
1
 62
1
 10
0.131666
 20
-0.746273
 11
0.131741
 21
-0.751388
 0
LINE
 8
1
 62
1
 10
0.131741
 20
-0.751388
 11
0.131511
 21
-0.758905
 0
LINE
 8
1
 62
1
 10
0.131511
 20
-0.758905
 11
0.130824
 21
-0.767934
 0
LINE
 8
1
 62
1
 10
0.130824
 20
-0.767934
 11
0.129543
 21
-0.778446
 0
LINE
 8
1
 62
1
 10
0.129543
 20
-0.778446
 11
0.127531
 21
-0.790407
 0
LINE
 8
1
 62
1
 10
0.127531
 20
-0.790407
 11
0.124655
 21
-0.803770
 0
LINE
 8
1
 62
1
 10
0.124655
 20
-0.803770
 11
0.120784
 21
-0.818480
 0
LINE
 8
1
 62
1
 10
0.120784
 20
-0.818480
 11
0.115790
 21
-0.834474
 0
LINE
 8
1
 62
1
 10
0.115790
 20
-0.834474
 11
0.109547
 21
-0.851680
 0
LINE
 8
1
 62
1
 10
0.109547
 20
-0.851680
 11
0.101936
 21
-0.870015
 0
LINE
 8
1
 62
1
 10
0.101936
 20
-0.870015
 11
0.092841
 21
-0.889389
 0
LINE
 8
1
 62
1
 10
0.092841
 20
-0.889389
 11
0.082154
 21
-0.909706
 0
LINE
 8
1
 62
1
 10
0.082154
 20
-0.909706
 11
0.069769
 21
-0.930859
 0
LINE
 8
1
 62
1
 10
0.069769
 20
-0.930859
 11
0.058769
 21
-0.947827
 0
LINE
 8
1
 62
1
 10
0.058769
 20
-0.947827
 11
0.000000
 21
-0.950714
 0
LINE
 8
1
 62
1
 10
0.000000
 20
-0.950714
 11
-0.058769
 21
-0.947827
 0
LINE
 8
1
 62
1
 10
-0.058769
 20
-0.947827
 11
-0.069769
 21
-0.930859
 0
LINE
 8
1
 62
1
 10
-0.069769
 20
-0.930859
 11
-0.082154
 21
-0.909706
 0
LINE
 8
1
 62
1
 10
-0.082154
 20
-0.909706
 11
-0.092841
 21
-0.889389
 0
LINE
 8
1
 62
1
 10
-0.092841
 20
-0.889389
 11
-0.101936
 21
-0.870015
 0
LINE
 8
1
 62
1
 10
-0.101936
 20
-0.870015
 11
-0.109547
 21
-0.851680
 0
LINE
 8
1
 62
1
 10
-0.109547
 20
-0.851680
 11
-0.115790
 21
-0.834474
 0
LINE
 8
1
 62
1
 10
-0.115790
 20
-0.834474
 11
-0.120784
 21
-0.818480
 0
LINE
 8
1
 62
1
 10
-0.120784
 20
-0.818480
 11
-0.124655
 21
-0.803770
 0
LINE
 8
1
 62
1
 10
-0.124655
 20
-0.803770
 11
-0.127531
 21
-0.790407
 0
LINE
 8
1
 62
1
 10
-0.127531
 20
-0.790407
 11
-0.129543
 21
-0.778446
 0
LINE
 8
1
 62
1
 10
-0.129543
 20
-0.778446
 11
-0.130824
 21
-0.767934
 0
LINE
 8
1
 62
1
 10
-0.130824
 20
-0.767934
 11
-0.131511
 21
-0.758905
 0
LINE
 8
1
 62
1
 10
-0.131511
 20
-0.758905
 11
-0.131741
 21
-0.751388
 0
LINE
 8
1
 62
1
 10
-0.131741
 20
-0.751388
 11
-0.131666
 21
-0.746273
 0
LINE
 8
1
 62
1
 10
-0.131666
 20
-0.746273
 11
-0.130239
 21
-0.743568
 0
LINE
 8
1
 62
1
 10
-0.130239
 20
-0.743568
 11
-0.121546
 21
-0.723673
 0
LINE
 8
1
 62
1
 10
-0.121546
 20
-0.723673
 11
-0.114930
 21
-0.704635
 0
LINE
 8
1
 62
1
 10
-0.114930
 20
-0.704635
 11
-0.110289
 21
-0.686599
 0
LINE
 8
1
 62
1
 10
-0.110289
 20
-0.686599
 11
-0.107514
 21
-0.669708
 0
LINE
 8
1
 62
1
 10
-0.107514
 20
-0.669708
 11
-0.106487
 21
-0.654091
 0
LINE
 8
1
 62
1
 10
-0.106487
 20
-0.654091
 11
-0.107080
 21
-0.639871
 0
LINE
 8
1
 62
1
 10
-0.107080
 20
-0.639871
 11
-0.109159
 21
-0.627164
 0
LINE
 8
1
 62
1
 10
-0.109159
 20
-0.627164
 11
-0.112583
 21
-0.616073
 0
LINE
 8
1
 62
1
 10
-0.112583
 20
-0.616073
 11
-0.117205
 21
-0.606692
 0
LINE
 8
1
 62
1
 10
-0.117205
 20
-0.606692
 11
-0.122872
 21
-0.599106
 0
LINE
 8
1
 62
1
 10
-0.122872
 20
-0.599106
 11
-0.129424
 21
-0.593388
 0
LINE
 8
1
 62
1
 10
-0.129424
 20
-0.593388
 11
-0.136700
 21
-0.589600
 0
LINE
 8
1
 62
1
 10
-0.136700
 20
-0.589600
 11
-0.168531
 21
-0.579961
 0
LINE
 8
1
 62
1
 10
-0.168531
 20
-0.579961
 11
-0.206361
 21
-0.566972
 0
LINE
 8
1
 62
1
 10
-0.206361
 20
-0.566972
 11
-0.243690
 21
-0.552605
 0
LINE
 8
1
 62
1
 10
-0.243690
 20
-0.552605
 11
-0.274270
 21
-0.539529
 0
LINE
 8
1
 62
1
 10
-0.274270
 20
-0.539529
 11
-0.282278
 21
-0.537754
 0
LINE
 8
1
 62
1
 10
-0.282278
 20
-0.537754
 11
-0.290973
 21
-0.537922
 0
LINE
 8
1
 62
1
 10
-0.290973
 20
-0.537922
 11
-0.300190
 21
-0.540091
 0
LINE
 8
1
 62
1
 10
-0.300190
 20
-0.540091
 11
-0.309760
 21
-0.544306
 0
LINE
 8
1
 62
1
 10
-0.309760
 20
-0.544306
 11
-0.319513
 21
-0.550602
 0
LINE
 8
1
 62
1
 10
-0.319513
 20
-0.550602
 11
-0.329274
 21
-0.558999
 0
LINE
 8
1
 62
1
 10
-0.329274
 20
-0.558999
 11
-0.338868
 21
-0.569511
 0
LINE
 8
1
 62
1
 10
-0.338868
 20
-0.569511
 11
-0.348119
 21
-0.582134
 0
LINE
 8
1
 62
1
 10
-0.348119
 20
-0.582134
 11
-0.356851
 21
-0.596858
 0
LINE
 8
1
 62
1
 10
-0.356851
 20
-0.596858
 11
-0.364889
 21
-0.613657
 0
LINE
 8
1
 62
1
 10
-0.364889
 20
-0.613657
 11
-0.372059
 21
-0.632494
 0
LINE
 8
1
 62
1
 10
-0.372059
 20
-0.632494
 11
-0.378187
 21
-0.653322
 0
LINE
 8
1
 62
1
 10
-0.378187
 20
-0.653322
 11
-0.378833
 21
-0.656312
 0
LINE
 8
1
 62
1
 10
-0.378833
 20
-0.656312
 11
-0.382063
 21
-0.660278
 0
LINE
 8
1
 62
1
 10
-0.382063
 20
-0.660278
 11
-0.387072
 21
-0.665889
 0
LINE
 8
1
 62
1
 10
-0.387072
 20
-0.665889
 11
-0.393402
 21
-0.672363
 0
LINE
 8
1
 62
1
 10
-0.393402
 20
-0.672363
 11
-0.401140
 21
-0.679593
 0
LINE
 8
1
 62
1
 10
-0.401140
 20
-0.679593
 11
-0.410369
 21
-0.687462
 0
LINE
 8
1
 62
1
 10
-0.410369
 20
-0.687462
 11
-0.421162
 21
-0.695850
 0
LINE
 8
1
 62
1
 10
-0.421162
 20
-0.695850
 11
-0.433583
 21
-0.704631
 0
LINE
 8
1
 62
1
 10
-0.433583
 20
-0.704631
 11
-0.447690
 21
-0.713672
 0
LINE
 8
1
 62
1
 10
-0.447690
 20
-0.713672
 11
-0.463531
 21
-0.722840
 0
LINE
 8
1
 62
1
 10
-0.463531
 20
-0.722840
 11
-0.481147
 21
-0.731993
 0
LINE
 8
1
 62
1
 10
-0.481147
 20
-0.731993
 11
-0.500568
 21
-0.740989
 0
LINE
 8
1
 62
1
 10
-0.500568
 20
-0.740989
 11
-0.521815
 21
-0.749683
 0
LINE
 8
1
 62
1
 10
-0.521815
 20
-0.749683
 11
-0.544899
 21
-0.757926
 0
LINE
 8
1
 62
1
 10
-0.544899
 20
-0.757926
 11
-0.564141
 21
-0.763826
 0
LINE
 8
1
 62
1
 10
-0.564141
 20
-0.763826
 11
-0.603127
 21
-0.734912
 0
LINE
 8
1
 62
1
 10
-0.603127
 20
-0.734912
 11
-0.654300
 21
-0.688531
 0
LINE
 8
1
 62
1
 10
-0.654300
 20
-0.688531
 11
-0.651790
 21
-0.668233
 0
LINE
 8
1
 62
1
 10
-0.651790
 20
-0.668233
 11
-0.647681
 21
-0.644068
 0
LINE
 8
1
 62
1
 10
-0.647681
 20
-0.644068
 11
-0.642809
 21
-0.621635
 0
LINE
 8
1
 62
1
 10
-0.642809
 20
-0.621635
 11
-0.637322
 21
-0.600947
 0
LINE
 8
1
 62
1
 10
-0.637322
 20
-0.600947
 11
-0.631367
 21
-0.582009
 0
LINE
 8
1
 62
1
 10
-0.631367
 20
-0.582009
 11
-0.625090
 21
-0.564816
 0
LINE
 8
1
 62
1
 10
-0.625090
 20
-0.564816
 11
-0.618635
 21
-0.549353
 0
LINE
 8
1
 62
1
 10
-0.618635
 20
-0.549353
 11
-0.612145
 21
-0.535596
 0
LINE
 8
1
 62
1
 10
-0.612145
 20
-0.535596
 11
-0.605758
 21
-0.523511
 0
LINE
 8
1
 62
1
 10
-0.605758
 20
-0.523511
 11
-0.599611
 21
-0.513056
 0
LINE
 8
1
 62
1
 10
-0.599611
 20
-0.513056
 11
-0.593835
 21
-0.504180
 0
LINE
 8
1
 62
1
 10
-0.593835
 20
-0.504180
 11
-0.588558
 21
-0.496822
 0
LINE
 8
1
 62
1
 10
-0.588558
 20
-0.496822
 11
-0.583902
 21
-0.490915
 0
LINE
 8
1
 62
1
 10
-0.583902
 20
-0.490915
 11
-0.580557
 21
-0.487045
 0
LINE
 8
1
 62
1
 10
-0.580557
 20
-0.487045
 11
-0.577725
 21
-0.485890
 0
LINE
 8
1
 62
1
 10
-0.577725
 20
-0.485890
 11
-0.558278
 21
-0.476238
 0
LINE
 8
1
 62
1
 10
-0.558278
 20
-0.476238
 11
-0.540972
 21
-0.465906
 0
LINE
 8
1
 62
1
 10
-0.540972
 20
-0.465906
 11
-0.525824
 21
-0.455073
 0
LINE
 8
1
 62
1
 10
-0.525824
 20
-0.455073
 11
-0.512840
 21
-0.443917
 0
LINE
 8
1
 62
1
 10
-0.512840
 20
-0.443917
 11
-0.502015
 21
-0.432614
 0
LINE
 8
1
 62
1
 10
-0.502015
 20
-0.432614
 11
-0.493329
 21
-0.421340
 0
LINE
 8
1
 62
1
 10
-0.493329
 20
-0.421340
 11
-0.486754
 21
-0.410270
 0
LINE
 8
1
 62
1
 10
-0.486754
 20
-0.410270
 11
-0.482248
 21
-0.399572
 0
LINE
 8
1
 62
1
 10
-0.482248
 20
-0.399572
 11
-0.479759
 21
-0.389415
 0
LINE
 8
1
 62
1
 10
-0.479759
 20
-0.389415
 11
-0.479223
 21
-0.379961
 0
LINE
 8
1
 62
1
 10
-0.479223
 20
-0.379961
 11
-0.480567
 21
-0.371369
 0
LINE
 8
1
 62
1
 10
-0.480567
 20
-0.371369
 11
-0.483706
 21
-0.363791
 0
LINE
 8
1
 62
1
 10
-0.483706
 20
-0.363791
 11
-0.501894
 21
-0.335946
 0
LINE
 8
1
 62
1
 10
-0.501894
 20
-0.335946
 11
-0.522525
 21
-0.301680
 0
LINE
 8
1
 62
1
 10
-0.522525
 20
-0.301680
 11
-0.541885
 21
-0.266680
 0
LINE
 8
1
 62
1
 10
-0.541885
 20
-0.266680
 11
-0.556905
 21
-0.237006
 0
LINE
 8
1
 62
1
 10
-0.556905
 20
-0.237006
 11
-0.561899
 21
-0.230498
 0
LINE
 8
1
 62
1
 10
-0.561899
 20
-0.230498
 11
-0.568668
 21
-0.225039
 0
LINE
 8
1
 62
1
 10
-0.568668
 20
-0.225039
 11
-0.577123
 21
-0.220776
 0
LINE
 8
1
 62
1
 10
-0.577123
 20
-0.220776
 11
-0.587163
 21
-0.217853
 0
LINE
 8
1
 62
1
 10
-0.587163
 20
-0.217853
 11
-0.598681
 21
-0.216406
 0
LINE
 8
1
 62
1
 10
-0.598681
 20
-0.216406
 11
-0.611556
 21
-0.216565
 0
LINE
 8
1
 62
1
 10
-0.611556
 20
-0.216565
 11
-0.625662
 21
-0.218450
 0
LINE
 8
1
 62
1
 10
-0.625662
 20
-0.218450
 11
-0.640864
 21
-0.222174
 0
LINE
 8
1
 62
1
 10
-0.640864
 20
-0.222174
 11
-0.657017
 21
-0.227840
 0
LINE
 8
1
 62
1
 10
-0.657017
 20
-0.227840
 11
-0.673972
 21
-0.235542
 0
LINE
 8
1
 62
1
 10
-0.673972
 20
-0.235542
 11
-0.691573
 21
-0.245364
 0
LINE
 8
1
 62
1
 10
-0.691573
 20
-0.245364
 11
-0.709656
 21
-0.257380
 0
LINE
 8
1
 62
1
 10
-0.709656
 20
-0.257380
 11
-0.712072
 21
-0.259255
 0
LINE
 8
1
 62
1
 10
-0.712072
 20
-0.259255
 11
-0.717096
 21
-0.260217
 0
LINE
 8
1
 62
1
 10
-0.717096
 20
-0.260217
 11
-0.724539
 21
-0.261295
 0
LINE
 8
1
 62
1
 10
-0.724539
 20
-0.261295
 11
-0.733550
 21
-0.262187
 0
LINE
 8
1
 62
1
 10
-0.733550
 20
-0.262187
 11
-0.744125
 21
-0.262750
 0
LINE
 8
1
 62
1
 10
-0.744125
 20
-0.262750
 11
-0.756253
 21
-0.262846
 0
LINE
 8
1
 62
1
 10
-0.756253
 20
-0.262846
 11
-0.769912
 21
-0.262335
 0
LINE
 8
1
 62
1
 10
-0.769912
 20
-0.262335
 11
-0.785071
 21
-0.261077
 0
LINE
 8
1
 62
1
 10
-0.785071
 20
-0.261077
 11
-0.801690
 21
-0.258935
 0
LINE
 8
1
 62
1
 10
-0.801690
 20
-0.258935
 11
-0.819718
 21
-0.255775
 0
LINE
 8
1
 62
1
 10
-0.819718
 20
-0.255775
 11
-0.839096
 21
-0.251463
 0
LINE
 8
1
 62
1
 10
-0.839096
 20
-0.251463
 11
-0.859756
 21
-0.245872
 0
LINE
 8
1
 62
1
 10
-0.859756
 20
-0.245872
 11
-0.881620
 21
-0.238874
 0
LINE
 8
1
 62
1
 10
-0.881620
 20
-0.238874
 11
-0.904602
 21
-0.230351
 0
LINE
 8
1
 62
1
 10
-0.904602
 20
-0.230351
 11
-0.923176
 21
-0.222485
 0
LINE
 8
1
 62
1
 10
-0.923176
 20
-0.222485
 11
-0.932447
 21
-0.185475
 0
LINE
 8
1
 62
1
 10
-0.932447
 20
-0.185475
 11
-0.944070
 21
-0.107119
 0
LINE
 8
1
 62
1
 10
-0.944070
 20
-0.107119
 11
-0.928832
 21
-0.092933
 0
LINE
 8
1
 62
1
 10
-0.928832
 20
-0.092933
 11
-0.910152
 21
-0.077063
 0
LINE
 8
1
 62
1
 10
-0.910152
 20
-0.077063
 11
-0.891999
 21
-0.063010
 0
LINE
 8
1
 62
1
 10
-0.891999
 20
-0.063010
 11
-0.874498
 21
-0.050689
 0
LINE
 8
1
 62
1
 10
-0.874498
 20
-0.050689
 11
-0.857763
 21
-0.040010
 0
LINE
 8
1
 62
1
 10
-0.857763
 20
-0.040010
 11
-0.841903
 21
-0.030875
 0
LINE
 8
1
 62
1
 10
-0.841903
 20
-0.030875
 11
-0.827019
 21
-0.023178
 0
LINE
 8
1
 62
1
 10
-0.827019
 20
-0.023178
 11
-0.813205
 21
-0.016811
 0
LINE
 8
1
 62
1
 10
-0.813205
 20
-0.016811
 11
-0.800544
 21
-0.011659
 0
LINE
 8
1
 62
1
 10
-0.800544
 20
-0.011659
 11
-0.789115
 21
-0.007601
 0
LINE
 8
1
 62
1
 10
-0.789115
 20
-0.007601
 11
-0.778985
 21
-0.004514
 0
LINE
 8
1
 62
1
 10
-0.778985
 20
-0.004514
 11
-0.770213
 21
-0.002270
 0
LINE
 8
1
 62
1
 10
-0.770213
 20
-0.002270
 11
-0.762849
 21
-0.000737
 0
LINE
 8
1
 62
1
 10
-0.762849
 20
-0.000737
 11
-0.757799
 21
0.000077
 0
LINE
 8
1
 62
1
 10
-0.757799
 20
0.000077
 11
-0.754887
 21
-0.000858
 0
LINE
 8
1
 62
1
 10
-0.754887
 20
-0.000858
 11
-0.733785
 21
-0.005965
 0
LINE
 8
1
 62
1
 10
-0.733785
 20
-0.005965
 11
-0.713887
 21
-0.009175
 0
LINE
 8
1
 62
1
 10
-0.713887
 20
-0.009175
 11
-0.695320
 21
-0.010613
 0
LINE
 8
1
 62
1
 10
-0.695320
 20
-0.010613
 11
-0.678203
 21
-0.010413
 0
LINE
 8
1
 62
1
 10
-0.678203
 20
-0.010413
 11
-0.662645
 21
-0.008713
 0
LINE
 8
1
 62
1
 10
-0.662645
 20
-0.008713
 11
-0.648744
 21
-0.005660
 0
LINE
 8
1
 62
1
 10
-0.648744
 20
-0.005660
 11
-0.636591
 21
-0.001405
 0
LINE
 8
1
 62
1
 10
-0.636591
 20
-0.001405
 11
-0.626263
 21
0.003893
 0
LINE
 8
1
 62
1
 10
-0.626263
 20
0.003893
 11
-0.617828
 21
0.010074
 0
LINE
 8
1
 62
1
 10
-0.617828
 20
0.010074
 11
-0.611341
 21
0.016971
 0
LINE
 8
1
 62
1
 10
-0.611341
 20
0.016971
 11
-0.606847
 21
0.024417
 0
LINE
 8
1
 62
1
 10
-0.606847
 20
0.024417
 11
-0.604381
 21
0.032240
 0
LINE
 8
1
 62
1
 10
-0.604381
 20
0.032240
 11
-0.600415
 21
0.065261
 0
LINE
 8
1
 62
1
 10
-0.600415
 20
0.065261
 11
-0.594193
 21
0.104772
 0
LINE
 8
1
 62
1
 10
-0.594193
 20
0.104772
 11
-0.586526
 21
0.144029
 0
LINE
 8
1
 62
1
 10
-0.586526
 20
0.144029
 11
-0.578959
 21
0.176415
 0
LINE
 8
1
 62
1
 10
-0.578959
 20
0.176415
 11
-0.578601
 21
0.184609
 0
LINE
 8
1
 62
1
 10
-0.578601
 20
0.184609
 11
-0.580277
 21
0.193143
 0
LINE
 8
1
 62
1
 10
-0.580277
 20
0.193143
 11
-0.584013
 21
0.201843
 0
LINE
 8
1
 62
1
 10
-0.584013
 20
0.201843
 11
-0.589826
 21
0.210536
 0
LINE
 8
1
 62
1
 10
-0.589826
 20
0.210536
 11
-0.597719
 21
0.219048
 0
LINE
 8
1
 62
1
 10
-0.597719
 20
0.219048
 11
-0.607685
 21
0.227202
 0
LINE
 8
1
 62
1
 10
-0.607685
 20
0.227202
 11
-0.619702
 21
0.234825
 0
LINE
 8
1
 62
1
 10
-0.619702
 20
0.234825
 11
-0.633741
 21
0.241744
 0
LINE
 8
1
 62
1
 10
-0.633741
 20
0.241744
 11
-0.649757
 21
0.247787
 0
LINE
 8
1
 62
1
 10
-0.649757
 20
0.247787
 11
-0.667696
 21
0.252785
 0
LINE
 8
1
 62
1
 10
-0.667696
 20
0.252785
 11
-0.687492
 21
0.256575
 0
LINE
 8
1
 62
1
 10
-0.687492
 20
0.256575
 11
-0.709068
 21
0.258993
 0
LINE
 8
1
 62
1
 10
-0.709068
 20
0.258993
 11
-0.712125
 21
0.259110
 0
LINE
 8
1
 62
1
 10
-0.712125
 20
0.259110
 11
-0.716591
 21
0.261603
 0
LINE
 8
1
 62
1
 10
-0.716591
 20
0.261603
 11
-0.722987
 21
0.265561
 0
LINE
 8
1
 62
1
 10
-0.722987
 20
0.265561
 11
-0.730462
 21
0.270670
 0
LINE
 8
1
 62
1
 10
-0.730462
 20
0.270670
 11
-0.738926
 21
0.277036
 0
LINE
 8
1
 62
1
 10
-0.738926
 20
0.277036
 11
-0.748278
 21
0.284758
 0
LINE
 8
1
 62
1
 10
-0.748278
 20
0.284758
 11
-0.758413
 21
0.293930
 0
LINE
 8
1
 62
1
 10
-0.758413
 20
0.293930
 11
-0.769217
 21
0.304638
 0
LINE
 8
1
 62
1
 10
-0.769217
 20
0.304638
 11
-0.780571
 21
0.316960
 0
LINE
 8
1
 62
1
 10
-0.780571
 20
0.316960
 11
-0.792349
 21
0.330970
 0
LINE
 8
1
 62
1
 10
-0.792349
 20
0.330970
 11
-0.804423
 21
0.346728
 0
LINE
 8
1
 62
1
 10
-0.804423
 20
0.346728
 11
-0.816654
 21
0.364292
 0
LINE
 8
1
 62
1
 10
-0.816654
 20
0.364292
 11
-0.828905
 21
0.383706
 0
LINE
 8
1
 62
1
 10
-0.828905
 20
0.383706
 11
-0.841032
 21
0.405008
 0
LINE
 8
1
 62
1
 10
-0.841032
 20
0.405008
 11
-0.850290
 21
0.423141
 0
LINE
 8
1
 62
1
 10
-0.850290
 20
0.423141
 11
-0.838455
 21
0.448164
 0
LINE
 8
1
 62
1
 10
-0.838455
 20
0.448164
 11
-0.792549
 21
0.524753
 0
LINE
 8
1
 62
1
 10
-0.792549
 20
0.524753
 11
-0.771263
 21
0.525851
 0
LINE
 8
1
 62
1
 10
-0.771263
 20
0.525851
 11
-0.746752
 21
0.526000
 0
LINE
 8
1
 62
1
 10
-0.746752
 20
0.526000
 11
-0.723813
 21
0.525098
 0
LINE
 8
1
 62
1
 10
-0.723813
 20
0.525098
 11
-0.702487
 21
0.523286
 0
LINE
 8
1
 62
1
 10
-0.702487
 20
0.523286
 11
-0.682803
 21
0.520710
 0
LINE
 8
1
 62
1
 10
-0.682803
 20
0.520710
 11
-0.664781
 21
0.517514
 0
LINE
 8
1
 62
1
 10
-0.664781
 20
0.517514
 11
-0.648432
 21
0.513842
 0
LINE
 8
1
 62
1
 10
-0.648432
 20
0.513842
 11
-0.633757
 21
0.509840
 0
LINE
 8
1
 62
1
 10
-0.633757
 20
0.509840
 11
-0.620747
 21
0.505649
 0
LINE
 8
1
 62
1
 10
-0.620747
 20
0.505649
 11
-0.609383
 21
0.501410
 0
LINE
 8
1
 62
1
 10
-0.609383
 20
0.501410
 11
-0.599638
 21
0.497264
 0
LINE
 8
1
 62
1
 10
-0.599638
 20
0.497264
 11
-0.591476
 21
0.493344
 0
LINE
 8
1
 62
1
 10
-0.591476
 20
0.493344
 11
-0.584850
 21
0.489785
 0
LINE
 8
1
 62
1
 10
-0.584850
 20
0.489785
 11
-0.580459
 21
0.487163
 0
LINE
 8
1
 62
1
 10
-0.580459
 20
0.487163
 11
-0.578829
 21
0.484575
 0
LINE
 8
1
 62
1
 10
-0.578829
 20
0.484575
 11
-0.565946
 21
0.467099
 0
LINE
 8
1
 62
1
 10
-0.565946
 20
0.467099
 11
-0.552767
 21
0.451849
 0
LINE
 8
1
 62
1
 10
-0.552767
 20
0.451849
 11
-0.539468
 21
0.438813
 0
LINE
 8
1
 62
1
 10
-0.539468
 20
0.438813
 11
-0.526227
 21
0.427964
 0
LINE
 8
1
 62
1
 10
-0.526227
 20
0.427964
 11
-0.513216
 21
0.419265
 0
LINE
 8
1
 62
1
 10
-0.513216
 20
0.419265
 11
-0.500605
 21
0.412669
 0
LINE
 8
1
 62
1
 10
-0.500605
 20
0.412669
 11
-0.488561
 21
0.408116
 0
LINE
 8
1
 62
1
 10
-0.488561
 20
0.408116
 11
-0.477243
 21
0.405536
 0
LINE
 8
1
 62
1
 10
-0.477243
 20
0.405536
 11
-0.466808
 21
0.404849
 0
LINE
 8
1
 62
1
 10
-0.466808
 20
0.404849
 11
-0.457405
 21
0.405963
 0
LINE
 8
1
 62
1
 10
-0.457405
 20
0.405963
 11
-0.449177
 21
0.408778
 0
LINE
 8
1
 62
1
 10
-0.449177
 20
0.408778
 11
-0.442259
 21
0.413186
 0
LINE
 8
1
 62
1
 10
-0.442259
 20
0.413186
 11
-0.417996
 21
0.435932
 0
LINE
 8
1
 62
1
 10
-0.417996
 20
0.435932
 11
-0.387832
 21
0.462200
 0
LINE
 8
1
 62
1
 10
-0.387832
 20
0.462200
 11
-0.356726
 21
0.487344
 0
LINE
 8
1
 62
1
 10
-0.356726
 20
0.487344
 11
-0.330111
 21
0.507289
 0
LINE
 8
1
 62
1
 10
-0.330111
 20
0.507289
 11
-0.324569
 21
0.513337
 0
LINE
 8
1
 62
1
 10
-0.324569
 20
0.513337
 11
-0.320368
 21
0.520951
 0
LINE
 8
1
 62
1
 10
-0.320368
 20
0.520951
 11
-0.317638
 21
0.530018
 0
LINE
 8
1
 62
1
 10
-0.317638
 20
0.530018
 11
-0.316503
 21
0.540413
 0
LINE
 8
1
 62
1
 10
-0.316503
 20
0.540413
 11
-0.317079
 21
0.552007
 0
LINE
 8
1
 62
1
 10
-0.317079
 20
0.552007
 11
-0.319471
 21
0.564659
 0
LINE
 8
1
 62
1
 10
-0.319471
 20
0.564659
 11
-0.323777
 21
0.578223
 0
LINE
 8
1
 62
1
 10
-0.323777
 20
0.578223
 11
-0.330084
 21
0.592547
 0
LINE
 8
1
 62
1
 10
-0.330084
 20
0.592547
 11
-0.338469
 21
0.607471
 0
LINE
 8
1
 62
1
 10
-0.338469
 20
0.607471
 11
-0.348998
 21
0.622832
 0
LINE
 8
1
 62
1
 10
-0.348998
 20
0.622832
 11
-0.361727
 21
0.638459
 0
LINE
 8
1
 62
1
 10
-0.361727
 20
0.638459
 11
-0.376700
 21
0.654181
 0
LINE
 8
1
 62
1
 10
-0.376700
 20
0.654181
 11
-0.378966
 21
0.656235
 0
LINE
 8
1
 62
1
 10
-0.378966
 20
0.656235
 11
-0.380786
 21
0.661015
 0
LINE
 8
1
 62
1
 10
-0.380786
 20
0.661015
 11
-0.383141
 21
0.668158
 0
LINE
 8
1
 62
1
 10
-0.383141
 20
0.668158
 11
-0.385583
 21
0.676878
 0
LINE
 8
1
 62
1
 10
-0.385583
 20
0.676878
 11
-0.387975
 21
0.687194
 0
LINE
 8
1
 62
1
 10
-0.387975
 20
0.687194
 11
-0.390175
 21
0.699121
 0
LINE
 8
1
 62
1
 10
-0.390175
 20
0.699121
 11
-0.392043
 21
0.712662
 0
LINE
 8
1
 62
1
 10
-0.392043
 20
0.712662
 11
-0.393437
 21
0.727809
 0
LINE
 8
1
 62
1
 10
-0.393437
 20
0.727809
 11
-0.394214
 21
0.744547
 0
LINE
 8
1
 62
1
 10
-0.394214
 20
0.744547
 11
-0.394232
 21
0.762850
 0
LINE
 8
1
 62
1
 10
-0.394232
 20
0.762850
 11
-0.393351
 21
0.782682
 0
LINE
 8
1
 62
1
 10
-0.393351
 20
0.782682
 11
-0.391431
 21
0.803999
 0
LINE
 8
1
 62
1
 10
-0.391431
 20
0.803999
 11
-0.388337
 21
0.826746
 0
LINE
 8
1
 62
1
 10
-0.388337
 20
0.826746
 11
-0.383934
 21
0.850859
 0
LINE
 8
1
 62
1
 10
-0.383934
 20
0.850859
 11
-0.379295
 21
0.871028
 0
LINE
 8
1
 62
1
 10
-0.379295
 20
0.871028
 11
-0.363823
 21
0.878345
 0
LINE
 8
1
 62
1
 10
-0.363823
 20
0.878345
 11
-0.275978
 21
0.909777
 0
LINE
 8
1
 62
1
 10
-0.275978
 20
0.909777
 11
-0.269717
 21
0.911345
 0
LINE
 8
1
 62
1
 10
-0.269717
 20
0.911345
 11
-0.252811
 21
0.898583
 0
LINE
 8
1
 62
1
 10
-0.252811
 20
0.898583
 11
-0.233939
 21
0.882942
 0
LINE
 8
1
 62
1
 10
-0.233939
 20
0.882942
 11
-0.216947
 21
0.867506
 0
LINE
 8
1
 62
1
 10
-0.216947
 20
0.867506
 11
-0.201774
 21
0.852410
 0
LINE
 8
1
 62
1
 10
-0.201774
 20
0.852410
 11
-0.188351
 21
0.837784
 0
LINE
 8
1
 62
1
 10
-0.188351
 20
0.837784
 11
-0.176600
 21
0.823752
 0
LINE
 8
1
 62
1
 10
-0.176600
 20
0.823752
 11
-0.166436
 21
0.810430
 0
LINE
 8
1
 62
1
 10
-0.166436
 20
0.810430
 11
-0.157768
 21
0.797931
 0
LINE
 8
1
 62
1
 10
-0.157768
 20
0.797931
 11
-0.150495
 21
0.786358
 0
LINE
 8
1
 62
1
 10
-0.150495
 20
0.786358
 11
-0.144514
 21
0.775807
 0
LINE
 8
1
 62
1
 10
-0.144514
 20
0.775807
 11
-0.139715
 21
0.766366
 0
LINE
 8
1
 62
1
 10
-0.139715
 20
0.766366
 11
-0.135981
 21
0.758117
 0
LINE
 8
1
 62
1
 10
-0.135981
 20
0.758117
 11
-0.133193
 21
0.751132
 0
LINE
 8
1
 62
1
 10
-0.133193
 20
0.751132
 11
-0.131515
 21
0.746300
 0
LINE
 8
1
 62
1
 10
-0.131515
 20
0.746300
 11
-0.131930
 21
0.743270
 0
LINE
 8
1
 62
1
 10
-0.131930
 20
0.743270
 11
-0.133295
 21
0.721602
 0
LINE
 8
1
 62
1
 10
-0.133295
 20
0.721602
 11
-0.133001
 21
0.701448
 0
LINE
 8
1
 62
1
 10
-0.133001
 20
0.701448
 11
-0.131193
 21
0.682913
 0
LINE
 8
1
 62
1
 10
-0.131193
 20
0.682913
 11
-0.128023
 21
0.666091
 0
LINE
 8
1
 62
1
 10
-0.128023
 20
0.666091
 11
-0.123647
 21
0.651065
 0
LINE
 8
1
 62
1
 10
-0.123647
 20
0.651065
 11
-0.118227
 21
0.637906
 0
LINE
 8
1
 62
1
 10
-0.118227
 20
0.637906
 11
-0.111927
 21
0.626676
 0
LINE
 8
1
 62
1
 10
-0.111927
 20
0.626676
 11
-0.104916
 21
0.617425
 0
LINE
 8
1
 62
1
 10
-0.104916
 20
0.617425
 11
-0.097364
 21
0.610191
 0
LINE
 8
1
 62
1
 10
-0.097364
 20
0.610191
 11
-0.089445
 21
0.605000
 0
LINE
 8
1
 62
1
 10
-0.089445
 20
0.605000
 11
-0.081332
 21
0.601868
 0
LINE
 8
1
 62
1
 10
-0.081332
 20
0.601868
 11
-0.073199
 21
0.600797
 0
LINE
 8
1
 62
1
 10
-0.073199
 20
0.600797
 11
-0.039991
 21
0.602626
 0
LINE
 8
1
 62
1
 10
-0.039991
 20
0.602626
 11
0.000000
 21
0.603359
 0
LINE
 8
1
 62
1
 10
0.000000
 20
0.603359
 11
0.039991
 21
0.602626
 0
LINE
 8
1
 62
1
 10
0.039991
 20
0.602626
 11
0.073199
 21
0.600797
 0
LINE
 8
1
 62
1
 10
0.073199
 20
0.600797
 11
0.081332
 21
0.601868
 0
LINE
 8
1
 62
1
 10
0.081332
 20
0.601868
 11
0.089445
 21
0.605000
 0
LINE
 8
1
 62
1
 10
0.089445
 20
0.605000
 11
0.097364
 21
0.610191
 0
LINE
 8
1
 62
1
 10
0.097364
 20
0.610191
 11
0.104916
 21
0.617425
 0
LINE
 8
1
 62
1
 10
0.104916
 20
0.617425
 11
0.111927
 21
0.626676
 0
LINE
 8
1
 62
1
 10
0.111927
 20
0.626676
 11
0.118227
 21
0.637906
 0
LINE
 8
1
 62
1
 10
0.118227
 20
0.637906
 11
0.123647
 21
0.651065
 0
LINE
 8
1
 62
1
 10
0.123647
 20
0.651065
 11
0.128023
 21
0.666091
 0
LINE
 8
1
 62
1
 10
0.128023
 20
0.666091
 11
0.131193
 21
0.682913
 0
LINE
 8
1
 62
1
 10
0.131193
 20
0.682913
 11
0.133001
 21
0.701448
 0
LINE
 8
1
 62
1
 10
0.133001
 20
0.701448
 11
0.133295
 21
0.721602
 0
LINE
 8
1
 62
1
 10
0.133295
 20
0.721602
 11
0.131930
 21
0.743270
 0
LINE
 8
1
 62
1
 10
0.131930
 20
0.743270
 11
0.131515
 21
0.746300
 0
LINE
 8
1
 62
1
 10
0.131515
 20
0.746300
 11
0.133193
 21
0.751132
 0
LINE
 8
1
 62
1
 10
0.133193
 20
0.751132
 11
0.135981
 21
0.758117
 0
LINE
 8
1
 62
1
 10
0.135981
 20
0.758117
 11
0.139715
 21
0.766366
 0
LINE
 8
1
 62
1
 10
0.139715
 20
0.766366
 11
0.144514
 21
0.775807
 0
LINE
 8
1
 62
1
 10
0.144514
 20
0.775807
 11
0.150495
 21
0.786358
 0
LINE
 8
1
 62
1
 10
0.150495
 20
0.786358
 11
0.157768
 21
0.797931
 0
LINE
 8
1
 62
1
 10
0.157768
 20
0.797931
 11
0.166436
 21
0.810430
 0
LINE
 8
1
 62
1
 10
0.166436
 20
0.810430
 11
0.176600
 21
0.823752
 0
LINE
 8
1
 62
1
 10
0.176600
 20
0.823752
 11
0.188351
 21
0.837784
 0
LINE
 8
1
 62
1
 10
0.188351
 20
0.837784
 11
0.201774
 21
0.852410
 0
LINE
 8
1
 62
1
 10
0.201774
 20
0.852410
 11
0.216947
 21
0.867506
 0
LINE
 8
1
 62
1
 10
0.216947
 20
0.867506
 11
0.233939
 21
0.882942
 0
LINE
 8
1
 62
1
 10
0.233939
 20
0.882942
 11
0.252811
 21
0.898583
 0
LINE
 8
1
 62
1
 10
0.252811
 20
0.898583
 11
0.269717
 21
0.911345
 0
LINE
 8
1
 62
1
 10
0.269717
 20
0.911345
 11
0.275978
 21
0.909777
 0
LINE
 8
1
 62
1
 10
0.275978
 20
0.909777
 11
0.363823
 21
0.878345
 0
LINE
 8
1
 62
1
 10
0.363823
 20
0.878345
 11
0.379295
 21
0.871028
 0
LINE
 8
1
 62
1
 10
0.379295
 20
0.871028
 11
0.383934
 21
0.850859
 0
LINE
 8
1
 62
1
 10
0.383934
 20
0.850859
 11
0.388337
 21
0.826746
 0
LINE
 8
1
 62
1
 10
0.388337
 20
0.826746
 11
0.391431
 21
0.803999
 0
LINE
 8
1
 62
1
 10
0.391431
 20
0.803999
 11
0.393351
 21
0.782682
 0
LINE
 8
1
 62
1
 10
0.393351
 20
0.782682
 11
0.394232
 21
0.762850
 0
LINE
 8
1
 62
1
 10
0.394232
 20
0.762850
 11
0.394214
 21
0.744547
 0
LINE
 8
1
 62
1
 10
0.394214
 20
0.744547
 11
0.393437
 21
0.727809
 0
LINE
 8
1
 62
1
 10
0.393437
 20
0.727809
 11
0.392043
 21
0.712662
 0
LINE
 8
1
 62
1
 10
0.392043
 20
0.712662
 11
0.390175
 21
0.699121
 0
LINE
 8
1
 62
1
 10
0.390175
 20
0.699121
 11
0.387975
 21
0.687194
 0
LINE
 8
1
 62
1
 10
0.387975
 20
0.687194
 11
0.385583
 21
0.676878
 0
LINE
 8
1
 62
1
 10
0.385583
 20
0.676878
 11
0.383141
 21
0.668158
 0
LINE
 8
1
 62
1
 10
0.383141
 20
0.668158
 11
0.380786
 21
0.661015
 0
LINE
 8
1
 62
1
 10
0.380786
 20
0.661015
 11
0.378966
 21
0.656235
 0
LINE
 8
1
 62
1
 10
0.378966
 20
0.656235
 11
0.376700
 21
0.654181
 0
LINE
 8
1
 62
1
 10
0.376700
 20
0.654181
 11
0.361727
 21
0.638459
 0
LINE
 8
1
 62
1
 10
0.361727
 20
0.638459
 11
0.348998
 21
0.622832
 0
LINE
 8
1
 62
1
 10
0.348998
 20
0.622832
 11
0.338469
 21
0.607471
 0
LINE
 8
1
 62
1
 10
0.338469
 20
0.607471
 11
0.330084
 21
0.592547
 0
LINE
 8
1
 62
1
 10
0.330084
 20
0.592547
 11
0.323777
 21
0.578223
 0
LINE
 8
1
 62
1
 10
0.323777
 20
0.578223
 11
0.319471
 21
0.564659
 0
LINE
 8
1
 62
1
 10
0.319471
 20
0.564659
 11
0.317079
 21
0.552007
 0
LINE
 8
1
 62
1
 10
0.317079
 20
0.552007
 11
0.316503
 21
0.540413
 0
LINE
 8
1
 62
1
 10
0.316503
 20
0.540413
 11
0.317638
 21
0.530018
 0
LINE
 8
1
 62
1
 10
0.317638
 20
0.530018
 11
0.320368
 21
0.520951
 0
LINE
 8
1
 62
1
 10
0.320368
 20
0.520951
 11
0.324569
 21
0.513337
 0
LINE
 8
1
 62
1
 10
0.324569
 20
0.513337
 11
0.330111
 21
0.507289
 0
LINE
 8
1
 62
1
 10
0.330111
 20
0.507289
 11
0.356726
 21
0.487344
 0
LINE
 8
1
 62
1
 10
0.356726
 20
0.487344
 11
0.387832
 21
0.462200
 0
LINE
 8
1
 62
1
 10
0.387832
 20
0.462200
 11
0.417996
 21
0.435932
 0
LINE
 8
1
 62
1
 10
0.417996
 20
0.435932
 11
0.442259
 21
0.413186
 0
LINE
 8
1
 62
1
 10
0.442259
 20
0.413186
 11
0.449177
 21
0.408778
 0
LINE
 8
1
 62
1
 10
0.449177
 20
0.408778
 11
0.457405
 21
0.405963
 0
LINE
 8
1
 62
1
 10
0.457405
 20
0.405963
 11
0.466808
 21
0.404849
 0
LINE
 8
1
 62
1
 10
0.466808
 20
0.404849
 11
0.477243
 21
0.405536
 0
LINE
 8
1
 62
1
 10
0.477243
 20
0.405536
 11
0.488561
 21
0.408116
 0
LINE
 8
1
 62
1
 10
0.488561
 20
0.408116
 11
0.500605
 21
0.412669
 0
LINE
 8
1
 62
1
 10
0.500605
 20
0.412669
 11
0.513216
 21
0.419265
 0
LINE
 8
1
 62
1
 10
0.513216
 20
0.419265
 11
0.526227
 21
0.427964
 0
LINE
 8
1
 62
1
 10
0.526227
 20
0.427964
 11
0.539468
 21
0.438813
 0
LINE
 8
1
 62
1
 10
0.539468
 20
0.438813
 11
0.552767
 21
0.451849
 0
LINE
 8
1
 62
1
 10
0.552767
 20
0.451849
 11
0.565946
 21
0.467099
 0
LINE
 8
1
 62
1
 10
0.565946
 20
0.467099
 11
0.578829
 21
0.484575
 0
LINE
 8
1
 62
1
 10
0.578829
 20
0.484575
 11
0.580459
 21
0.487163
 0
LINE
 8
1
 62
1
 10
0.580459
 20
0.487163
 11
0.584850
 21
0.489785
 0
LINE
 8
1
 62
1
 10
0.584850
 20
0.489785
 11
0.591476
 21
0.493344
 0
LINE
 8
1
 62
1
 10
0.591476
 20
0.493344
 11
0.599638
 21
0.497264
 0
LINE
 8
1
 62
1
 10
0.599638
 20
0.497264
 11
0.609383
 21
0.501410
 0
LINE
 8
1
 62
1
 10
0.609383
 20
0.501410
 11
0.620747
 21
0.505649
 0
LINE
 8
1
 62
1
 10
0.620747
 20
0.505649
 11
0.633757
 21
0.509840
 0
LINE
 8
1
 62
1
 10
0.633757
 20
0.509840
 11
0.648432
 21
0.513842
 0
LINE
 8
1
 62
1
 10
0.648432
 20
0.513842
 11
0.664781
 21
0.517514
 0
LINE
 8
1
 62
1
 10
0.664781
 20
0.517514
 11
0.682803
 21
0.520710
 0
LINE
 8
1
 62
1
 10
0.682803
 20
0.520710
 11
0.702487
 21
0.523286
 0
LINE
 8
1
 62
1
 10
0.702487
 20
0.523286
 11
0.723813
 21
0.525098
 0
LINE
 8
1
 62
1
 10
0.723813
 20
0.525098
 11
0.746752
 21
0.526000
 0
LINE
 8
1
 62
1
 10
0.746752
 20
0.526000
 11
0.771263
 21
0.525851
 0
LINE
 8
1
 62
1
 10
0.771263
 20
0.525851
 11
0.792549
 21
0.524753
 0
LINE
 8
1
 62
1
 10
0.792549
 20
0.524753
 11
0.838455
 21
0.448164
 0
LINE
 8
1
 62
1
 10
0.838455
 20
0.448164
 11
0.850290
 21
0.423141
 0
LINE
 8
1
 62
1
 10
0.850290
 20
0.423141
 11
0.841032
 21
0.405008
 0
LINE
 8
1
 62
1
 10
0.841032
 20
0.405008
 11
0.828905
 21
0.383706
 0
LINE
 8
1
 62
1
 10
0.828905
 20
0.383706
 11
0.816654
 21
0.364292
 0
LINE
 8
1
 62
1
 10
0.816654
 20
0.364292
 11
0.804423
 21
0.346728
 0
LINE
 8
1
 62
1
 10
0.804423
 20
0.346728
 11
0.792349
 21
0.330970
 0
LINE
 8
1
 62
1
 10
0.792349
 20
0.330970
 11
0.780571
 21
0.316960
 0
LINE
 8
1
 62
1
 10
0.780571
 20
0.316960
 11
0.769217
 21
0.304638
 0
LINE
 8
1
 62
1
 10
0.769217
 20
0.304638
 11
0.758413
 21
0.293930
 0
LINE
 8
1
 62
1
 10
0.758413
 20
0.293930
 11
0.748278
 21
0.284758
 0
LINE
 8
1
 62
1
 10
0.748278
 20
0.284758
 11
0.738926
 21
0.277036
 0
LINE
 8
1
 62
1
 10
0.738926
 20
0.277036
 11
0.730462
 21
0.270670
 0
LINE
 8
1
 62
1
 10
0.730462
 20
0.270670
 11
0.722987
 21
0.265561
 0
LINE
 8
1
 62
1
 10
0.722987
 20
0.265561
 11
0.716591
 21
0.261603
 0
LINE
 8
1
 62
1
 10
0.716591
 20
0.261603
 11
0.712125
 21
0.259110
 0
LINE
 8
1
 62
1
 10
0.712125
 20
0.259110
 11
0.709068
 21
0.258993
 0
LINE
 8
1
 62
1
 10
0.709068
 20
0.258993
 11
0.687492
 21
0.256575
 0
LINE
 8
1
 62
1
 10
0.687492
 20
0.256575
 11
0.667696
 21
0.252785
 0
LINE
 8
1
 62
1
 10
0.667696
 20
0.252785
 11
0.649757
 21
0.247787
 0
LINE
 8
1
 62
1
 10
0.649757
 20
0.247787
 11
0.633741
 21
0.241744
 0
LINE
 8
1
 62
1
 10
0.633741
 20
0.241744
 11
0.619702
 21
0.234825
 0
LINE
 8
1
 62
1
 10
0.619702
 20
0.234825
 11
0.607685
 21
0.227202
 0
LINE
 8
1
 62
1
 10
0.607685
 20
0.227202
 11
0.597719
 21
0.219048
 0
LINE
 8
1
 62
1
 10
0.597719
 20
0.219048
 11
0.589826
 21
0.210536
 0
LINE
 8
1
 62
1
 10
0.589826
 20
0.210536
 11
0.584013
 21
0.201843
 0
LINE
 8
1
 62
1
 10
0.584013
 20
0.201843
 11
0.580277
 21
0.193143
 0
LINE
 8
1
 62
1
 10
0.580277
 20
0.193143
 11
0.578601
 21
0.184609
 0
LINE
 8
1
 62
1
 10
0.578601
 20
0.184609
 11
0.578959
 21
0.176415
 0
LINE
 8
1
 62
1
 10
0.578959
 20
0.176415
 11
0.586526
 21
0.144029
 0
LINE
 8
1
 62
1
 10
0.586526
 20
0.144029
 11
0.594193
 21
0.104772
 0
LINE
 8
1
 62
1
 10
0.594193
 20
0.104772
 11
0.600415
 21
0.065261
 0
LINE
 8
1
 62
1
 10
0.600415
 20
0.065261
 11
0.604381
 21
0.032240
 0
LINE
 8
1
 62
1
 10
0.604381
 20
0.032240
 11
0.606847
 21
0.024417
 0
LINE
 8
1
 62
1
 10
0.606847
 20
0.024417
 11
0.611341
 21
0.016971
 0
LINE
 8
1
 62
1
 10
0.611341
 20
0.016971
 11
0.617828
 21
0.010074
 0
LINE
 8
1
 62
1
 10
0.617828
 20
0.010074
 11
0.626263
 21
0.003893
 0
LINE
 8
1
 62
1
 10
0.626263
 20
0.003893
 11
0.636591
 21
-0.001405
 0
LINE
 8
1
 62
1
 10
0.636591
 20
-0.001405
 11
0.648744
 21
-0.005660
 0
LINE
 8
1
 62
1
 10
0.648744
 20
-0.005660
 11
0.662645
 21
-0.008713
 0
LINE
 8
1
 62
1
 10
0.662645
 20
-0.008713
 11
0.678203
 21
-0.010413
 0
LINE
 8
1
 62
1
 10
0.678203
 20
-0.010413
 11
0.695320
 21
-0.010613
 0
LINE
 8
1
 62
1
 10
0.695320
 20
-0.010613
 11
0.713887
 21
-0.009175
 0
LINE
 8
1
 62
1
 10
0.713887
 20
-0.009175
 11
0.733785
 21
-0.005965
 0
LINE
 8
1
 62
1
 10
0.733785
 20
-0.005965
 11
0.754887
 21
-0.000858
 0
LINE
 8
1
 62
1
 10
0.754887
 20
-0.000858
 11
0.757799
 21
0.000077
 0
LINE
 8
1
 62
1
 10
0.757799
 20
0.000077
 11
0.762849
 21
-0.000737
 0
LINE
 8
1
 62
1
 10
0.762849
 20
-0.000737
 11
0.770213
 21
-0.002270
 0
LINE
 8
1
 62
1
 10
0.770213
 20
-0.002270
 11
0.778985
 21
-0.004514
 0
LINE
 8
1
 62
1
 10
0.778985
 20
-0.004514
 11
0.789115
 21
-0.007601
 0
LINE
 8
1
 62
1
 10
0.789115
 20
-0.007601
 11
0.800544
 21
-0.011659
 0
LINE
 8
1
 62
1
 10
0.800544
 20
-0.011659
 11
0.813205
 21
-0.016811
 0
LINE
 8
1
 62
1
 10
0.813205
 20
-0.016811
 11
0.827019
 21
-0.023178
 0
LINE
 8
1
 62
1
 10
0.827019
 20
-0.023178
 11
0.841903
 21
-0.030875
 0
LINE
 8
1
 62
1
 10
0.841903
 20
-0.030875
 11
0.857763
 21
-0.040010
 0
LINE
 8
1
 62
1
 10
0.857763
 20
-0.040010
 11
0.874498
 21
-0.050689
 0
LINE
 8
1
 62
1
 10
0.874498
 20
-0.050689
 11
0.891999
 21
-0.063010
 0
LINE
 8
1
 62
1
 10
0.891999
 20
-0.063010
 11
0.910152
 21
-0.077063
 0
LINE
 8
1
 62
1
 10
0.910152
 20
-0.077063
 11
0.928832
 21
-0.092933
 0
LINE
 8
1
 62
1
 10
0.928832
 20
-0.092933
 11
0.944070
 21
-0.107119
 0
ENDSEC
 0
EOF
